<svg width="64" height="65" viewBox="0 0 64 65" fill="none" xmlns="http://www.w3.org/2000/svg">
<rect width="64" height="64.003" rx="21.3333" transform="matrix(1 0 0 -1 0 64.4443)" fill="#8DCAF8"/>
<path d="M19.5442 43.524C18.2429 43.524 17.0589 43.2253 15.9922 42.628C14.9256 42.02 14.0029 41.1827 13.2242 40.116C12.4562 39.0493 11.8642 37.8173 11.4482 36.42C11.0322 35.012 10.8242 33.508 10.8242 31.908C10.8242 30.308 11.0322 28.8093 11.4482 27.412C11.8642 26.004 12.4562 24.7667 13.2242 23.7C14.0029 22.6333 14.9256 21.8013 15.9922 21.204C17.0589 20.596 18.2429 20.292 19.5442 20.292C20.8456 20.292 22.0296 20.596 23.0962 21.204C24.1629 21.8013 25.0749 22.6333 25.8322 23.7C26.6002 24.7667 27.1922 26.004 27.6082 27.412C28.0349 28.8093 28.2482 30.308 28.2482 31.908C28.2482 33.508 28.0349 35.012 27.6082 36.42C27.1922 37.8173 26.6002 39.0493 25.8322 40.116C25.0749 41.1827 24.1629 42.02 23.0962 42.628C22.0296 43.2253 20.8456 43.524 19.5442 43.524ZM19.5442 39.62C20.6856 39.62 21.6296 39.2573 22.3762 38.532C23.1229 37.8067 23.6776 36.8573 24.0402 35.684C24.4029 34.5107 24.5842 33.252 24.5842 31.908C24.5842 30.4893 24.3922 29.1987 24.0082 28.036C23.6242 26.8627 23.0589 25.9293 22.3122 25.236C21.5656 24.5427 20.6429 24.196 19.5442 24.196C18.6802 24.196 17.9282 24.4093 17.2882 24.836C16.6589 25.252 16.1362 25.8227 15.7202 26.548C15.3042 27.2733 14.9949 28.1 14.7922 29.028C14.5896 29.9453 14.4882 30.9053 14.4882 31.908C14.4882 33.2413 14.6696 34.5 15.0322 35.684C15.4056 36.8573 15.9656 37.8067 16.7122 38.532C17.4696 39.2573 18.4136 39.62 19.5442 39.62Z" fill="#0061A8"/>
<path d="M32.552 43.108L45.48 20.708H49.992L37.064 43.108H32.552ZM35.304 30.42C34.4293 30.42 33.624 30.212 32.888 29.796C32.1626 29.3693 31.5813 28.7933 31.144 28.068C30.7066 27.3427 30.488 26.532 30.488 25.636C30.488 24.7187 30.7066 23.8973 31.144 23.172C31.592 22.4467 32.1786 21.876 32.904 21.46C33.64 21.044 34.44 20.836 35.304 20.836C36.1786 20.836 36.9786 21.0493 37.704 21.476C38.4293 21.9027 39.0053 22.4787 39.432 23.204C39.8693 23.9293 40.088 24.74 40.088 25.636C40.088 26.5427 39.864 27.3587 39.416 28.084C38.9786 28.8093 38.3973 29.38 37.672 29.796C36.9466 30.212 36.1573 30.42 35.304 30.42ZM35.304 27.748C35.88 27.748 36.376 27.5453 36.792 27.14C37.208 26.724 37.416 26.2227 37.416 25.636C37.416 25.0387 37.208 24.5373 36.792 24.132C36.376 23.7267 35.88 23.524 35.304 23.524C34.7173 23.524 34.2106 23.7267 33.784 24.132C33.368 24.5373 33.16 25.0387 33.16 25.636C33.16 26.2227 33.368 26.724 33.784 27.14C34.2106 27.5453 34.7173 27.748 35.304 27.748ZM47.24 42.996C46.3546 42.996 45.5493 42.7773 44.824 42.34C44.0986 41.892 43.5226 41.3053 43.096 40.58C42.6693 39.844 42.456 39.0547 42.456 38.212C42.456 37.2947 42.6746 36.4733 43.112 35.748C43.56 35.0227 44.1466 34.452 44.872 34.036C45.608 33.6093 46.3973 33.396 47.24 33.396C48.1573 33.396 48.9786 33.62 49.704 34.068C50.4293 34.516 51 35.108 51.416 35.844C51.8426 36.5693 52.056 37.3587 52.056 38.212C52.056 39.0867 51.8373 39.8867 51.4 40.612C50.9733 41.3373 50.392 41.9187 49.656 42.356C48.9306 42.7827 48.1253 42.996 47.24 42.996ZM47.24 40.324C47.8373 40.324 48.344 40.116 48.76 39.7C49.176 39.284 49.384 38.788 49.384 38.212C49.384 37.6147 49.176 37.108 48.76 36.692C48.344 36.276 47.8373 36.068 47.24 36.068C46.664 36.068 46.168 36.276 45.752 36.692C45.336 37.108 45.128 37.6147 45.128 38.212C45.128 38.788 45.336 39.284 45.752 39.7C46.168 40.116 46.664 40.324 47.24 40.324Z" fill="#0061A8"/>
</svg>
