<svg width="64" height="65" viewBox="0 0 64 65" fill="none" xmlns="http://www.w3.org/2000/svg">
<rect y="0.441406" width="64" height="64" rx="16" fill="#FFAD61"/>
<mask id="path-2-outside-1_574_28222" maskUnits="userSpaceOnUse" x="16" y="16.4414" width="31" height="32" fill="black">
<rect fill="white" x="16" y="16.4414" width="31" height="32"/>
<path fill-rule="evenodd" clip-rule="evenodd" d="M20.5 18.4414C20.2239 18.4414 20 18.6653 20 18.9414V23.4414H23V18.9414C23 18.6653 22.7761 18.4414 22.5 18.4414H20.5ZM23 25.4414H24C24.5523 25.4414 25 25.8891 25 26.4414V29.4414C25 29.9937 24.5523 30.4414 24 30.4414H23H20H19C18.4477 30.4414 18 29.9937 18 29.4414V26.4414C18 25.8891 18.4477 25.4414 19 25.4414H20H23ZM20 32.4414V45.9414C20 46.2175 20.2239 46.4414 20.5 46.4414H22.5C22.7761 46.4414 23 46.2175 23 45.9414V32.4414H20ZM30.5 18.4414C30.2239 18.4414 30 18.6653 30 18.9414V32.4414H33V18.9414C33 18.6653 32.7761 18.4414 32.5 18.4414H30.5ZM34 34.4414H33H30H29C28.4477 34.4414 28 34.8891 28 35.4414V38.4414C28 38.9937 28.4477 39.4414 29 39.4414H30H33H34C34.5523 39.4414 35 38.9937 35 38.4414V35.4414C35 34.8891 34.5523 34.4414 34 34.4414ZM30 45.9414V41.4414H33V45.9414C33 46.2175 32.7761 46.4414 32.5 46.4414H30.5C30.2239 46.4414 30 46.2175 30 45.9414ZM40 18.9414C40 18.6653 40.2239 18.4414 40.5 18.4414H42.5C42.7761 18.4414 43 18.6653 43 18.9414V23.4414H40V18.9414ZM43 25.4414H44C44.5523 25.4414 45 25.8891 45 26.4414V29.4414C45 29.9937 44.5523 30.4414 44 30.4414H43H40H39C38.4477 30.4414 38 29.9937 38 29.4414V26.4414C38 25.8891 38.4477 25.4414 39 25.4414H40H43ZM40 32.4414V45.9414C40 46.2175 40.2239 46.4414 40.5 46.4414H42.5C42.7761 46.4414 43 46.2175 43 45.9414V32.4414H40Z"/>
</mask>
<path fill-rule="evenodd" clip-rule="evenodd" d="M20.5 18.4414C20.2239 18.4414 20 18.6653 20 18.9414V23.4414H23V18.9414C23 18.6653 22.7761 18.4414 22.5 18.4414H20.5ZM23 25.4414H24C24.5523 25.4414 25 25.8891 25 26.4414V29.4414C25 29.9937 24.5523 30.4414 24 30.4414H23H20H19C18.4477 30.4414 18 29.9937 18 29.4414V26.4414C18 25.8891 18.4477 25.4414 19 25.4414H20H23ZM20 32.4414V45.9414C20 46.2175 20.2239 46.4414 20.5 46.4414H22.5C22.7761 46.4414 23 46.2175 23 45.9414V32.4414H20ZM30.5 18.4414C30.2239 18.4414 30 18.6653 30 18.9414V32.4414H33V18.9414C33 18.6653 32.7761 18.4414 32.5 18.4414H30.5ZM34 34.4414H33H30H29C28.4477 34.4414 28 34.8891 28 35.4414V38.4414C28 38.9937 28.4477 39.4414 29 39.4414H30H33H34C34.5523 39.4414 35 38.9937 35 38.4414V35.4414C35 34.8891 34.5523 34.4414 34 34.4414ZM30 45.9414V41.4414H33V45.9414C33 46.2175 32.7761 46.4414 32.5 46.4414H30.5C30.2239 46.4414 30 46.2175 30 45.9414ZM40 18.9414C40 18.6653 40.2239 18.4414 40.5 18.4414H42.5C42.7761 18.4414 43 18.6653 43 18.9414V23.4414H40V18.9414ZM43 25.4414H44C44.5523 25.4414 45 25.8891 45 26.4414V29.4414C45 29.9937 44.5523 30.4414 44 30.4414H43H40H39C38.4477 30.4414 38 29.9937 38 29.4414V26.4414C38 25.8891 38.4477 25.4414 39 25.4414H40H43ZM40 32.4414V45.9414C40 46.2175 40.2239 46.4414 40.5 46.4414H42.5C42.7761 46.4414 43 46.2175 43 45.9414V32.4414H40Z" fill="#8F3300"/>
<path d="M20 23.4414H18V25.4414H20V23.4414ZM23 23.4414V25.4414H25V23.4414H23ZM20 32.4414V30.4414H18V32.4414H20ZM23 32.4414H25V30.4414H23V32.4414ZM30 32.4414H28V34.4414H30V32.4414ZM33 32.4414V34.4414H35V32.4414H33ZM30 41.4414V39.4414H28V41.4414H30ZM33 41.4414H35V39.4414H33V41.4414ZM43 23.4414V25.4414H45V23.4414H43ZM40 23.4414H38V25.4414H40V23.4414ZM40 32.4414V30.4414H38V32.4414H40ZM43 32.4414H45V30.4414H43V32.4414ZM22 18.9414C22 19.7698 21.3284 20.4414 20.5 20.4414V16.4414C19.1193 16.4414 18 17.5607 18 18.9414H22ZM22 23.4414V18.9414H18V23.4414H22ZM23 21.4414H20V25.4414H23V21.4414ZM21 18.9414V23.4414H25V18.9414H21ZM22.5 20.4414C21.6716 20.4414 21 19.7698 21 18.9414H25C25 17.5607 23.8807 16.4414 22.5 16.4414V20.4414ZM20.5 20.4414H22.5V16.4414H20.5V20.4414ZM24 23.4414H23V27.4414H24V23.4414ZM27 26.4414C27 24.7846 25.6569 23.4414 24 23.4414V27.4414C23.4477 27.4414 23 26.9937 23 26.4414H27ZM27 29.4414V26.4414H23V29.4414H27ZM24 32.4414C25.6569 32.4414 27 31.0983 27 29.4414H23C23 28.8891 23.4477 28.4414 24 28.4414V32.4414ZM23 32.4414H24V28.4414H23V32.4414ZM20 32.4414H23V28.4414H20V32.4414ZM19 32.4414H20V28.4414H19V32.4414ZM16 29.4414C16 31.0983 17.3431 32.4414 19 32.4414V28.4414C19.5523 28.4414 20 28.8891 20 29.4414H16ZM16 26.4414V29.4414H20V26.4414H16ZM19 23.4414C17.3431 23.4414 16 24.7846 16 26.4414H20C20 26.9937 19.5523 27.4414 19 27.4414V23.4414ZM20 23.4414H19V27.4414H20V23.4414ZM23 23.4414H20V27.4414H23V23.4414ZM22 45.9414V32.4414H18V45.9414H22ZM20.5 44.4414C21.3284 44.4414 22 45.113 22 45.9414H18C18 47.3221 19.1193 48.4414 20.5 48.4414V44.4414ZM22.5 44.4414H20.5V48.4414H22.5V44.4414ZM21 45.9414C21 45.113 21.6716 44.4414 22.5 44.4414V48.4414C23.8807 48.4414 25 47.3221 25 45.9414H21ZM21 32.4414V45.9414H25V32.4414H21ZM20 34.4414H23V30.4414H20V34.4414ZM32 18.9414C32 19.7698 31.3284 20.4414 30.5 20.4414V16.4414C29.1193 16.4414 28 17.5607 28 18.9414H32ZM32 32.4414V18.9414H28V32.4414H32ZM33 30.4414H30V34.4414H33V30.4414ZM31 18.9414V32.4414H35V18.9414H31ZM32.5 20.4414C31.6716 20.4414 31 19.7698 31 18.9414H35C35 17.5607 33.8807 16.4414 32.5 16.4414V20.4414ZM30.5 20.4414H32.5V16.4414H30.5V20.4414ZM33 36.4414H34V32.4414H33V36.4414ZM30 36.4414H33V32.4414H30V36.4414ZM29 36.4414H30V32.4414H29V36.4414ZM30 35.4414C30 35.9937 29.5523 36.4414 29 36.4414V32.4414C27.3431 32.4414 26 33.7846 26 35.4414H30ZM30 38.4414V35.4414H26V38.4414H30ZM29 37.4414C29.5523 37.4414 30 37.8891 30 38.4414H26C26 40.0983 27.3431 41.4414 29 41.4414V37.4414ZM30 37.4414H29V41.4414H30V37.4414ZM33 37.4414H30V41.4414H33V37.4414ZM34 37.4414H33V41.4414H34V37.4414ZM33 38.4414C33 37.8891 33.4477 37.4414 34 37.4414V41.4414C35.6569 41.4414 37 40.0983 37 38.4414H33ZM33 35.4414V38.4414H37V35.4414H33ZM34 36.4414C33.4477 36.4414 33 35.9937 33 35.4414H37C37 33.7846 35.6569 32.4414 34 32.4414V36.4414ZM28 41.4414V45.9414H32V41.4414H28ZM33 39.4414H30V43.4414H33V39.4414ZM35 45.9414V41.4414H31V45.9414H35ZM32.5 48.4414C33.8807 48.4414 35 47.3221 35 45.9414H31C31 45.113 31.6716 44.4414 32.5 44.4414V48.4414ZM30.5 48.4414H32.5V44.4414H30.5V48.4414ZM28 45.9414C28 47.3221 29.1193 48.4414 30.5 48.4414V44.4414C31.3284 44.4414 32 45.113 32 45.9414H28ZM40.5 16.4414C39.1193 16.4414 38 17.5607 38 18.9414H42C42 19.7698 41.3284 20.4414 40.5 20.4414V16.4414ZM42.5 16.4414H40.5V20.4414H42.5V16.4414ZM45 18.9414C45 17.5607 43.8807 16.4414 42.5 16.4414V20.4414C41.6716 20.4414 41 19.7698 41 18.9414H45ZM45 23.4414V18.9414H41V23.4414H45ZM40 25.4414H43V21.4414H40V25.4414ZM38 18.9414V23.4414H42V18.9414H38ZM44 23.4414H43V27.4414H44V23.4414ZM47 26.4414C47 24.7846 45.6569 23.4414 44 23.4414V27.4414C43.4477 27.4414 43 26.9937 43 26.4414H47ZM47 29.4414V26.4414H43V29.4414H47ZM44 32.4414C45.6569 32.4414 47 31.0983 47 29.4414H43C43 28.8891 43.4477 28.4414 44 28.4414V32.4414ZM43 32.4414H44V28.4414H43V32.4414ZM40 32.4414H43V28.4414H40V32.4414ZM39 32.4414H40V28.4414H39V32.4414ZM36 29.4414C36 31.0983 37.3431 32.4414 39 32.4414V28.4414C39.5523 28.4414 40 28.8891 40 29.4414H36ZM36 26.4414V29.4414H40V26.4414H36ZM39 23.4414C37.3431 23.4414 36 24.7846 36 26.4414H40C40 26.9937 39.5523 27.4414 39 27.4414V23.4414ZM40 23.4414H39V27.4414H40V23.4414ZM43 23.4414H40V27.4414H43V23.4414ZM38 32.4414V45.9414H42V32.4414H38ZM38 45.9414C38 47.3221 39.1193 48.4414 40.5 48.4414V44.4414C41.3284 44.4414 42 45.113 42 45.9414H38ZM40.5 48.4414H42.5V44.4414H40.5V48.4414ZM42.5 48.4414C43.8807 48.4414 45 47.3221 45 45.9414H41C41 45.113 41.6716 44.4414 42.5 44.4414V48.4414ZM45 45.9414V32.4414H41V45.9414H45ZM43 30.4414H40V34.4414H43V30.4414Z" fill="#FFAD61" mask="url(#path-2-outside-1_574_28222)"/>
</svg>
