<svg width="64" height="65" viewBox="0 0 64 65" fill="none" xmlns="http://www.w3.org/2000/svg">
<rect y="0.441406" width="64" height="64" rx="16" fill="#D7BCFE"/>
<path d="M32.0016 22.9365C19.9289 22.9365 13.6016 31.8288 13.6016 33.2408C13.6016 34.649 19.9289 43.545 32.0016 43.545C44.0705 43.545 50.4016 34.649 50.4016 33.2408C50.4016 31.8288 44.0705 22.9365 32.0016 22.9365ZM32.0016 41.1642C27.4842 41.1642 23.823 37.6156 23.823 33.2408C23.823 28.8622 27.4842 25.3136 32.0016 25.3136C36.5189 25.3136 40.1802 28.8622 40.1802 33.2408C40.1802 37.6193 36.5189 41.1642 32.0016 41.1642ZM32.0016 33.2408C31.2543 32.4184 33.222 29.2791 32.0016 29.2791C29.741 29.2791 27.9123 31.0553 27.9123 33.2408C27.9123 35.4263 29.741 37.2025 32.0016 37.2025C34.2584 37.2025 36.0909 35.4263 36.0909 33.2408C36.0909 32.2344 32.6399 33.9392 32.0016 33.2408Z" fill="#6308EB"/>
</svg>
