<svg width="64" height="66" viewBox="0 0 64 66" fill="none" xmlns="http://www.w3.org/2000/svg">
<rect y="0.98584" width="64" height="64.003" rx="21.3333" fill="#FFC451"/>
<path d="M48 32.9863C48 24.1476 40.8387 16.9863 32 16.9863C23.1613 16.9863 16 24.1476 16 32.9863C16 41.825 23.1613 48.9863 32 48.9863C40.8387 48.9863 48 41.825 48 32.9863ZM29.1613 40.4702V32.9863H24.5871C23.8968 32.9863 23.5484 32.1476 24.0387 31.6638L31.4516 24.2896C31.7548 23.9863 32.2387 23.9863 32.5419 24.2896L39.9548 31.6638C40.4452 32.1541 40.0968 32.9863 39.4065 32.9863H34.8387V40.4702C34.8387 40.896 34.4903 41.2444 34.0645 41.2444H29.9355C29.5097 41.2444 29.1613 40.896 29.1613 40.4702Z" fill="#916002"/>
</svg>
