<svg width="64" height="64" fill="none" xmlns="http://www.w3.org/2000/svg"><rect width="64" height="64" rx="16" fill="#D7BCFE"/><path d="M35.73 35.147c-.002-.016.003-.03-.001-.046-.01-.046-.033-.088-.044-.132a9.187 9.187 0 0 0-.439-1.304c-.006-.015-.009-.03-.014-.044-.006-.012-.016-.019-.022-.03a9.381 9.381 0 0 0-4.089-4.457c-.005-.004-.008-.01-.015-.013-.028-.015-.061-.024-.089-.039a9.396 9.396 0 0 0-1.18-.516c-.053-.02-.103-.05-.156-.068-.016-.005-.032-.001-.047-.007A9.273 9.273 0 0 0 26.666 28a9.27 9.27 0 0 0-3.058.525c-.01.004-.023 0-.034.004-.033.012-.062.032-.094.043a9.34 9.34 0 0 0-1.32.593l-.004.001c-.001.001-.001.003-.003.003-2.87 1.593-4.82 4.654-4.82 8.164 0 .542.07 1.09.17 1.638A5.303 5.303 0 0 0 16 42.666a5.339 5.339 0 0 0 5.333 5.333 5.303 5.303 0 0 0 3.695-1.503c.548.1 1.097.17 1.639.17 3.178 0 5.989-1.602 7.674-4.036a1.322 1.322 0 0 0 1.207-1.248 1.301 1.301 0 0 0-.182-.697A9.242 9.242 0 0 0 36 37.333c0-.754-.1-1.483-.27-2.186zm-11.858 8.29a2.757 2.757 0 0 1-.404.807l-.028.038a2.654 2.654 0 0 1-2.107 1.05 2.67 2.67 0 0 1-2.666-2.666c0-.856.412-1.61 1.04-2.099l.049-.036a2.69 2.69 0 0 1 .716-.376l.093-.03c.25-.078.505-.126.768-.126A2.67 2.67 0 0 1 24 42.666c0 .264-.048.521-.128.772zM27.249 21.234c.288 0 .58-.093.822-.285.312-.244.636-.472.972-.682a1.334 1.334 0 0 0-1.41-2.264c-.418.26-.823.544-1.21.85a1.334 1.334 0 0 0 .826 2.381zM34.668 16c-.499 0-.99.028-1.476.081a1.332 1.332 0 1 0 .29 2.65 10.9 10.9 0 0 1 1.186-.064 1.333 1.333 0 1 0 0-2.667zM22.933 26.48a1.333 1.333 0 0 0 1.708-.799c.136-.37.292-.733.466-1.085a1.333 1.333 0 1 0-2.388-1.185 13.24 13.24 0 0 0-.584 1.362 1.332 1.332 0 0 0 .798 1.708zM45.854 33.891a1.333 1.333 0 0 0-1.81.532c-.19.348-.398.684-.623 1.008a1.333 1.333 0 1 0 2.184 1.527c.282-.403.544-.823.78-1.257a1.334 1.334 0 0 0-.531-1.81zM38.845 19.515c.364.156.719.332 1.063.526a1.334 1.334 0 1 0 1.31-2.323 13.31 13.31 0 0 0-1.326-.655 1.333 1.333 0 1 0-1.047 2.452zM47.976 28.566c-.041-.736-.69-1.291-1.407-1.256a1.333 1.333 0 0 0-1.254 1.406 10.611 10.611 0 0 1 .004 1.184 1.333 1.333 0 0 0 1.257 1.406h.075c.702 0 1.29-.548 1.329-1.26a13.341 13.341 0 0 0-.004-1.481zM39.947 38.603c-.342.195-.695.371-1.059.529a1.333 1.333 0 1 0 1.055 2.449c.456-.196.9-.419 1.326-.663a1.333 1.333 0 0 0-1.323-2.315zM44.021 24.201a1.333 1.333 0 1 0 2.336-1.285 13.131 13.131 0 0 0-.786-1.258 1.334 1.334 0 0 0-2.178 1.54c.228.322.436.656.628 1.003z" fill="#6308EB"/></svg>