<svg width="64" height="64" fill="none" xmlns="http://www.w3.org/2000/svg"><rect width="64" height="64" rx="16" fill="#FFAD61"/><path fill-rule="evenodd" clip-rule="evenodd" d="M31.709 14.836c.191-.048.391-.048.582 0l12.8 3.2A1.2 1.2 0 0 1 46 19.2V32c0 5.336-3.538 9.64-6.81 12.503a35.9 35.9 0 0 1-6.488 4.485l-.118.061-.033.017-.01.005-.004.002L32 48l-.537 1.073-.005-.002-.009-.005-.033-.017a14.98 14.98 0 0 1-.547-.293 35.908 35.908 0 0 1-6.059-4.253C21.538 41.64 18 37.336 18 32V19.2c0-.55.375-1.03.909-1.164l12.8-3.2zm-.246 34.237L32 48l.537 1.073a1.203 1.203 0 0 1-1.074 0zm9.074-19.54a8.533 8.533 0 1 1-17.066 0 8.533 8.533 0 0 1 17.066 0zM27.934 29.3c-.37.37-.37.97 0 1.341l2.224 2.224.01.01a.948.948 0 0 0 1.341 0l.016-.014 4.454-4.455a.948.948 0 0 0-1.34-1.34l-3.576 3.575a.316.316 0 0 1-.447 0l-1.34-1.34a.948.948 0 0 0-1.342 0z" fill="#8F3300"/></svg>