<svg width="64" height="64" viewBox="0 0 64 64" fill="none" xmlns="http://www.w3.org/2000/svg">
<rect width="64" height="64" rx="16" fill="#D7BCFE"/>
<path d="M35.7303 35.1474C35.7276 35.1314 35.7329 35.1167 35.7289 35.1007C35.7183 35.0554 35.6956 35.0127 35.6849 34.9687C35.5676 34.5207 35.4263 34.0834 35.2463 33.6647C35.2396 33.65 35.237 33.6354 35.2316 33.6207C35.2263 33.6087 35.2156 33.602 35.2103 33.5914C34.3756 31.6927 32.9316 30.1208 31.121 29.1342C31.1157 29.1302 31.113 29.1249 31.1064 29.1209C31.0784 29.1062 31.045 29.0969 31.017 29.0822C30.6384 28.8822 30.2438 28.7142 29.8371 28.5662C29.7838 28.5462 29.7344 28.5155 29.6811 28.4982C29.6651 28.4929 29.6491 28.4969 29.6344 28.4915C28.6997 28.1768 27.7051 27.9995 26.6665 27.9995C25.5945 27.9995 24.5678 28.1902 23.6078 28.5248C23.5971 28.5288 23.5851 28.5248 23.5745 28.5288C23.5412 28.5408 23.5118 28.5608 23.4798 28.5715C23.0225 28.7382 22.5799 28.9328 22.1599 29.1648C22.1586 29.1661 22.1572 29.1661 22.1559 29.1661C22.1546 29.1674 22.1546 29.1688 22.1532 29.1688C19.2826 30.7621 17.3333 33.8234 17.3333 37.3326C17.3333 37.8753 17.4026 38.4233 17.5026 38.9713C16.576 39.9312 16 41.2299 16 42.6659C16 45.6071 18.3919 47.9991 21.3332 47.9991C22.7692 47.9991 24.0678 47.4231 25.0278 46.4964C25.5758 46.5964 26.1251 46.6657 26.6665 46.6657C29.8451 46.6657 32.6556 45.0644 34.341 42.6298C34.9903 42.5658 35.517 42.0525 35.5476 41.3818C35.5596 41.1258 35.4823 40.8939 35.3663 40.6845C35.7703 39.6433 35.9996 38.5153 35.9996 37.3326C35.9996 36.5793 35.8996 35.85 35.7303 35.1474ZM23.8718 43.4379C23.8638 43.4672 23.8558 43.4952 23.8451 43.5245C23.7558 43.7765 23.6331 44.0205 23.4678 44.2445L23.4398 44.2818C22.9518 44.9165 22.1932 45.3325 21.3332 45.3325C19.8625 45.3325 18.6666 44.1365 18.6666 42.6659C18.6666 41.8099 19.0786 41.0552 19.7079 40.5672L19.7559 40.5312C19.9785 40.3659 20.2212 40.2432 20.4718 40.1552C20.5025 40.1446 20.5345 40.1352 20.5652 40.1259C20.8145 40.0472 21.0705 39.9992 21.3331 39.9992C22.8038 39.9992 23.9998 41.1952 23.9998 42.6659C23.9998 42.9299 23.9518 43.1872 23.8718 43.4379Z" fill="#6308EB"/>
<path d="M27.2488 21.2341C27.5367 21.2341 27.8287 21.1408 28.0714 20.9488C28.3834 20.7048 28.7074 20.4768 29.0434 20.2675C29.6674 19.8782 29.8594 19.0555 29.4701 18.4302C29.0808 17.8049 28.2581 17.6155 27.6341 18.0035C27.2154 18.2635 26.8101 18.5475 26.4235 18.8528C25.8435 19.3088 25.7448 20.1475 26.1995 20.7261C26.4621 21.0595 26.8541 21.2341 27.2488 21.2341Z" fill="#6308EB"/>
<path d="M34.6681 16C34.1694 16 33.6774 16.028 33.1921 16.0813C32.4601 16.1613 31.9308 16.82 32.0122 17.552C32.0868 18.2346 32.6641 18.7399 33.3361 18.7399C33.3841 18.7399 33.4334 18.7373 33.4828 18.7319C33.8721 18.6893 34.2681 18.6666 34.6681 18.6666C35.4054 18.6666 36.0014 18.0693 36.0014 17.3333C36.0014 16.5974 35.4054 16 34.6681 16Z" fill="#6308EB"/>
<path d="M22.9328 26.4809C23.0834 26.5356 23.2381 26.5622 23.3888 26.5622C23.9327 26.5622 24.4447 26.2249 24.6407 25.6822C24.7767 25.3102 24.9327 24.9475 25.1074 24.5955C25.4354 23.9355 25.1661 23.1356 24.5061 22.8089C23.8474 22.4809 23.0448 22.7516 22.7195 23.4102C22.5008 23.8515 22.3048 24.3062 22.1355 24.7728C21.8835 25.4649 22.2408 26.2302 22.9328 26.4809Z" fill="#6308EB"/>
<path d="M45.854 33.8914C45.2073 33.5381 44.3967 33.7768 44.0447 34.4234C43.854 34.7714 43.646 35.1074 43.4207 35.4314C42.9981 36.0341 43.1461 36.8661 43.7487 37.2874C43.982 37.4501 44.2487 37.5287 44.5114 37.5287C44.9327 37.5287 45.3461 37.33 45.6047 36.958C45.8874 36.5553 46.1487 36.1353 46.3847 35.7007C46.738 35.054 46.4993 34.2448 45.854 33.8914Z" fill="#6308EB"/>
<path d="M38.8453 19.5154C39.2093 19.6714 39.564 19.8474 39.908 20.0407C40.1147 20.1567 40.34 20.2127 40.5613 20.2127C41.028 20.2127 41.4799 19.9687 41.7239 19.534C42.0866 18.8927 41.8599 18.0793 41.2173 17.718C40.7906 17.4767 40.348 17.2581 39.892 17.0634C39.2187 16.7727 38.432 17.0874 38.1427 17.766C37.8533 18.4434 38.168 19.2261 38.8453 19.5154Z" fill="#6308EB"/>
<path d="M47.976 28.5656C47.9346 27.8296 47.2853 27.275 46.5693 27.3096C45.8346 27.351 45.2733 27.9816 45.3146 28.7163C45.3266 28.9216 45.332 29.1256 45.332 29.3416C45.3333 29.5283 45.328 29.7149 45.3186 29.9003C45.2773 30.6349 45.8399 31.2642 46.5759 31.3056C46.6012 31.3069 46.6252 31.3069 46.6506 31.3069C47.3533 31.3069 47.9413 30.7576 47.9799 30.0469C47.9946 29.8082 47.9999 29.5669 47.9986 29.3336C47.9986 29.0749 47.9906 28.8189 47.976 28.5656Z" fill="#6308EB"/>
<path d="M39.9468 38.6035C39.6055 38.7982 39.2521 38.9742 38.8881 39.1315C38.2121 39.4222 37.9001 40.2062 38.1908 40.8821C38.4081 41.3874 38.9001 41.6901 39.4161 41.6901C39.5908 41.6901 39.7708 41.6554 39.9428 41.5808C40.3987 41.3848 40.8427 41.1621 41.2694 40.9181C41.9094 40.5528 42.1321 39.7395 41.7654 39.0995C41.4 38.4608 40.5854 38.2382 39.9468 38.6035Z" fill="#6308EB"/>
<path d="M44.0213 24.201C44.264 24.6423 44.72 24.8917 45.1906 24.8917C45.4079 24.8917 45.6279 24.8397 45.8306 24.7264C46.4772 24.3717 46.7132 23.5611 46.3572 22.9157C46.1186 22.4811 45.8559 22.0624 45.5706 21.6585C45.1439 21.0585 44.3119 20.9145 43.7133 21.3398C43.1106 21.7651 42.968 22.5971 43.3933 23.1984C43.6213 23.5197 43.8293 23.8543 44.0213 24.201Z" fill="#6308EB"/>
</svg>
