<svg width="64" height="64" viewBox="0 0 64 64" fill="none" xmlns="http://www.w3.org/2000/svg">
<rect width="64" height="64" rx="16" fill="#FF7D60"/>
<path d="M46.3033 36.701C44.2277 34.6405 40.9647 34.4955 38.7211 36.2656L36.5795 34.1556L43.7168 27.056C46.2239 24.5624 46.2367 20.5094 43.7454 18L32.0222 29.6664L20.5093 18.3268C19.3146 19.53 18.6483 21.1597 18.6571 22.855C18.666 24.5503 19.3494 26.1728 20.5569 27.3635L27.4766 34.1904L25.2786 36.3775C23.0354 34.6071 19.7717 34.7524 17.6964 36.8132C15.4532 39.0391 15.4296 42.6653 17.6561 44.9083C19.8829 47.1512 23.5085 47.1538 25.7511 44.927L32.0297 38.6815L38.2486 44.8154C40.4912 47.0423 44.1171 47.0403 46.344 44.7967C48.5708 42.5534 48.5465 38.9282 46.3033 36.701ZM23.2585 42.4153C22.4126 43.2546 21.0424 43.2494 20.2028 42.4042C19.3635 41.559 19.3688 40.1878 20.2143 39.3488C21.0598 38.5099 22.4303 38.5145 23.2696 39.3597C24.1089 40.2055 24.104 41.5757 23.2585 42.4153ZM32.075 36.3746C30.8754 36.3746 29.9026 35.4021 29.9026 34.2022C29.9026 33.0026 30.8751 32.0298 32.075 32.0298C33.2749 32.0298 34.2474 33.0023 34.2474 34.2022C34.2474 35.4021 33.2745 36.3746 32.075 36.3746ZM43.7972 42.2929C42.9573 43.1381 41.5874 43.1437 40.7416 42.3038C39.8964 41.4638 39.8911 40.094 40.7307 39.2481C41.5704 38.4029 42.9405 38.3983 43.7861 39.2373C44.6313 40.0772 44.6362 41.4481 43.7972 42.2929Z" fill="#6D1400"/>
</svg>
