<svg width="64" height="64" fill="none" xmlns="http://www.w3.org/2000/svg"><rect width="64" height="64" rx="16" fill="#8DCAF8"/><mask id="a" maskUnits="userSpaceOnUse" x="16" y="16" width="31" height="32" fill="#000"><path fill="#fff" d="M16 16h31v32H16z"/><path fill-rule="evenodd" clip-rule="evenodd" d="M20.5 18a.5.5 0 0 0-.5.5V23h3v-4.5a.5.5 0 0 0-.5-.5h-2zm2.5 7h1a1 1 0 0 1 1 1v3a1 1 0 0 1-1 1h-5a1 1 0 0 1-1-1v-3a1 1 0 0 1 1-1h4zm-3 7v13.5a.5.5 0 0 0 .5.5h2a.5.5 0 0 0 .5-.5V32h-3zm10.5-14a.5.5 0 0 0-.5.5V32h3V18.5a.5.5 0 0 0-.5-.5h-2zM34 34h-5a1 1 0 0 0-1 1v3a1 1 0 0 0 1 1h5a1 1 0 0 0 1-1v-3a1 1 0 0 0-1-1zm-4 11.5V41h3v4.5a.5.5 0 0 1-.5.5h-2a.5.5 0 0 1-.5-.5zm10-27a.5.5 0 0 1 .5-.5h2a.5.5 0 0 1 .5.5V23h-3v-4.5zm3 6.5h1a1 1 0 0 1 1 1v3a1 1 0 0 1-1 1h-5a1 1 0 0 1-1-1v-3a1 1 0 0 1 1-1h4zm-3 7v13.5a.5.5 0 0 0 .5.5h2a.5.5 0 0 0 .5-.5V32h-3z"/></mask><path fill-rule="evenodd" clip-rule="evenodd" d="M20.5 18a.5.5 0 0 0-.5.5V23h3v-4.5a.5.5 0 0 0-.5-.5h-2zm2.5 7h1a1 1 0 0 1 1 1v3a1 1 0 0 1-1 1h-5a1 1 0 0 1-1-1v-3a1 1 0 0 1 1-1h4zm-3 7v13.5a.5.5 0 0 0 .5.5h2a.5.5 0 0 0 .5-.5V32h-3zm10.5-14a.5.5 0 0 0-.5.5V32h3V18.5a.5.5 0 0 0-.5-.5h-2zM34 34h-5a1 1 0 0 0-1 1v3a1 1 0 0 0 1 1h5a1 1 0 0 0 1-1v-3a1 1 0 0 0-1-1zm-4 11.5V41h3v4.5a.5.5 0 0 1-.5.5h-2a.5.5 0 0 1-.5-.5zm10-27a.5.5 0 0 1 .5-.5h2a.5.5 0 0 1 .5.5V23h-3v-4.5zm3 6.5h1a1 1 0 0 1 1 1v3a1 1 0 0 1-1 1h-5a1 1 0 0 1-1-1v-3a1 1 0 0 1 1-1h4zm-3 7v13.5a.5.5 0 0 0 .5.5h2a.5.5 0 0 0 .5-.5V32h-3z" fill="#0061A8"/><path d="M20 23h-2v2h2v-2zm3 0v2h2v-2h-2zm-3 9v-2h-2v2h2zm3 0h2v-2h-2v2zm7 0h-2v2h2v-2zm3 0v2h2v-2h-2zm-3 9v-2h-2v2h2zm3 0h2v-2h-2v2zm10-18v2h2v-2h-2zm-3 0h-2v2h2v-2zm0 9v-2h-2v2h2zm3 0h2v-2h-2v2zM22 18.5a1.5 1.5 0 0 1-1.5 1.5v-4a2.5 2.5 0 0 0-2.5 2.5h4zm0 4.5v-4.5h-4V23h4zm1-2h-3v4h3v-4zm-2-2.5V23h4v-4.5h-4zm1.5 1.5a1.5 1.5 0 0 1-1.5-1.5h4a2.5 2.5 0 0 0-2.5-2.5v4zm-2 0h2v-4h-2v4zm3.5 3h-1v4h1v-4zm3 3a3 3 0 0 0-3-3v4a1 1 0 0 1-1-1h4zm0 3v-3h-4v3h4zm-3 3a3 3 0 0 0 3-3h-4a1 1 0 0 1 1-1v4zm-1 0h1v-4h-1v4zm-3 0h3v-4h-3v4zm-1 0h1v-4h-1v4zm-3-3a3 3 0 0 0 3 3v-4a1 1 0 0 1 1 1h-4zm0-3v3h4v-3h-4zm3-3a3 3 0 0 0-3 3h4a1 1 0 0 1-1 1v-4zm1 0h-1v4h1v-4zm3 0h-3v4h3v-4zm-1 22.5V32h-4v13.5h4zM20.5 44a1.5 1.5 0 0 1 1.5 1.5h-4a2.5 2.5 0 0 0 2.5 2.5v-4zm2 0h-2v4h2v-4zM21 45.5a1.5 1.5 0 0 1 1.5-1.5v4a2.5 2.5 0 0 0 2.5-2.5h-4zM21 32v13.5h4V32h-4zm-1 2h3v-4h-3v4zm12-15.5a1.5 1.5 0 0 1-1.5 1.5v-4a2.5 2.5 0 0 0-2.5 2.5h4zM32 32V18.5h-4V32h4zm1-2h-3v4h3v-4zm-2-11.5V32h4V18.5h-4zm1.5 1.5a1.5 1.5 0 0 1-1.5-1.5h4a2.5 2.5 0 0 0-2.5-2.5v4zm-2 0h2v-4h-2v4zM33 36h1v-4h-1v4zm-3 0h3v-4h-3v4zm-1 0h1v-4h-1v4zm1-1a1 1 0 0 1-1 1v-4a3 3 0 0 0-3 3h4zm0 3v-3h-4v3h4zm-1-1a1 1 0 0 1 1 1h-4a3 3 0 0 0 3 3v-4zm1 0h-1v4h1v-4zm3 0h-3v4h3v-4zm1 0h-1v4h1v-4zm-1 1a1 1 0 0 1 1-1v4a3 3 0 0 0 3-3h-4zm0-3v3h4v-3h-4zm1 1a1 1 0 0 1-1-1h4a3 3 0 0 0-3-3v4zm-6 5v4.5h4V41h-4zm5-2h-3v4h3v-4zm2 6.5V41h-4v4.5h4zM32.5 48a2.5 2.5 0 0 0 2.5-2.5h-4a1.5 1.5 0 0 1 1.5-1.5v4zm-2 0h2v-4h-2v4zM28 45.5a2.5 2.5 0 0 0 2.5 2.5v-4a1.5 1.5 0 0 1 1.5 1.5h-4zM40.5 16a2.5 2.5 0 0 0-2.5 2.5h4a1.5 1.5 0 0 1-1.5 1.5v-4zm2 0h-2v4h2v-4zm2.5 2.5a2.5 2.5 0 0 0-2.5-2.5v4a1.5 1.5 0 0 1-1.5-1.5h4zm0 4.5v-4.5h-4V23h4zm-5 2h3v-4h-3v4zm-2-6.5V23h4v-4.5h-4zm6 4.5h-1v4h1v-4zm3 3a3 3 0 0 0-3-3v4a1 1 0 0 1-1-1h4zm0 3v-3h-4v3h4zm-3 3a3 3 0 0 0 3-3h-4a1 1 0 0 1 1-1v4zm-1 0h1v-4h-1v4zm-3 0h3v-4h-3v4zm-1 0h1v-4h-1v4zm-3-3a3 3 0 0 0 3 3v-4a1 1 0 0 1 1 1h-4zm0-3v3h4v-3h-4zm3-3a3 3 0 0 0-3 3h4a1 1 0 0 1-1 1v-4zm1 0h-1v4h1v-4zm3 0h-3v4h3v-4zm-5 9v13.5h4V32h-4zm0 13.5a2.5 2.5 0 0 0 2.5 2.5v-4a1.5 1.5 0 0 1 1.5 1.5h-4zm2.5 2.5h2v-4h-2v4zm2 0a2.5 2.5 0 0 0 2.5-2.5h-4a1.5 1.5 0 0 1 1.5-1.5v4zm2.5-2.5V32h-4v13.5h4zM43 30h-3v4h3v-4z" fill="#8DCAF8" mask="url(#a)"/></svg>