<svg width="64" height="64" viewBox="0 0 64 64" fill="none" xmlns="http://www.w3.org/2000/svg">
<rect width="64" height="64" rx="16" fill="#8DCAF8"/>
<mask id="path-2-outside-1_574_26003" maskUnits="userSpaceOnUse" x="16" y="16" width="31" height="32" fill="black">
<rect fill="white" x="16" y="16" width="31" height="32"/>
<path fill-rule="evenodd" clip-rule="evenodd" d="M20.5 18C20.2239 18 20 18.2239 20 18.5V23H23V18.5C23 18.2239 22.7761 18 22.5 18H20.5ZM23 25H24C24.5523 25 25 25.4477 25 26V29C25 29.5523 24.5523 30 24 30H23H20H19C18.4477 30 18 29.5523 18 29V26C18 25.4477 18.4477 25 19 25H20H23ZM20 32V45.5C20 45.7761 20.2239 46 20.5 46H22.5C22.7761 46 23 45.7761 23 45.5V32H20ZM30.5 18C30.2239 18 30 18.2239 30 18.5V32H33V18.5C33 18.2239 32.7761 18 32.5 18H30.5ZM34 34H33H30H29C28.4477 34 28 34.4477 28 35V38C28 38.5523 28.4477 39 29 39H30H33H34C34.5523 39 35 38.5523 35 38V35C35 34.4477 34.5523 34 34 34ZM30 45.5V41H33V45.5C33 45.7761 32.7761 46 32.5 46H30.5C30.2239 46 30 45.7761 30 45.5ZM40 18.5C40 18.2239 40.2239 18 40.5 18H42.5C42.7761 18 43 18.2239 43 18.5V23H40V18.5ZM43 25H44C44.5523 25 45 25.4477 45 26V29C45 29.5523 44.5523 30 44 30H43H40H39C38.4477 30 38 29.5523 38 29V26C38 25.4477 38.4477 25 39 25H40H43ZM40 32V45.5C40 45.7761 40.2239 46 40.5 46H42.5C42.7761 46 43 45.7761 43 45.5V32H40Z"/>
</mask>
<path fill-rule="evenodd" clip-rule="evenodd" d="M20.5 18C20.2239 18 20 18.2239 20 18.5V23H23V18.5C23 18.2239 22.7761 18 22.5 18H20.5ZM23 25H24C24.5523 25 25 25.4477 25 26V29C25 29.5523 24.5523 30 24 30H23H20H19C18.4477 30 18 29.5523 18 29V26C18 25.4477 18.4477 25 19 25H20H23ZM20 32V45.5C20 45.7761 20.2239 46 20.5 46H22.5C22.7761 46 23 45.7761 23 45.5V32H20ZM30.5 18C30.2239 18 30 18.2239 30 18.5V32H33V18.5C33 18.2239 32.7761 18 32.5 18H30.5ZM34 34H33H30H29C28.4477 34 28 34.4477 28 35V38C28 38.5523 28.4477 39 29 39H30H33H34C34.5523 39 35 38.5523 35 38V35C35 34.4477 34.5523 34 34 34ZM30 45.5V41H33V45.5C33 45.7761 32.7761 46 32.5 46H30.5C30.2239 46 30 45.7761 30 45.5ZM40 18.5C40 18.2239 40.2239 18 40.5 18H42.5C42.7761 18 43 18.2239 43 18.5V23H40V18.5ZM43 25H44C44.5523 25 45 25.4477 45 26V29C45 29.5523 44.5523 30 44 30H43H40H39C38.4477 30 38 29.5523 38 29V26C38 25.4477 38.4477 25 39 25H40H43ZM40 32V45.5C40 45.7761 40.2239 46 40.5 46H42.5C42.7761 46 43 45.7761 43 45.5V32H40Z" fill="#0061A8"/>
<path d="M20 23H18V25H20V23ZM23 23V25H25V23H23ZM20 32V30H18V32H20ZM23 32H25V30H23V32ZM30 32H28V34H30V32ZM33 32V34H35V32H33ZM30 41V39H28V41H30ZM33 41H35V39H33V41ZM43 23V25H45V23H43ZM40 23H38V25H40V23ZM40 32V30H38V32H40ZM43 32H45V30H43V32ZM22 18.5C22 19.3284 21.3284 20 20.5 20V16C19.1193 16 18 17.1193 18 18.5H22ZM22 23V18.5H18V23H22ZM23 21H20V25H23V21ZM21 18.5V23H25V18.5H21ZM22.5 20C21.6716 20 21 19.3284 21 18.5H25C25 17.1193 23.8807 16 22.5 16V20ZM20.5 20H22.5V16H20.5V20ZM24 23H23V27H24V23ZM27 26C27 24.3431 25.6569 23 24 23V27C23.4477 27 23 26.5523 23 26H27ZM27 29V26H23V29H27ZM24 32C25.6569 32 27 30.6569 27 29H23C23 28.4477 23.4477 28 24 28V32ZM23 32H24V28H23V32ZM20 32H23V28H20V32ZM19 32H20V28H19V32ZM16 29C16 30.6569 17.3431 32 19 32V28C19.5523 28 20 28.4477 20 29H16ZM16 26V29H20V26H16ZM19 23C17.3431 23 16 24.3431 16 26H20C20 26.5523 19.5523 27 19 27V23ZM20 23H19V27H20V23ZM23 23H20V27H23V23ZM22 45.5V32H18V45.5H22ZM20.5 44C21.3284 44 22 44.6716 22 45.5H18C18 46.8807 19.1193 48 20.5 48V44ZM22.5 44H20.5V48H22.5V44ZM21 45.5C21 44.6716 21.6716 44 22.5 44V48C23.8807 48 25 46.8807 25 45.5H21ZM21 32V45.5H25V32H21ZM20 34H23V30H20V34ZM32 18.5C32 19.3284 31.3284 20 30.5 20V16C29.1193 16 28 17.1193 28 18.5H32ZM32 32V18.5H28V32H32ZM33 30H30V34H33V30ZM31 18.5V32H35V18.5H31ZM32.5 20C31.6716 20 31 19.3284 31 18.5H35C35 17.1193 33.8807 16 32.5 16V20ZM30.5 20H32.5V16H30.5V20ZM33 36H34V32H33V36ZM30 36H33V32H30V36ZM29 36H30V32H29V36ZM30 35C30 35.5523 29.5523 36 29 36V32C27.3431 32 26 33.3431 26 35H30ZM30 38V35H26V38H30ZM29 37C29.5523 37 30 37.4477 30 38H26C26 39.6569 27.3431 41 29 41V37ZM30 37H29V41H30V37ZM33 37H30V41H33V37ZM34 37H33V41H34V37ZM33 38C33 37.4477 33.4477 37 34 37V41C35.6569 41 37 39.6569 37 38H33ZM33 35V38H37V35H33ZM34 36C33.4477 36 33 35.5523 33 35H37C37 33.3431 35.6569 32 34 32V36ZM28 41V45.5H32V41H28ZM33 39H30V43H33V39ZM35 45.5V41H31V45.5H35ZM32.5 48C33.8807 48 35 46.8807 35 45.5H31C31 44.6716 31.6716 44 32.5 44V48ZM30.5 48H32.5V44H30.5V48ZM28 45.5C28 46.8807 29.1193 48 30.5 48V44C31.3284 44 32 44.6716 32 45.5H28ZM40.5 16C39.1193 16 38 17.1193 38 18.5H42C42 19.3284 41.3284 20 40.5 20V16ZM42.5 16H40.5V20H42.5V16ZM45 18.5C45 17.1193 43.8807 16 42.5 16V20C41.6716 20 41 19.3284 41 18.5H45ZM45 23V18.5H41V23H45ZM40 25H43V21H40V25ZM38 18.5V23H42V18.5H38ZM44 23H43V27H44V23ZM47 26C47 24.3431 45.6569 23 44 23V27C43.4477 27 43 26.5523 43 26H47ZM47 29V26H43V29H47ZM44 32C45.6569 32 47 30.6569 47 29H43C43 28.4477 43.4477 28 44 28V32ZM43 32H44V28H43V32ZM40 32H43V28H40V32ZM39 32H40V28H39V32ZM36 29C36 30.6569 37.3431 32 39 32V28C39.5523 28 40 28.4477 40 29H36ZM36 26V29H40V26H36ZM39 23C37.3431 23 36 24.3431 36 26H40C40 26.5523 39.5523 27 39 27V23ZM40 23H39V27H40V23ZM43 23H40V27H43V23ZM38 32V45.5H42V32H38ZM38 45.5C38 46.8807 39.1193 48 40.5 48V44C41.3284 44 42 44.6716 42 45.5H38ZM40.5 48H42.5V44H40.5V48ZM42.5 48C43.8807 48 45 46.8807 45 45.5H41C41 44.6716 41.6716 44 42.5 44V48ZM45 45.5V32H41V45.5H45ZM43 30H40V34H43V30Z" fill="#8DCAF8" mask="url(#path-2-outside-1_574_26003)"/>
</svg>
