<svg width="64" height="64" fill="none" xmlns="http://www.w3.org/2000/svg"><rect width="64" height="64" rx="16" fill="#FF7D60"/><path d="M46.303 36.701a5.734 5.734 0 0 0-7.582-.435l-2.141-2.11 7.137-7.1A6.406 6.406 0 0 0 43.745 18L32.022 29.666 20.51 18.326a6.38 6.38 0 0 0 .048 9.037l6.92 6.827-2.198 2.188a5.733 5.733 0 0 0-7.583.435c-2.243 2.226-2.266 5.852-.04 8.095 2.227 2.243 5.853 2.246 8.095.019l6.279-6.245 6.219 6.133c2.242 2.227 5.868 2.225 8.095-.018 2.227-2.244 2.203-5.869-.04-8.096zM23.26 42.415a2.164 2.164 0 0 1-3.056-.01 2.163 2.163 0 0 1 .011-3.056 2.163 2.163 0 0 1 3.056.01c.839.846.834 2.217-.011 3.056zm8.816-6.04a2.172 2.172 0 1 1 0-4.345 2.172 2.172 0 0 1 0 4.345zm11.722 5.918c-.84.845-2.21.85-3.055.01a2.163 2.163 0 0 1-.011-3.055c.84-.845 2.21-.85 3.055-.01.845.84.85 2.21.011 3.055z" fill="#6D1400"/></svg>