<svg width="64" height="64" viewBox="0 0 64 64" fill="none" xmlns="http://www.w3.org/2000/svg">
<rect width="64" height="64" rx="16" fill="#FFAD61"/>
<path fill-rule="evenodd" clip-rule="evenodd" d="M31.709 14.8356C31.9 14.7879 32.1 14.7879 32.291 14.8356L45.091 18.0356C45.6252 18.1692 46 18.6492 46 19.1998V31.9998C46 37.3355 42.4619 41.6402 39.1902 44.5029C37.5291 45.9563 35.8738 47.0938 34.636 47.8674C34.0159 48.255 33.4974 48.5532 33.1312 48.7559C32.948 48.8573 32.8027 48.935 32.7016 48.9881C32.651 49.0146 32.6114 49.035 32.5837 49.0492L32.551 49.0659L32.5415 49.0707L32.5374 49.0727L32 47.9998L31.4626 49.0727L31.4585 49.0707L31.449 49.0659L31.4163 49.0492C31.3886 49.035 31.349 49.0146 31.2984 48.9881C31.1973 48.935 31.052 48.8573 30.8688 48.7559C30.5026 48.5532 29.9841 48.255 29.364 47.8674C28.1263 47.0938 26.4709 45.9563 24.8098 44.5029C21.5381 41.6402 18 37.3355 18 31.9998V19.1998C18 18.6492 18.3748 18.1692 18.909 18.0356L31.709 14.8356ZM31.4626 49.0727C31.463 49.0729 31.4633 49.0731 32 47.9998C32.5367 49.0731 32.537 49.0729 32.5374 49.0727C32.1996 49.2416 31.8004 49.2416 31.4626 49.0727ZM40.5374 29.5331C40.5374 34.246 36.7169 38.0665 32.004 38.0665C27.2912 38.0665 23.4707 34.246 23.4707 29.5331C23.4707 24.8203 27.2912 20.9998 32.004 20.9998C36.7169 20.9998 40.5374 24.8203 40.5374 29.5331ZM27.9342 29.3003C27.5639 29.6705 27.5639 30.2709 27.9342 30.6411L30.1577 32.8646L30.1688 32.8759C30.2852 32.9923 30.4245 33.0722 30.5721 33.1154C30.894 33.2096 31.256 33.1298 31.5099 32.876L31.5248 32.8607L35.9793 28.4063C36.3495 28.036 36.3495 27.4357 35.9793 27.0654C35.609 26.6951 35.0086 26.6951 34.6384 27.0654L31.0628 30.641C30.9393 30.7644 30.7392 30.7644 30.6158 30.641L29.2751 29.3003C28.9048 28.93 28.3045 28.93 27.9342 29.3003Z" fill="#8F3300"/>
</svg>
