<svg width="32" height="32" viewBox="0 0 32 32" fill="none" xmlns="http://www.w3.org/2000/svg">
<rect opacity="0.2" width="32" height="32" rx="8" fill="#819EB0"/>
<path d="M24 9.85491V22.4263C24 23.3728 23.2321 24.1406 22.2857 24.1406H19.2393V17.8121H21.4036L21.7143 15.3978H19.2393V13.8549C19.2393 13.1549 19.4321 12.6799 20.4357 12.6799H21.7143V10.5228C21.4929 10.4942 20.7357 10.4263 19.85 10.4263C18.0071 10.4263 16.7429 11.5513 16.7429 13.6192V15.4013H14.5714V17.8156H16.7464V24.1406H9.71429C8.76786 24.1406 8 23.3728 8 22.4263V9.85491C8 8.90848 8.76786 8.14062 9.71429 8.14062H22.2857C23.2321 8.14062 24 8.90848 24 9.85491Z" fill="white"/>
</svg>
