<svg width="400" height="400" viewBox="0 0 400 400" fill="none" xmlns="http://www.w3.org/2000/svg">
<rect x="50.2988" y="148.503" width="98.2036" height="98.2036" rx="19.1617" transform="rotate(-90 50.2988 148.503)" fill="#BFFFC8"/>
<rect x="100.6" y="198.802" width="47.9042" height="47.9042" rx="4.79042" transform="rotate(-90 100.6 198.802)" fill="#819EB0" fill-opacity="0.8"/>
<path fill-rule="evenodd" clip-rule="evenodd" d="M119.229 198.802C119.229 188.514 110.888 180.173 100.6 180.173L100.6 169.528C116.768 169.528 129.874 182.634 129.874 198.802L119.229 198.802Z" fill="#BFFFC8"/>
<rect y="299.401" width="98.2036" height="98.2036" rx="19.1617" transform="rotate(-90 0 299.401)" fill="#BFFFC8"/>
<rect x="98.2031" y="150.898" width="47.9042" height="47.9042" rx="4.79042" transform="rotate(90 98.2031 150.898)" fill="#819EB0" fill-opacity="0.8"/>
<path fill-rule="evenodd" clip-rule="evenodd" d="M79.5737 150.898C79.5737 161.187 87.9144 169.528 98.2031 169.528L98.2031 180.173C82.0351 180.173 68.9283 167.066 68.9283 150.898L79.5737 150.898Z" fill="#BFFFC8"/>
<rect width="47.9042" height="47.9042" rx="4.79042" transform="matrix(1.19249e-08 1 1 -1.19249e-08 100.6 251.497)" fill="#819EB0" fill-opacity="0.8"/>
<path fill-rule="evenodd" clip-rule="evenodd" d="M119.229 251.497C119.229 261.786 110.888 270.126 100.6 270.126L100.6 280.772C116.768 280.772 129.874 267.665 129.874 251.497L119.229 251.497Z" fill="#BFFFC8"/>
<rect x="251.496" y="148.503" width="47.9042" height="47.9042" rx="4.79042" transform="rotate(-90 251.496 148.503)" fill="#819EB0" fill-opacity="0.8"/>
<path fill-rule="evenodd" clip-rule="evenodd" d="M270.126 148.503C270.126 138.214 261.785 129.874 251.496 129.874L251.496 119.228C267.664 119.228 280.771 132.335 280.771 148.503L270.126 148.503Z" fill="#BFFFC8"/>
<rect x="198.803" y="299.401" width="47.9042" height="47.9042" rx="4.79042" transform="rotate(180 198.803 299.401)" fill="#819EB0" fill-opacity="0.8"/>
<path fill-rule="evenodd" clip-rule="evenodd" d="M198.803 280.772C188.514 280.772 180.173 289.112 180.173 299.401L169.528 299.401C169.528 283.233 182.635 270.126 198.803 270.126L198.803 280.772Z" fill="#BFFFC8"/>
<rect x="150.898" y="400" width="98.2036" height="98.2036" rx="19.1617" transform="rotate(-90 150.898 400)" fill="#BFFFC8"/>
<rect x="201.197" y="98.2036" width="98.2036" height="98.2036" rx="19.1617" transform="rotate(-90 201.197 98.2036)" fill="#BFFFC8"/>
<rect x="150.898" y="148.503" width="47.9042" height="47.9042" rx="4.79042" transform="rotate(-90 150.898 148.503)" fill="#819EB0" fill-opacity="0.8"/>
<rect x="251.496" y="150.898" width="47.9042" height="47.9042" rx="4.79042" fill="#819EB0" fill-opacity="0.8"/>
<path fill-rule="evenodd" clip-rule="evenodd" d="M251.496 169.528C261.785 169.528 270.126 161.187 270.126 150.898H280.771C280.771 167.066 267.664 180.173 251.496 180.173L251.496 169.528Z" fill="#BFFFC8"/>
<rect x="198.803" y="98.2036" width="47.9042" height="47.9042" rx="4.79042" transform="rotate(180 198.803 98.2036)" fill="#819EB0" fill-opacity="0.8"/>
<rect x="249.102" y="100.599" width="47.9042" height="47.9042" rx="4.79042" transform="rotate(90 249.102 100.599)" fill="#819EB0" fill-opacity="0.8"/>
<path fill-rule="evenodd" clip-rule="evenodd" d="M230.472 100.599C230.472 110.888 238.813 119.228 249.102 119.228L249.102 129.874C232.934 129.874 219.827 116.767 219.827 100.599L230.472 100.599Z" fill="#BFFFC8"/>
<rect x="201.197" y="251.497" width="47.9042" height="47.9042" rx="4.79042" fill="#819EB0" fill-opacity="0.8"/>
<path d="M219.827 251.497C219.827 261.786 211.486 270.126 201.197 270.126L201.197 280.772C211.098 280.772 219.851 275.857 225.149 268.333C230.447 275.857 239.2 280.772 249.101 280.772L249.101 270.126C238.813 270.126 230.472 261.786 230.472 251.497H219.827Z" fill="#BFFFC8"/>
<rect x="148.504" y="201.198" width="47.9042" height="47.9042" rx="4.79042" transform="rotate(90 148.504 201.198)" fill="#819EB0" fill-opacity="0.8"/>
<path d="M148.504 219.827C138.215 219.827 129.874 211.486 129.874 201.198L119.229 201.198C119.229 211.099 124.144 219.852 131.668 225.15C124.144 230.448 119.229 239.201 119.229 249.102L129.874 249.102C129.874 238.813 138.215 230.473 148.504 230.473L148.504 219.827Z" fill="#BFFFC8"/>
<rect width="47.9042" height="47.9042" rx="4.79042" transform="matrix(-4.37114e-08 -1 -1 4.37114e-08 299.4 249.102)" fill="#819EB0" fill-opacity="0.8"/>
<path fill-rule="evenodd" clip-rule="evenodd" d="M280.771 249.102C280.771 238.813 289.112 230.472 299.4 230.472L299.4 219.827C283.232 219.827 270.126 232.934 270.126 249.102L280.771 249.102Z" fill="#BFFFC8"/>
<rect width="47.9042" height="47.9042" rx="4.79042" transform="matrix(1.19249e-08 1 1 -1.19249e-08 251.496 251.497)" fill="#819EB0" fill-opacity="0.8"/>
<path fill-rule="evenodd" clip-rule="evenodd" d="M270.126 251.497C270.126 261.786 261.785 270.126 251.496 270.126L251.496 280.772C267.664 280.772 280.771 267.665 280.771 251.497L270.126 251.497Z" fill="#BFFFC8"/>
<rect x="301.797" y="299.401" width="47.9042" height="47.9042" rx="4.79042" transform="rotate(-90 301.797 299.401)" fill="#819EB0" fill-opacity="0.8"/>
<rect x="251.496" y="349.701" width="47.9042" height="47.9042" rx="4.79042" transform="rotate(-90 251.496 349.701)" fill="#819EB0" fill-opacity="0.8"/>
<rect x="301.797" y="148.503" width="47.9042" height="47.9042" rx="4.79042" transform="rotate(-90 301.797 148.503)" fill="#819EB0" fill-opacity="0.8"/>
<rect x="301.797" y="249.102" width="98.2036" height="98.2036" rx="19.1617" transform="rotate(-90 301.797 249.102)" fill="#BFFFC8"/>
<rect x="150.898" y="150.898" width="98.2036" height="98.2036" rx="19.1617" fill="#BFFFC8"/>
<rect x="158.084" y="158.084" width="83.8323" height="83.8323" rx="14.9701" fill="#077453"/>
<rect opacity="0.4" x="162.875" y="162.874" width="74.2515" height="74.2515" rx="11.976" stroke="#BFFFC8" stroke-width="1.1976" stroke-dasharray="1.2 2.4"/>
<path d="M193.45 366.012H195.469L199.127 376.072H197.265L196.619 374.29H192.307L191.661 376.072H189.8L193.45 366.012ZM192.947 372.536H195.972L194.456 368.39L192.947 372.536ZM200.332 376.072V366.012H203.925C204.471 366.012 204.964 366.148 205.405 366.421C205.851 366.695 206.203 367.061 206.461 367.521C206.72 367.981 206.85 368.486 206.85 369.037C206.85 369.602 206.715 370.115 206.447 370.575C206.184 371.03 205.829 371.394 205.384 371.667C204.938 371.935 204.452 372.069 203.925 372.069H202.085V376.072H200.332ZM202.085 370.316H203.738C203.987 370.316 204.215 370.254 204.421 370.129C204.627 370.005 204.79 369.837 204.909 369.626C205.034 369.415 205.096 369.181 205.096 368.922C205.096 368.659 205.034 368.421 204.909 368.211C204.79 368 204.627 367.832 204.421 367.708C204.215 367.583 203.987 367.521 203.738 367.521H202.085V370.316ZM208.379 376.072V366.012H210.132V376.072H208.379Z" fill="#077453"/>
<path d="M230.31 74.2754L227.737 64.2155H229.548L231.301 71.0922L233.055 64.2155H234.657L236.41 71.0922L238.156 64.2155H239.967L237.409 74.2754H235.419L233.852 68.182L232.307 74.2754H230.31ZM240.817 67.0898H242.57V74.2754H240.817V67.0898ZM241.708 66.1628C241.449 66.1628 241.231 66.079 241.054 65.9113C240.877 65.7389 240.788 65.5233 240.788 65.2646C240.788 65.0107 240.877 64.7975 241.054 64.6251C241.231 64.4526 241.447 64.3664 241.701 64.3664C241.955 64.3664 242.168 64.4526 242.34 64.6251C242.517 64.7975 242.606 65.0107 242.606 65.2646C242.606 65.5233 242.52 65.7389 242.347 65.9113C242.175 66.079 241.962 66.1628 241.708 66.1628ZM249.561 63.4969H251.315V74.2754H249.561V73.3772C249.331 73.6981 249.042 73.9592 248.692 74.1604C248.342 74.3616 247.937 74.4622 247.477 74.4622C246.955 74.4622 246.467 74.364 246.012 74.1676C245.557 73.9712 245.154 73.7005 244.804 73.3556C244.46 73.0059 244.189 72.6035 243.992 72.1484C243.796 71.6934 243.698 71.2047 243.698 70.6826C243.698 70.1604 243.796 69.6718 243.992 69.2167C244.189 68.7616 244.46 68.3616 244.804 68.0167C245.154 67.667 245.557 67.394 246.012 67.1975C246.467 67.0011 246.955 66.9029 247.477 66.9029C247.937 66.9029 248.342 67.0035 248.692 67.2047C249.042 67.4011 249.331 67.6622 249.561 67.988V63.4969ZM247.499 72.7736C247.873 72.7736 248.203 72.6802 248.491 72.4934C248.778 72.3065 249.003 72.055 249.166 71.7389C249.329 71.4179 249.41 71.0658 249.41 70.6826C249.41 70.2946 249.329 69.9425 249.166 69.6263C249.003 69.3053 248.776 69.0514 248.483 68.8646C248.196 68.6778 247.868 68.5844 247.499 68.5844C247.13 68.5844 246.792 68.6802 246.486 68.8718C246.184 69.0586 245.942 69.3101 245.76 69.6263C245.583 69.9425 245.494 70.2946 245.494 70.6826C245.494 71.0706 245.585 71.4227 245.767 71.7389C245.949 72.055 246.191 72.3065 246.493 72.4934C246.8 72.6802 247.135 72.7736 247.499 72.7736ZM258.26 67.0898H260.014V74.4119C260.014 74.9293 259.908 75.3987 259.697 75.8203C259.487 76.2466 259.199 76.6107 258.835 76.9125C258.471 77.2191 258.054 77.4538 257.585 77.6167C257.115 77.7844 256.622 77.8682 256.105 77.8682C255.602 77.8682 255.118 77.7652 254.653 77.5592C254.188 77.3532 253.776 77.0706 253.417 76.7113C253.063 76.3568 252.792 75.952 252.605 75.4969L254.208 74.7712C254.303 75.0347 254.447 75.2646 254.639 75.461C254.835 75.6622 255.06 75.8179 255.314 75.9281C255.568 76.0431 255.832 76.1005 256.105 76.1005C256.382 76.1005 256.648 76.0622 256.902 75.9856C257.161 75.9089 257.393 75.7963 257.599 75.6478C257.805 75.5041 257.966 75.3269 258.081 75.1161C258.2 74.9101 258.26 74.6754 258.26 74.4119V73.3987C258.035 73.7149 257.753 73.9712 257.412 74.1676C257.072 74.364 256.679 74.4622 256.234 74.4622C255.717 74.4622 255.233 74.364 254.782 74.1676C254.332 73.9712 253.935 73.7005 253.59 73.3556C253.25 73.0059 252.981 72.6035 252.785 72.1484C252.593 71.6934 252.497 71.2047 252.497 70.6826C252.497 70.1604 252.593 69.6718 252.785 69.2167C252.981 68.7616 253.25 68.3616 253.59 68.0167C253.935 67.667 254.332 67.394 254.782 67.1975C255.233 67.0011 255.717 66.9029 256.234 66.9029C256.679 66.9029 257.072 67.0011 257.412 67.1975C257.753 67.3892 258.035 67.6431 258.26 67.9592V67.0898ZM256.256 72.7736C256.624 72.7736 256.95 72.6802 257.233 72.4934C257.52 72.3017 257.745 72.0478 257.908 71.7317C258.071 71.4107 258.153 71.061 258.153 70.6826C258.153 70.2993 258.069 69.9496 257.901 69.6335C257.738 69.3173 257.513 69.0634 257.226 68.8718C256.943 68.6802 256.62 68.5844 256.256 68.5844C255.896 68.5844 255.568 68.6802 255.271 68.8718C254.974 69.0586 254.737 69.3101 254.56 69.6263C254.382 69.9425 254.294 70.2946 254.294 70.6826C254.294 71.0706 254.382 71.4227 254.56 71.7389C254.737 72.055 254.974 72.3065 255.271 72.4934C255.568 72.6802 255.896 72.7736 256.256 72.7736ZM264.735 74.4622C264.074 74.4622 263.471 74.2922 262.925 73.952C262.383 73.6119 261.95 73.1544 261.624 72.5796C261.303 72.0047 261.143 71.37 261.143 70.6754C261.143 70.1532 261.236 69.6646 261.423 69.2095C261.61 68.7496 261.866 68.3472 262.192 68.0023C262.522 67.6526 262.906 67.3796 263.341 67.1832C263.777 66.9868 264.242 66.8886 264.735 66.8886C265.296 66.8886 265.809 67.0083 266.273 67.2478C266.743 67.4826 267.14 67.8059 267.466 68.2179C267.792 68.6299 268.029 69.0993 268.177 69.6263C268.326 70.1532 268.359 70.7041 268.278 71.279H263.025C263.092 71.5472 263.203 71.7892 263.356 72.0047C263.509 72.2155 263.703 72.3856 263.938 72.5149C264.173 72.6395 264.438 72.7041 264.735 72.7089C265.042 72.7137 265.32 72.6419 265.569 72.4934C265.823 72.3401 266.034 72.1341 266.201 71.8754L267.991 72.2922C267.698 72.9293 267.262 73.4514 266.683 73.8586C266.103 74.261 265.454 74.4622 264.735 74.4622ZM262.968 69.964H266.503C266.45 69.6766 266.338 69.4179 266.165 69.188C265.998 68.9532 265.789 68.7664 265.54 68.6275C265.291 68.4886 265.023 68.4191 264.735 68.4191C264.448 68.4191 264.182 68.4886 263.938 68.6275C263.694 68.7616 263.485 68.946 263.313 69.1808C263.145 69.4107 263.03 69.6718 262.968 69.964ZM273.299 68.8431H271.905V74.2754H270.151V68.8431H269.088V67.0898H270.151V64.8335H271.905V67.0898H273.299V68.8431Z" fill="#077453"/>
<path d="M172.501 195.491H175.285V206.904H172.501V195.491ZM173.916 194.019C173.505 194.019 173.159 193.886 172.877 193.62C172.596 193.346 172.455 193.003 172.455 192.593C172.455 192.189 172.596 191.851 172.877 191.577C173.159 191.303 173.501 191.166 173.904 191.166C174.308 191.166 174.646 191.303 174.92 191.577C175.202 191.851 175.342 192.189 175.342 192.593C175.342 193.003 175.205 193.346 174.932 193.62C174.658 193.886 174.319 194.019 173.916 194.019Z" fill="#BFFFC8"/>
<path d="M188.026 199.691V206.904H185.241V200.422C185.241 199.973 185.131 199.566 184.91 199.2C184.69 198.828 184.393 198.535 184.02 198.322C183.655 198.101 183.248 197.991 182.799 197.991C182.35 197.991 181.939 198.101 181.566 198.322C181.201 198.535 180.908 198.828 180.688 199.2C180.475 199.566 180.368 199.973 180.368 200.422V206.904H177.584L177.572 195.491H180.357L180.368 196.507C180.756 196.096 181.22 195.773 181.76 195.537C182.301 195.294 182.883 195.172 183.507 195.172C184.336 195.172 185.093 195.377 185.778 195.788C186.462 196.191 187.006 196.735 187.41 197.42C187.82 198.097 188.026 198.854 188.026 199.691Z" fill="#BFFFC8"/>
<path d="M195.395 207.223C194.292 207.223 193.284 206.953 192.371 206.413C191.465 205.873 190.742 205.146 190.202 204.233C189.662 203.32 189.392 202.308 189.392 201.198C189.392 200.368 189.548 199.592 189.86 198.869C190.172 198.147 190.602 197.511 191.149 196.964C191.705 196.408 192.344 195.975 193.067 195.663C193.789 195.351 194.566 195.195 195.395 195.195C196.125 195.195 196.764 195.358 197.312 195.685C197.86 196.005 198.316 196.423 198.682 196.941V195.491H201.466V211.976H198.682V205.477C198.316 205.995 197.86 206.417 197.312 206.744C196.764 207.064 196.125 207.223 195.395 207.223ZM195.429 197.877C194.843 197.877 194.307 198.029 193.82 198.333C193.341 198.63 192.956 199.029 192.667 199.531C192.386 200.034 192.245 200.589 192.245 201.198C192.245 201.814 192.386 202.377 192.667 202.887C192.956 203.389 193.341 203.788 193.82 204.085C194.307 204.382 194.843 204.53 195.429 204.53C196.023 204.53 196.544 204.382 196.993 204.085C197.449 203.781 197.807 203.377 198.065 202.875C198.324 202.366 198.453 201.806 198.453 201.198C198.453 200.589 198.324 200.034 198.065 199.531C197.807 199.029 197.449 198.63 196.993 198.333C196.536 198.029 196.015 197.877 195.429 197.877Z" fill="#BFFFC8"/>
<path d="M203.395 202.681V195.491H206.18V201.951C206.18 202.4 206.29 202.811 206.511 203.183C206.731 203.549 207.024 203.842 207.39 204.062C207.762 204.275 208.169 204.382 208.611 204.382C209.067 204.382 209.478 204.275 209.843 204.062C210.208 203.842 210.501 203.549 210.722 203.183C210.943 202.811 211.053 202.4 211.053 201.951V195.491H213.838L213.849 206.904H211.064L211.053 205.865C210.657 206.276 210.189 206.603 209.649 206.847C209.109 207.083 208.531 207.201 207.915 207.201C207.085 207.201 206.328 206.999 205.643 206.596C204.959 206.185 204.411 205.641 204 204.964C203.597 204.279 203.395 203.518 203.395 202.681Z" fill="#BFFFC8"/>
<path d="M224.583 190.419H227.367V206.904H224.583V205.477C224.218 205.987 223.757 206.402 223.202 206.721C222.647 207.041 222.004 207.201 221.273 207.201C220.444 207.201 219.668 207.045 218.945 206.733C218.222 206.421 217.583 205.991 217.028 205.443C216.48 204.888 216.05 204.249 215.738 203.526C215.426 202.803 215.27 202.027 215.27 201.198C215.27 200.368 215.426 199.592 215.738 198.869C216.05 198.147 216.48 197.511 217.028 196.964C217.583 196.408 218.222 195.975 218.945 195.663C219.668 195.351 220.444 195.195 221.273 195.195C222.004 195.195 222.647 195.354 223.202 195.674C223.757 195.986 224.218 196.401 224.583 196.918V190.419ZM221.307 204.519C221.901 204.519 222.426 204.37 222.882 204.074C223.339 203.777 223.696 203.377 223.955 202.875C224.214 202.366 224.343 201.806 224.343 201.198C224.343 200.581 224.214 200.022 223.955 199.52C223.696 199.01 223.335 198.607 222.871 198.31C222.414 198.014 221.893 197.865 221.307 197.865C220.722 197.865 220.185 198.017 219.698 198.322C219.219 198.618 218.835 199.018 218.546 199.52C218.264 200.022 218.123 200.581 218.123 201.198C218.123 201.814 218.268 202.373 218.557 202.875C218.846 203.377 219.23 203.777 219.71 204.074C220.197 204.37 220.729 204.519 221.307 204.519Z" fill="#BFFFC8"/>
<path d="M76.3223 124.762C75.6421 124.762 75.0026 124.628 74.4037 124.359C73.8049 124.086 73.278 123.71 72.8229 123.231C72.3678 122.752 72.0109 122.199 71.7523 121.571C71.4936 120.939 71.3642 120.264 71.3642 119.545C71.3642 118.826 71.4936 118.153 71.7523 117.526C72.0109 116.894 72.3678 116.338 72.8229 115.859C73.278 115.38 73.8049 115.006 74.4037 114.738C75.0026 114.465 75.6421 114.328 76.3223 114.328C77.0073 114.328 77.6493 114.465 78.2481 114.738C78.8469 115.006 79.3738 115.38 79.8289 115.859C80.284 116.338 80.6385 116.894 80.8924 117.526C81.1511 118.153 81.2804 118.826 81.2804 119.545C81.2804 120.264 81.1511 120.939 80.8924 121.571C80.6385 122.199 80.284 122.752 79.8289 123.231C79.3738 123.71 78.8469 124.086 78.2481 124.359C77.6493 124.628 77.0073 124.762 76.3223 124.762ZM76.3223 123.008C76.763 123.008 77.1774 122.917 77.5654 122.735C77.9534 122.553 78.2936 122.304 78.5858 121.988C78.8828 121.667 79.1127 121.298 79.2756 120.882C79.4433 120.465 79.5271 120.019 79.5271 119.545C79.5271 119.071 79.4433 118.625 79.2756 118.208C79.1079 117.787 78.8756 117.418 78.5786 117.102C78.2864 116.786 77.9463 116.537 77.5582 116.355C77.175 116.173 76.763 116.082 76.3223 116.082C75.8816 116.082 75.4672 116.173 75.0792 116.355C74.6912 116.537 74.3487 116.788 74.0517 117.109C73.7594 117.425 73.5295 117.792 73.3618 118.208C73.199 118.625 73.1175 119.071 73.1175 119.545C73.1175 120.024 73.2014 120.472 73.369 120.889C73.5367 121.305 73.7666 121.674 74.0588 121.995C74.3558 122.311 74.696 122.561 75.0792 122.743C75.4672 122.92 75.8816 123.008 76.3223 123.008ZM89.2367 120.034V124.575H87.4834V120.494C87.4834 120.211 87.4139 119.955 87.275 119.725C87.1361 119.49 86.9493 119.305 86.7145 119.171C86.4846 119.032 86.2283 118.963 85.9457 118.963C85.663 118.963 85.4043 119.032 85.1696 119.171C84.9397 119.305 84.7552 119.49 84.6163 119.725C84.4822 119.955 84.4151 120.211 84.4151 120.494V124.575H82.6618L82.6546 117.389H84.4079L84.4151 118.029C84.6594 117.77 84.9517 117.567 85.2918 117.418C85.6319 117.265 85.9984 117.188 86.3912 117.188C86.9133 117.188 87.39 117.317 87.8211 117.576C88.2523 117.83 88.5948 118.173 88.8487 118.604C89.1073 119.03 89.2367 119.507 89.2367 120.034ZM94.128 124.575L94.1208 117.389H95.8741L95.8813 118.029C96.1256 117.77 96.4178 117.567 96.7579 117.418C97.098 117.265 97.4645 117.188 97.8573 117.188C98.1208 117.188 98.3843 117.226 98.6477 117.303L97.9579 119.071C97.7759 118.999 97.5938 118.963 97.4118 118.963C97.1292 118.963 96.8705 119.032 96.6357 119.171C96.4058 119.305 96.2214 119.49 96.0825 119.725C95.9483 119.955 95.8813 120.211 95.8813 120.494V124.575H94.128ZM104.535 117.389H106.288V124.575H104.535L104.456 123.684C104.26 124.005 103.998 124.266 103.673 124.467C103.352 124.664 102.971 124.762 102.53 124.762C101.998 124.762 101.5 124.661 101.036 124.46C100.571 124.259 100.161 123.981 99.8069 123.626C99.4572 123.272 99.1817 122.862 98.9805 122.398C98.7841 121.933 98.6859 121.435 98.6859 120.903C98.6859 120.391 98.7793 119.909 98.9661 119.459C99.1578 119.008 99.4236 118.613 99.7637 118.273C100.104 117.933 100.497 117.667 100.942 117.476C101.388 117.284 101.867 117.188 102.379 117.188C102.854 117.188 103.278 117.294 103.651 117.504C104.03 117.715 104.351 117.983 104.614 118.309L104.535 117.389ZM102.487 123.073C102.861 123.073 103.191 122.98 103.479 122.793C103.766 122.606 103.991 122.355 104.154 122.038C104.317 121.717 104.398 121.365 104.398 120.982C104.398 120.594 104.317 120.242 104.154 119.926C103.991 119.605 103.764 119.351 103.472 119.164C103.184 118.977 102.856 118.884 102.487 118.884C102.118 118.884 101.781 118.98 101.474 119.171C101.172 119.358 100.93 119.61 100.748 119.926C100.571 120.242 100.482 120.594 100.482 120.982C100.482 121.37 100.573 121.722 100.755 122.038C100.937 122.355 101.179 122.606 101.481 122.793C101.788 122.98 102.123 123.073 102.487 123.073ZM107.72 124.575V117.389H109.473V118.029C109.718 117.77 110.01 117.567 110.35 117.418C110.69 117.265 111.057 117.188 111.449 117.188C111.948 117.188 112.405 117.305 112.822 117.54C113.243 117.775 113.579 118.089 113.828 118.482C114.082 118.089 114.417 117.775 114.834 117.54C115.251 117.305 115.708 117.188 116.206 117.188C116.733 117.188 117.21 117.317 117.636 117.576C118.067 117.83 118.41 118.173 118.664 118.604C118.923 119.03 119.052 119.507 119.052 120.034V124.575H117.299V120.501C117.299 120.223 117.229 119.969 117.09 119.739C116.956 119.504 116.774 119.317 116.544 119.179C116.319 119.035 116.065 118.963 115.782 118.963C115.5 118.963 115.243 119.032 115.014 119.171C114.788 119.305 114.606 119.488 114.467 119.717C114.329 119.947 114.259 120.208 114.259 120.501V124.575H112.506V120.501C112.506 120.208 112.439 119.947 112.305 119.717C112.17 119.488 111.988 119.305 111.758 119.171C111.529 119.032 111.272 118.963 110.99 118.963C110.712 118.963 110.458 119.035 110.228 119.179C109.998 119.317 109.814 119.504 109.675 119.739C109.54 119.969 109.473 120.223 109.473 120.501V124.575H107.72ZM122.245 128.168H120.491V117.389H122.245V118.302C122.479 117.976 122.767 117.713 123.107 117.511C123.452 117.305 123.854 117.202 124.314 117.202C124.841 117.202 125.332 117.301 125.787 117.497C126.242 117.694 126.642 117.967 126.987 118.316C127.337 118.661 127.608 119.061 127.799 119.516C127.996 119.971 128.094 120.46 128.094 120.982C128.094 121.504 127.996 121.995 127.799 122.455C127.608 122.915 127.337 123.32 126.987 123.67C126.642 124.014 126.242 124.285 125.787 124.482C125.332 124.678 124.841 124.776 124.314 124.776C123.854 124.776 123.452 124.676 123.107 124.474C122.767 124.268 122.479 124.002 122.245 123.677V128.168ZM124.293 118.891C123.929 118.891 123.603 118.987 123.315 119.179C123.028 119.365 122.803 119.617 122.64 119.933C122.477 120.249 122.396 120.599 122.396 120.982C122.396 121.365 122.477 121.717 122.64 122.038C122.803 122.355 123.028 122.608 123.315 122.8C123.603 122.987 123.929 123.08 124.293 123.08C124.662 123.08 124.999 122.987 125.306 122.8C125.612 122.613 125.857 122.362 126.039 122.046C126.221 121.725 126.312 121.37 126.312 120.982C126.312 120.599 126.221 120.249 126.039 119.933C125.857 119.617 125.612 119.365 125.306 119.179C125.004 118.987 124.666 118.891 124.293 118.891Z" fill="#077453"/>
<path d="M27.5821 275.66C26.9019 275.66 26.2623 275.526 25.6635 275.258C25.0647 274.985 24.5378 274.608 24.0827 274.129C23.6276 273.65 23.2707 273.097 23.012 272.47C22.7533 271.837 22.624 271.162 22.624 270.443C22.624 269.725 22.7533 269.052 23.012 268.424C23.2707 267.792 23.6276 267.236 24.0827 266.757C24.5378 266.278 25.0647 265.904 25.6635 265.636C26.2623 265.363 26.9019 265.226 27.5821 265.226C28.2671 265.226 28.909 265.363 29.5078 265.636C30.1066 265.904 30.6336 266.278 31.0887 266.757C31.5438 267.236 31.8983 267.792 32.1522 268.424C32.4108 269.052 32.5402 269.725 32.5402 270.443C32.5402 271.162 32.4108 271.837 32.1522 272.47C31.8983 273.097 31.5438 273.65 31.0887 274.129C30.6336 274.608 30.1066 274.985 29.5078 275.258C28.909 275.526 28.2671 275.66 27.5821 275.66ZM27.5821 273.907C28.0228 273.907 28.4372 273.816 28.8252 273.634C29.2132 273.452 29.5533 273.202 29.8456 272.886C30.1426 272.565 30.3725 272.196 30.5354 271.78C30.703 271.363 30.7869 270.917 30.7869 270.443C30.7869 269.969 30.703 269.523 30.5354 269.107C30.3677 268.685 30.1354 268.316 29.8384 268C29.5462 267.684 29.206 267.435 28.818 267.253C28.4348 267.071 28.0228 266.98 27.5821 266.98C27.1414 266.98 26.727 267.071 26.339 267.253C25.951 267.435 25.6084 267.686 25.3114 268.007C25.0192 268.323 24.7893 268.69 24.6216 269.107C24.4587 269.523 24.3773 269.969 24.3773 270.443C24.3773 270.922 24.4611 271.37 24.6288 271.787C24.7965 272.204 25.0264 272.573 25.3186 272.894C25.6156 273.21 25.9557 273.459 26.339 273.641C26.727 273.818 27.1414 273.907 27.5821 273.907ZM36.0041 266.779V268.288H37.9658V270.041H36.0041V275.473H34.2508V270.041H33.4676V268.288H34.2508V266.779C34.2508 266.367 34.3514 265.991 34.5526 265.65C34.7586 265.305 35.034 265.032 35.3789 264.831C35.7239 264.625 36.1047 264.522 36.5215 264.522C36.8233 264.522 37.1227 264.585 37.4197 264.709C37.7167 264.834 37.9801 265.025 38.2101 265.284L36.9454 266.52C36.9023 266.438 36.84 266.379 36.7586 266.34C36.6819 266.297 36.6029 266.276 36.5215 266.276C36.3825 266.276 36.2604 266.326 36.155 266.426C36.0544 266.522 36.0041 266.64 36.0041 266.779ZM42.6651 275.473L42.6579 268.288H44.4112L44.4184 268.927C44.6627 268.668 44.9549 268.465 45.295 268.316C45.6351 268.163 46.0016 268.086 46.3944 268.086C46.6579 268.086 46.9213 268.125 47.1848 268.201L46.495 269.969C46.313 269.897 46.1309 269.861 45.9489 269.861C45.6663 269.861 45.4076 269.931 45.1728 270.07C44.9429 270.204 44.7585 270.388 44.6196 270.623C44.4854 270.853 44.4184 271.109 44.4184 271.392V275.473H42.6651ZM53.0721 268.288H54.8254V275.473H53.0721L52.9931 274.582C52.7966 274.903 52.5356 275.164 52.2098 275.365C51.8889 275.562 51.508 275.66 51.0673 275.66C50.5356 275.66 50.0374 275.559 49.5727 275.358C49.108 275.157 48.6984 274.879 48.344 274.525C47.9943 274.17 47.7188 273.761 47.5176 273.296C47.3212 272.831 47.223 272.333 47.223 271.801C47.223 271.289 47.3164 270.807 47.5032 270.357C47.6949 269.907 47.9607 269.511 48.3008 269.171C48.641 268.831 49.0338 268.565 49.4793 268.374C49.9248 268.182 50.4038 268.086 50.9164 268.086C51.3907 268.086 51.8146 268.192 52.1883 268.402C52.5667 268.613 52.8877 268.882 53.1511 269.207L53.0721 268.288ZM51.0242 273.971C51.3978 273.971 51.7284 273.878 52.0158 273.691C52.3032 273.504 52.5284 273.253 52.6913 272.937C52.8541 272.616 52.9356 272.264 52.9356 271.88C52.9356 271.492 52.8541 271.14 52.6913 270.824C52.5284 270.503 52.3008 270.249 52.0086 270.062C51.7212 269.876 51.3931 269.782 51.0242 269.782C50.6553 269.782 50.3176 269.878 50.011 270.07C49.7092 270.256 49.4673 270.508 49.2853 270.824C49.108 271.14 49.0194 271.492 49.0194 271.88C49.0194 272.268 49.1104 272.62 49.2925 272.937C49.4745 273.253 49.7164 273.504 50.0182 273.691C50.3248 273.878 50.6601 273.971 51.0242 273.971ZM56.2572 275.473V268.288H58.0105V268.927C58.2548 268.668 58.5471 268.465 58.8872 268.316C59.2273 268.163 59.5938 268.086 59.9866 268.086C60.4848 268.086 60.9423 268.204 61.359 268.438C61.7806 268.673 62.1159 268.987 62.365 269.38C62.6189 268.987 62.9542 268.673 63.371 268.438C63.7878 268.204 64.2453 268.086 64.7435 268.086C65.2704 268.086 65.7471 268.216 66.1734 268.474C66.6045 268.728 66.9471 269.071 67.201 269.502C67.4596 269.928 67.589 270.405 67.589 270.932V275.473H65.8357V271.399C65.8357 271.121 65.7662 270.867 65.6273 270.637C65.4932 270.402 65.3111 270.216 65.0812 270.077C64.856 269.933 64.6022 269.861 64.3195 269.861C64.0369 269.861 63.7806 269.931 63.5507 270.07C63.3255 270.204 63.1435 270.386 63.0045 270.616C62.8656 270.846 62.7962 271.107 62.7962 271.399V275.473H61.0429V271.399C61.0429 271.107 60.9758 270.846 60.8417 270.616C60.7075 270.386 60.5255 270.204 60.2956 270.07C60.0656 269.931 59.8093 269.861 59.5267 269.861C59.2489 269.861 58.995 269.933 58.765 270.077C58.5351 270.216 58.3507 270.402 58.2117 270.637C58.0776 270.867 58.0105 271.121 58.0105 271.399V275.473H56.2572ZM70.7819 279.066H69.0286V268.288H70.7819V269.2C71.0166 268.874 71.304 268.611 71.6441 268.41C71.9891 268.204 72.3914 268.101 72.8513 268.101C73.3783 268.101 73.8693 268.199 74.3244 268.395C74.7795 268.592 75.1795 268.865 75.5244 269.214C75.8741 269.559 76.1447 269.959 76.3364 270.414C76.5328 270.87 76.631 271.358 76.631 271.88C76.631 272.402 76.5328 272.894 76.3364 273.353C76.1447 273.813 75.8741 274.218 75.5244 274.568C75.1795 274.913 74.7795 275.183 74.3244 275.38C73.8693 275.576 73.3783 275.674 72.8513 275.674C72.3914 275.674 71.9891 275.574 71.6441 275.373C71.304 275.167 71.0166 274.901 70.7819 274.575V279.066ZM72.8298 269.789C72.4657 269.789 72.14 269.885 71.8525 270.077C71.5651 270.264 71.34 270.515 71.1771 270.831C71.0142 271.147 70.9328 271.497 70.9328 271.88C70.9328 272.264 71.0142 272.616 71.1771 272.937C71.34 273.253 71.5651 273.507 71.8525 273.698C72.14 273.885 72.4657 273.979 72.8298 273.979C73.1986 273.979 73.5364 273.885 73.8429 273.698C74.1495 273.511 74.3938 273.26 74.5759 272.944C74.7579 272.623 74.8489 272.268 74.8489 271.88C74.8489 271.497 74.7579 271.147 74.5759 270.831C74.3938 270.515 74.1495 270.264 73.8429 270.077C73.5411 269.885 73.2034 269.789 72.8298 269.789Z" fill="#077453"/>
<path d="M320.3 225.174V215.114H326.609V216.867H322.053V218.908H325.667V220.661H322.053V223.42H326.609V225.174H320.3ZM327.492 225.174L330.122 221.566L327.514 217.981H329.677L331.2 220.072L332.731 217.981H334.894L332.285 221.566L334.915 225.174H332.752L331.2 223.047L329.655 225.174H327.492ZM340.066 223.011L341.647 223.866C341.317 224.316 340.902 224.678 340.404 224.951C339.906 225.224 339.362 225.36 338.773 225.36C338.112 225.36 337.508 225.19 336.962 224.85C336.421 224.51 335.987 224.055 335.661 223.485C335.34 222.91 335.18 222.275 335.18 221.581C335.18 221.054 335.273 220.563 335.46 220.108C335.647 219.648 335.903 219.245 336.229 218.901C336.56 218.551 336.943 218.278 337.379 218.081C337.815 217.885 338.279 217.787 338.773 217.787C339.362 217.787 339.906 217.923 340.404 218.196C340.902 218.469 341.317 218.836 341.647 219.296L340.066 220.144C339.899 219.952 339.7 219.804 339.47 219.698C339.245 219.593 339.012 219.54 338.773 219.54C338.428 219.54 338.117 219.636 337.839 219.827C337.561 220.014 337.34 220.263 337.178 220.575C337.015 220.881 336.933 221.217 336.933 221.581C336.933 221.94 337.015 222.275 337.178 222.587C337.34 222.893 337.561 223.14 337.839 223.327C338.117 223.514 338.428 223.607 338.773 223.607C339.022 223.607 339.259 223.554 339.484 223.449C339.709 223.339 339.903 223.193 340.066 223.011ZM349.295 220.632V225.174H347.541V221.092C347.541 220.81 347.472 220.553 347.333 220.323C347.194 220.089 347.007 219.904 346.772 219.77C346.542 219.631 346.286 219.562 346.004 219.562C345.721 219.562 345.462 219.631 345.228 219.77C344.998 219.904 344.813 220.089 344.674 220.323C344.54 220.553 344.473 220.81 344.473 221.092V225.174H342.72L342.713 214.395H344.466L344.473 218.627C344.717 218.369 345.01 218.165 345.35 218.017C345.69 217.863 346.056 217.787 346.449 217.787C346.971 217.787 347.448 217.916 347.879 218.175C348.31 218.429 348.653 218.771 348.907 219.202C349.165 219.629 349.295 220.105 349.295 220.632ZM356.004 217.988H357.757V225.174H356.004L355.925 224.283C355.728 224.604 355.467 224.865 355.142 225.066C354.821 225.262 354.44 225.36 353.999 225.36C353.467 225.36 352.969 225.26 352.504 225.059C352.04 224.857 351.63 224.58 351.276 224.225C350.926 223.871 350.651 223.461 350.449 222.996C350.253 222.532 350.155 222.033 350.155 221.502C350.155 220.989 350.248 220.508 350.435 220.057C350.627 219.607 350.892 219.212 351.233 218.872C351.573 218.532 351.965 218.266 352.411 218.074C352.857 217.883 353.336 217.787 353.848 217.787C354.322 217.787 354.746 217.892 355.12 218.103C355.498 218.314 355.819 218.582 356.083 218.908L356.004 217.988ZM353.956 223.672C354.33 223.672 354.66 223.578 354.948 223.392C355.235 223.205 355.46 222.953 355.623 222.637C355.786 222.316 355.867 221.964 355.867 221.581C355.867 221.193 355.786 220.841 355.623 220.524C355.46 220.204 355.233 219.95 354.94 219.763C354.653 219.576 354.325 219.483 353.956 219.483C353.587 219.483 353.249 219.578 352.943 219.77C352.641 219.957 352.399 220.208 352.217 220.524C352.04 220.841 351.951 221.193 351.951 221.581C351.951 221.969 352.042 222.321 352.224 222.637C352.406 222.953 352.648 223.205 352.95 223.392C353.257 223.578 353.592 223.672 353.956 223.672ZM365.771 220.632V225.174H364.018V221.092C364.018 220.81 363.948 220.553 363.809 220.323C363.67 220.089 363.484 219.904 363.249 219.77C363.019 219.631 362.763 219.562 362.48 219.562C362.197 219.562 361.939 219.631 361.704 219.77C361.474 219.904 361.29 220.089 361.151 220.323C361.017 220.553 360.949 220.81 360.949 221.092V225.174H359.196L359.189 217.988H360.942L360.949 218.627C361.194 218.369 361.486 218.165 361.826 218.017C362.166 217.863 362.533 217.787 362.925 217.787C363.448 217.787 363.924 217.916 364.355 218.175C364.787 218.429 365.129 218.771 365.383 219.202C365.642 219.629 365.771 220.105 365.771 220.632ZM372.394 217.988H374.147V225.31C374.147 225.827 374.042 226.297 373.831 226.718C373.62 227.145 373.333 227.509 372.969 227.811C372.605 228.117 372.188 228.352 371.719 228.515C371.249 228.683 370.756 228.766 370.238 228.766C369.735 228.766 369.252 228.663 368.787 228.457C368.322 228.251 367.91 227.969 367.551 227.61C367.196 227.255 366.926 226.85 366.739 226.395L368.341 225.669C368.437 225.933 368.581 226.163 368.772 226.359C368.969 226.56 369.194 226.716 369.448 226.826C369.702 226.941 369.965 226.999 370.238 226.999C370.516 226.999 370.782 226.96 371.036 226.884C371.295 226.807 371.527 226.695 371.733 226.546C371.939 226.402 372.099 226.225 372.214 226.014C372.334 225.808 372.394 225.574 372.394 225.31V224.297C372.169 224.613 371.886 224.869 371.546 225.066C371.206 225.262 370.813 225.36 370.368 225.36C369.85 225.36 369.366 225.262 368.916 225.066C368.466 224.869 368.068 224.599 367.723 224.254C367.383 223.904 367.115 223.502 366.919 223.047C366.727 222.592 366.631 222.103 366.631 221.581C366.631 221.059 366.727 220.57 366.919 220.115C367.115 219.66 367.383 219.26 367.723 218.915C368.068 218.565 368.466 218.292 368.916 218.096C369.366 217.899 369.85 217.801 370.368 217.801C370.813 217.801 371.206 217.899 371.546 218.096C371.886 218.287 372.169 218.541 372.394 218.857V217.988ZM370.389 223.672C370.758 223.672 371.084 223.578 371.366 223.392C371.654 223.2 371.879 222.946 372.042 222.63C372.205 222.309 372.286 221.959 372.286 221.581C372.286 221.198 372.202 220.848 372.035 220.532C371.872 220.215 371.647 219.962 371.359 219.77C371.077 219.578 370.753 219.483 370.389 219.483C370.03 219.483 369.702 219.578 369.405 219.77C369.108 219.957 368.871 220.208 368.693 220.524C368.516 220.841 368.428 221.193 368.428 221.581C368.428 221.969 368.516 222.321 368.693 222.637C368.871 222.953 369.108 223.205 369.405 223.392C369.702 223.578 370.03 223.672 370.389 223.672ZM378.869 225.36C378.208 225.36 377.604 225.19 377.058 224.85C376.517 224.51 376.084 224.053 375.758 223.478C375.437 222.903 375.276 222.268 375.276 221.574C375.276 221.051 375.37 220.563 375.557 220.108C375.743 219.648 376 219.245 376.325 218.901C376.656 218.551 377.039 218.278 377.475 218.081C377.911 217.885 378.376 217.787 378.869 217.787C379.43 217.787 379.942 217.907 380.407 218.146C380.876 218.381 381.274 218.704 381.6 219.116C381.925 219.528 382.163 219.998 382.311 220.524C382.46 221.051 382.493 221.602 382.412 222.177H377.159C377.226 222.445 377.336 222.687 377.49 222.903C377.643 223.114 377.837 223.284 378.072 223.413C378.306 223.538 378.572 223.602 378.869 223.607C379.176 223.612 379.454 223.54 379.703 223.392C379.957 223.238 380.167 223.032 380.335 222.774L382.124 223.19C381.832 223.827 381.396 224.35 380.816 224.757C380.237 225.159 379.588 225.36 378.869 225.36ZM377.102 220.862H380.637C380.584 220.575 380.472 220.316 380.299 220.086C380.131 219.851 379.923 219.665 379.674 219.526C379.425 219.387 379.157 219.317 378.869 219.317C378.582 219.317 378.316 219.387 378.072 219.526C377.827 219.66 377.619 219.844 377.446 220.079C377.279 220.309 377.164 220.57 377.102 220.862Z" fill="#077453"/>
<path fill-rule="evenodd" clip-rule="evenodd" d="M347.134 179.121C349.355 176.899 352.957 176.899 355.179 179.121L356.026 178.274C353.336 175.585 348.976 175.585 346.287 178.274L347.134 179.121ZM347.132 198.124C349.353 200.346 352.955 200.346 355.177 198.124L356.024 198.971C353.334 201.66 348.974 201.66 346.285 198.971L347.132 198.124ZM365.645 182.648C364.463 181.859 363.074 181.437 361.652 181.437C359.747 181.437 357.919 182.194 356.571 183.542C355.224 184.889 354.467 186.717 354.467 188.623C354.467 190.044 354.888 191.433 355.678 192.615C356.467 193.797 357.59 194.718 358.903 195.261C360.216 195.805 361.66 195.948 363.054 195.67C364.448 195.393 365.729 194.709 366.733 193.704C367.738 192.699 368.423 191.419 368.7 190.025C368.977 188.631 368.835 187.186 368.291 185.873C367.747 184.56 366.826 183.438 365.645 182.648ZM363.543 185.805L361.652 182.98L359.762 185.798L357.871 188.623L361.652 190.535L365.433 188.63L363.543 185.805ZM358.081 189.39L361.652 191.296L365.223 189.39L361.652 194.266L358.081 189.39ZM340.723 195.808C344.691 195.808 347.908 192.591 347.908 188.623C347.908 184.654 344.691 181.437 340.723 181.437C336.754 181.437 333.537 184.654 333.537 188.623C333.537 192.591 336.754 195.808 340.723 195.808ZM341.585 189.244V189.243C341.535 189.246 341.281 189.262 340.713 189.262C340.259 189.262 339.94 189.248 339.827 189.243V189.244C338.081 189.167 336.778 188.863 336.778 188.499C336.778 188.136 338.081 187.832 339.827 187.754V188.941C339.941 188.949 340.268 188.969 340.72 188.969C341.262 188.969 341.534 188.946 341.585 188.942V187.755C343.327 187.833 344.627 188.137 344.627 188.499C344.627 188.863 343.327 189.166 341.585 189.244ZM341.585 187.631V186.569H344.016V184.948H337.396V186.569H339.827V187.631C337.851 187.722 336.365 188.113 336.365 188.582C336.365 189.051 337.851 189.442 339.827 189.533V192.938H341.585V189.532C343.558 189.442 345.04 189.051 345.04 188.582C345.04 188.114 343.558 187.723 341.585 187.631Z" fill="#077453"/>
<path fill-rule="evenodd" clip-rule="evenodd" d="M237.119 24.5503C235.465 24.5503 234.125 25.8908 234.125 27.5443V29.9395H266.46V27.5443C266.46 25.8908 265.12 24.5503 263.466 24.5503H237.119ZM238.617 28.1431C239.113 28.1431 239.515 27.7409 239.515 27.2449C239.515 26.7488 239.113 26.3467 238.617 26.3467C238.121 26.3467 237.719 26.7488 237.719 27.2449C237.719 27.7409 238.121 28.1431 238.617 28.1431ZM244.904 27.2449C244.904 27.7409 244.502 28.1431 244.006 28.1431C243.51 28.1431 243.107 27.7409 243.107 27.2449C243.107 26.7488 243.51 26.3467 244.006 26.3467C244.502 26.3467 244.904 26.7488 244.904 27.2449ZM241.31 28.1431C241.806 28.1431 242.209 27.7409 242.209 27.2449C242.209 26.7488 241.806 26.3467 241.31 26.3467C240.814 26.3467 240.412 26.7488 240.412 27.2449C240.412 27.7409 240.814 28.1431 241.31 28.1431ZM263.468 50.8979H237.121C236.129 50.8979 235.325 50.0936 235.325 49.1014V32.335H265.265V49.1014C265.265 50.0936 264.46 50.8979 263.468 50.8979ZM237.121 52.0955C235.467 52.0955 234.127 50.755 234.127 49.1014V32.335V31.1374H235.325H265.265H266.462V32.335V49.1014C266.462 50.755 265.122 52.0955 263.468 52.0955H237.121ZM248.654 45.3005H247.347L251.934 36.5269H253.241L248.654 45.3005ZM238.619 42.231V41.2298L246.302 37.9628V39.2406L240.475 41.7304L246.302 44.1017V45.3796L238.619 42.231ZM254.289 44.1017V45.3796L261.972 42.231V41.2298L254.289 37.9628V39.2406L260.117 41.7304L254.289 44.1017Z" fill="#077453"/>
<path fill-rule="evenodd" clip-rule="evenodd" d="M183.838 329.342C183.838 327.689 185.178 326.348 186.832 326.348H213.179C214.833 326.348 216.173 327.689 216.173 329.342V331.738H183.838V329.342ZM189.228 329.043C189.228 329.539 188.826 329.941 188.33 329.941C187.834 329.941 187.432 329.539 187.432 329.043C187.432 328.547 187.834 328.145 188.33 328.145C188.826 328.145 189.228 328.547 189.228 329.043ZM193.719 329.941C194.215 329.941 194.617 329.539 194.617 329.043C194.617 328.547 194.215 328.145 193.719 328.145C193.222 328.145 192.82 328.547 192.82 329.043C192.82 329.539 193.222 329.941 193.719 329.941ZM191.921 329.043C191.921 329.539 191.519 329.941 191.023 329.941C190.527 329.941 190.125 329.539 190.125 329.043C190.125 328.547 190.527 328.145 191.023 328.145C191.519 328.145 191.921 328.547 191.921 329.043ZM213.177 352.695H186.83C185.838 352.695 185.034 351.891 185.034 350.899V334.133H214.974V350.899C214.974 351.891 214.169 352.695 213.177 352.695ZM186.83 353.893C185.176 353.893 183.836 352.553 183.836 350.899V334.133V332.935H185.034H214.974H216.171V334.133V350.899C216.171 352.553 214.831 353.893 213.177 353.893H186.83ZM187.428 340.12L194.613 340.12V338.324H187.428L187.428 340.12ZM212.578 340.12L196.41 340.12V338.324L212.578 338.324V340.12ZM203.597 342.515H187.43V344.312H203.597V342.515ZM212.58 342.515H205.395V344.312H212.58V342.515ZM212.578 348.503L196.41 348.503V346.707L212.578 346.707V348.503ZM187.428 348.503H194.613V346.707L187.428 346.707L187.428 348.503Z" fill="#077453"/>
<path fill-rule="evenodd" clip-rule="evenodd" d="M95.6318 78.522C97.8533 76.3004 101.455 76.3004 103.677 78.522L104.524 77.6751C101.834 74.9859 97.4742 74.9859 94.7849 77.6751L95.6318 78.522ZM95.6318 97.526C97.8533 99.7475 101.455 99.7475 103.677 97.526L104.524 98.3728C101.834 101.062 97.4742 101.062 94.7849 98.3728L95.6318 97.526ZM117.369 88.0239C117.369 91.9924 114.152 95.2096 110.184 95.2096C106.215 95.2096 102.998 91.9924 102.998 88.0239C102.998 84.0554 106.215 80.8383 110.184 80.8383C114.152 80.8383 117.369 84.0554 117.369 88.0239ZM111.968 85.1857C113.008 85.5443 113.77 86.0816 113.62 87.081C113.512 87.8129 113.106 88.1672 112.568 88.2912C113.307 88.676 113.683 89.2667 113.325 90.29C112.88 91.5612 111.823 91.6684 110.418 91.4024L110.077 92.7689L109.253 92.5639L109.59 91.2155C109.376 91.1621 109.158 91.1058 108.933 91.0453L108.595 92.3994L107.772 92.1944L108.113 90.825C108.032 90.8042 107.95 90.7829 107.868 90.7615C107.755 90.732 107.641 90.7023 107.526 90.6733L106.453 90.4059L106.862 89.4627C106.862 89.4627 107.47 89.6239 107.461 89.612C107.695 89.6697 107.798 89.5175 107.839 89.4165L108.378 87.2556L108.465 87.277C108.432 87.2641 108.402 87.2556 108.379 87.2498L108.764 85.7073C108.774 85.5319 108.713 85.3111 108.38 85.2277C108.393 85.2191 107.781 85.0789 107.781 85.0789L108 84.1987L109.137 84.4824L109.136 84.4867C109.295 84.5267 109.459 84.5643 109.626 84.6024L109.662 84.6107L110 83.257L110.824 83.4625L110.492 84.7895L110.506 84.7926C110.723 84.8421 110.941 84.8917 111.153 84.9449L111.482 83.6265L112.305 83.8316L111.968 85.1857ZM109.361 90.0948C110.034 90.2725 111.504 90.6607 111.737 89.7216C111.976 88.7621 110.552 88.4422 109.856 88.2858L109.856 88.2858L109.856 88.2857C109.778 88.2682 109.709 88.2528 109.653 88.2387L109.2 90.053C109.246 90.0645 109.301 90.0788 109.361 90.0948ZM109.996 87.4436C110.557 87.5933 111.779 87.9197 111.992 87.0663C112.209 86.1934 111.021 85.9305 110.441 85.8021C110.375 85.7876 110.318 85.7749 110.271 85.7631L109.861 87.4081C109.899 87.4178 109.945 87.43 109.996 87.4436ZM96.4064 88.024C96.4064 91.9925 93.1893 95.2096 89.2208 95.2096C85.2523 95.2096 82.0352 91.9925 82.0352 88.024C82.0352 84.0555 85.2523 80.8384 89.2208 80.8384C93.1893 80.8384 96.4064 84.0555 96.4064 88.024ZM87.0933 91.6379C86.6366 91.2076 86.3556 90.5884 86.2502 89.7804H87.4358C87.4973 90.2108 87.651 90.5445 87.8969 90.7816C88.1253 90.9749 88.3756 91.1022 88.6478 91.1637V88.5685C87.2426 88.3138 86.54 87.5146 86.54 86.1709C86.54 85.8108 86.5971 85.4727 86.7113 85.1565C86.8255 84.8403 86.9967 84.5681 87.2251 84.3397C87.5939 83.9709 88.0682 83.7469 88.6478 83.6679V82.9038H89.8071V83.6679C90.536 83.7733 91.1069 84.0806 91.5197 84.59C91.8885 85.0643 92.1081 85.6439 92.1783 86.329L92.152 86.3421H91.0059C90.962 85.9996 90.8698 85.7186 90.7292 85.499C90.5185 85.1565 90.2111 84.9413 89.8071 84.8535V87.5014C90.3692 87.598 90.8478 87.7649 91.243 88.002C91.8754 88.406 92.1915 89.0295 92.1915 89.8727C92.1915 90.2064 92.1257 90.527 91.9939 90.8343C91.871 91.1329 91.6909 91.3964 91.4538 91.6248C91.0147 92.0551 90.4658 92.3142 89.8071 92.402V93.1397H88.6478V92.3757C88.0067 92.2703 87.4885 92.0244 87.0933 91.6379ZM87.8706 86.8822C88.0638 87.1282 88.3229 87.2862 88.6478 87.3565V84.8667C88.2965 84.9369 88.0286 85.0862 87.8442 85.3146C87.6686 85.5341 87.5807 85.7844 87.5807 86.0655C87.5807 86.3641 87.6774 86.6363 87.8706 86.8822ZM90.8215 89.1481C90.6634 88.9637 90.3253 88.8188 89.8071 88.7134V91.2032C90.176 91.1242 90.4746 90.9529 90.7029 90.6894C90.94 90.426 91.0586 90.1405 91.0586 89.8331C91.0586 89.5872 90.9795 89.3589 90.8215 89.1481Z" fill="#077453"/>
<path fill-rule="evenodd" clip-rule="evenodd" d="M45.3311 229.42C47.5526 227.199 51.1544 227.199 53.376 229.42L54.2228 228.574C51.5336 225.884 47.1735 225.884 44.4842 228.574L45.3311 229.42ZM45.3311 248.424C47.5526 250.646 51.1544 250.646 53.376 248.424L54.2228 249.271C51.5336 251.96 47.1735 251.96 44.4842 249.271L45.3311 248.424ZM42.8848 232.948C41.7031 232.158 40.3138 231.737 38.8927 231.737C36.9869 231.737 35.1592 232.494 33.8117 233.841C32.4641 235.189 31.707 237.017 31.707 238.922C31.707 240.344 32.1285 241.733 32.918 242.915C33.7076 244.096 34.8298 245.017 36.1428 245.561C37.4558 246.105 38.9006 246.247 40.2945 245.97C41.6884 245.693 42.9687 245.008 43.9737 244.003C44.9786 242.998 45.663 241.718 45.9402 240.324C46.2175 238.93 46.0752 237.486 45.5313 236.173C44.9875 234.86 44.0665 233.737 42.8848 232.948ZM37.1887 236.375L38.8926 233.836V233.835L38.8928 233.835L38.893 233.835L39.0504 234.07L40.5969 236.375L42.3012 238.922L42.2959 238.92L42.2968 238.921L42.3012 238.923L42.2987 238.924L42.3016 238.928L38.893 240.646L35.9073 239.136L35.4844 238.923L35.4853 238.922L35.4844 238.922L37.1887 236.375ZM38.9341 241.31L38.894 241.331L35.6758 239.614L35.6771 239.616L35.6734 239.614L37.1969 241.693L38.8926 244.011V244.015L38.894 244.013L38.8953 244.015V244.011L42.1186 239.614L42.1085 239.619L42.1125 239.614L38.9341 241.31ZM59.877 246.108C63.8456 246.108 67.0627 242.891 67.0627 238.922C67.0627 234.954 63.8456 231.736 59.877 231.736C55.9085 231.736 52.6914 234.954 52.6914 238.922C52.6914 242.891 55.9085 246.108 59.877 246.108ZM54.9251 238.604H56.1778C56.1692 238.72 56.1649 238.824 56.1649 238.923C56.1649 239.052 56.171 239.185 56.183 239.317H55.5748H55.5506L55.5405 239.339L54.9463 240.613L54.9211 240.667H54.981H56.5308C57.2461 242.293 58.874 243.341 60.6855 243.341C61.5978 243.341 62.4769 243.077 63.2285 242.576L63.2453 242.565V242.544V240.983V240.882L63.1786 240.958C62.5857 241.633 61.7328 242.02 60.8385 242.02C59.8102 242.02 58.8561 241.516 58.2718 240.667H61.4977H61.5222L61.5324 240.645L62.1263 239.372L62.1517 239.317H62.0916H57.7483C57.7287 239.174 57.7186 239.029 57.7186 238.886C57.7186 238.793 57.7228 238.698 57.7312 238.604H62.4597H62.4843L62.4945 238.582L63.0882 237.309L63.1138 237.254H63.0535H58.1752C58.7401 236.326 59.7547 235.752 60.8385 235.752C61.779 235.752 62.66 236.172 63.2556 236.905L63.2942 236.952L63.3202 236.897L63.8358 235.791L63.8473 235.766L63.8276 235.747C62.9796 234.945 61.8637 234.504 60.6855 234.504C59.7653 234.504 58.8801 234.773 58.125 235.281C57.395 235.773 56.8333 236.455 56.4997 237.254H55.5191H55.4945L55.4844 237.276L54.8906 238.55L54.8652 238.604H54.9251Z" fill="#077453"/>
</svg>
