<svg width="668" height="668" viewBox="0 0 668 668" fill="none" xmlns="http://www.w3.org/2000/svg">
<rect x="84" y="248" width="164" height="164" rx="32" transform="rotate(-90 84 248)" fill="#BFFFC8"/>
<rect x="168" y="332" width="80" height="80" rx="8" transform="rotate(-90 168 332)" fill="#819EB0" fill-opacity="0.8"/>
<path fill-rule="evenodd" clip-rule="evenodd" d="M199.111 332C199.111 314.818 185.182 300.889 168 300.889L168 283.111C195.001 283.111 216.889 304.999 216.889 332L199.111 332Z" fill="#BFFFC8"/>
<rect y="500" width="164" height="164" rx="32" transform="rotate(-90 0 500)" fill="#BFFFC8"/>
<rect x="164" y="252" width="80" height="80" rx="8" transform="rotate(90 164 252)" fill="#819EB0" fill-opacity="0.8"/>
<path fill-rule="evenodd" clip-rule="evenodd" d="M132.889 252C132.889 269.182 146.818 283.111 164 283.111L164 300.889C136.999 300.889 115.111 279.001 115.111 252L132.889 252Z" fill="#BFFFC8"/>
<rect width="80" height="80" rx="8" transform="matrix(1.19249e-08 1 1 -1.19249e-08 168 420)" fill="#819EB0" fill-opacity="0.8"/>
<path fill-rule="evenodd" clip-rule="evenodd" d="M199.111 420C199.111 437.182 185.182 451.111 168 451.111L168 468.889C195.001 468.889 216.889 447.001 216.889 420L199.111 420Z" fill="#BFFFC8"/>
<rect x="420" y="248" width="80" height="80" rx="8" transform="rotate(-90 420 248)" fill="#819EB0" fill-opacity="0.8"/>
<path fill-rule="evenodd" clip-rule="evenodd" d="M451.111 248C451.111 230.818 437.182 216.889 420 216.889L420 199.111C447.001 199.111 468.889 220.999 468.889 248L451.111 248Z" fill="#BFFFC8"/>
<rect x="332" y="500" width="80" height="80" rx="8" transform="rotate(180 332 500)" fill="#819EB0" fill-opacity="0.8"/>
<path fill-rule="evenodd" clip-rule="evenodd" d="M332 468.889C314.818 468.889 300.889 482.818 300.889 500L283.111 500C283.111 472.999 304.999 451.111 332 451.111L332 468.889Z" fill="#BFFFC8"/>
<rect x="252" y="668" width="164" height="164" rx="32" transform="rotate(-90 252 668)" fill="#BFFFC8"/>
<rect x="336" y="164" width="164" height="164" rx="32" transform="rotate(-90 336 164)" fill="#BFFFC8"/>
<rect x="252" y="248" width="80" height="80" rx="8" transform="rotate(-90 252 248)" fill="#819EB0" fill-opacity="0.8"/>
<rect x="420" y="252" width="80" height="80" rx="8" fill="#819EB0" fill-opacity="0.8"/>
<path fill-rule="evenodd" clip-rule="evenodd" d="M420 283.111C437.182 283.111 451.111 269.182 451.111 252H468.889C468.889 279.001 447.001 300.889 420 300.889L420 283.111Z" fill="#BFFFC8"/>
<rect x="332" y="164" width="80" height="80" rx="8" transform="rotate(180 332 164)" fill="#819EB0" fill-opacity="0.8"/>
<rect x="416" y="168" width="80" height="80" rx="8" transform="rotate(90 416 168)" fill="#819EB0" fill-opacity="0.8"/>
<path fill-rule="evenodd" clip-rule="evenodd" d="M384.889 168C384.889 185.182 398.818 199.111 416 199.111L416 216.889C388.999 216.889 367.111 195.001 367.111 168L384.889 168Z" fill="#BFFFC8"/>
<rect x="336" y="420" width="80" height="80" rx="8" fill="#819EB0" fill-opacity="0.8"/>
<path d="M367.111 420C367.111 437.182 353.182 451.111 336 451.111L336 468.889C352.535 468.889 367.152 460.68 376 448.116C384.848 460.68 399.465 468.889 416 468.889L416 451.111C398.818 451.111 384.889 437.182 384.889 420H367.111Z" fill="#BFFFC8"/>
<rect x="248" y="336" width="80" height="80" rx="8" transform="rotate(90 248 336)" fill="#819EB0" fill-opacity="0.8"/>
<path d="M248 367.111C230.818 367.111 216.889 353.182 216.889 336L199.111 336C199.111 352.535 207.32 367.152 219.884 376C207.32 384.848 199.111 399.465 199.111 416L216.889 416C216.889 398.818 230.818 384.889 248 384.889L248 367.111Z" fill="#BFFFC8"/>
<rect width="80" height="80" rx="8" transform="matrix(-4.37114e-08 -1 -1 4.37114e-08 500 416)" fill="#819EB0" fill-opacity="0.8"/>
<path fill-rule="evenodd" clip-rule="evenodd" d="M468.889 416C468.889 398.818 482.818 384.889 500 384.889L500 367.111C472.999 367.111 451.111 388.999 451.111 416L468.889 416Z" fill="#BFFFC8"/>
<rect width="80" height="80" rx="8" transform="matrix(1.19249e-08 1 1 -1.19249e-08 420 420)" fill="#819EB0" fill-opacity="0.8"/>
<path fill-rule="evenodd" clip-rule="evenodd" d="M451.111 420C451.111 437.182 437.182 451.111 420 451.111L420 468.889C447.001 468.889 468.889 447.001 468.889 420L451.111 420Z" fill="#BFFFC8"/>
<rect x="504" y="500" width="80" height="80" rx="8" transform="rotate(-90 504 500)" fill="#819EB0" fill-opacity="0.8"/>
<rect x="420" y="584" width="80" height="80" rx="8" transform="rotate(-90 420 584)" fill="#819EB0" fill-opacity="0.8"/>
<rect x="504" y="248" width="80" height="80" rx="8" transform="rotate(-90 504 248)" fill="#819EB0" fill-opacity="0.8"/>
<rect x="504" y="416" width="164" height="164" rx="32" transform="rotate(-90 504 416)" fill="#BFFFC8"/>
<rect x="252" y="252" width="164" height="164" rx="32" fill="#BFFFC8"/>
<rect x="264" y="264" width="140" height="140" rx="25" fill="#077453"/>
<rect opacity="0.4" x="272" y="272" width="124" height="124" rx="20" stroke="#BFFFC8" stroke-width="2" stroke-dasharray="2 4"/>
<path d="M323.193 610.2H326.565L332.673 627H329.565L328.485 624.024H321.285L320.205 627H317.097L323.193 610.2ZM322.353 621.096H327.405L324.873 614.172L322.353 621.096ZM334.686 627V610.2H340.686C341.598 610.2 342.422 610.428 343.158 610.884C343.902 611.34 344.49 611.952 344.922 612.72C345.354 613.488 345.57 614.332 345.57 615.252C345.57 616.196 345.346 617.052 344.898 617.82C344.458 618.58 343.866 619.188 343.122 619.644C342.378 620.092 341.566 620.316 340.686 620.316H337.614V627H334.686ZM337.614 617.388H340.374C340.79 617.388 341.17 617.284 341.514 617.076C341.858 616.868 342.13 616.588 342.33 616.236C342.538 615.884 342.642 615.492 342.642 615.06C342.642 614.62 342.538 614.224 342.33 613.872C342.13 613.52 341.858 613.24 341.514 613.032C341.17 612.824 340.79 612.72 340.374 612.72H337.614V617.388ZM348.124 627V610.2H351.052V627H348.124Z" fill="#077453"/>
<path d="M384.373 123L380.077 106.2H383.101L386.029 117.684L388.957 106.2H391.633L394.561 117.684L397.477 106.2H400.501L396.229 123H392.905L390.289 112.824L387.709 123H384.373ZM401.92 111H404.848V123H401.92V111ZM403.408 109.452C402.976 109.452 402.612 109.312 402.316 109.032C402.02 108.744 401.872 108.384 401.872 107.952C401.872 107.528 402.02 107.172 402.316 106.884C402.612 106.596 402.972 106.452 403.396 106.452C403.82 106.452 404.176 106.596 404.464 106.884C404.76 107.172 404.908 107.528 404.908 107.952C404.908 108.384 404.764 108.744 404.476 109.032C404.188 109.312 403.832 109.452 403.408 109.452ZM416.524 105H419.452V123H416.524V121.5C416.14 122.036 415.656 122.472 415.072 122.808C414.488 123.144 413.812 123.312 413.044 123.312C412.172 123.312 411.356 123.148 410.596 122.82C409.836 122.492 409.164 122.04 408.58 121.464C408.004 120.88 407.552 120.208 407.224 119.448C406.896 118.688 406.732 117.872 406.732 117C406.732 116.128 406.896 115.312 407.224 114.552C407.552 113.792 408.004 113.124 408.58 112.548C409.164 111.964 409.836 111.508 410.596 111.18C411.356 110.852 412.172 110.688 413.044 110.688C413.812 110.688 414.488 110.856 415.072 111.192C415.656 111.52 416.14 111.956 416.524 112.5V105ZM413.08 120.492C413.704 120.492 414.256 120.336 414.736 120.024C415.216 119.712 415.592 119.292 415.864 118.764C416.136 118.228 416.272 117.64 416.272 117C416.272 116.352 416.136 115.764 415.864 115.236C415.592 114.7 415.212 114.276 414.724 113.964C414.244 113.652 413.696 113.496 413.08 113.496C412.464 113.496 411.9 113.656 411.388 113.976C410.884 114.288 410.48 114.708 410.176 115.236C409.88 115.764 409.732 116.352 409.732 117C409.732 117.648 409.884 118.236 410.188 118.764C410.492 119.292 410.896 119.712 411.4 120.024C411.912 120.336 412.472 120.492 413.08 120.492ZM431.051 111H433.979V123.228C433.979 124.092 433.803 124.876 433.451 125.58C433.099 126.292 432.619 126.9 432.011 127.404C431.403 127.916 430.707 128.308 429.923 128.58C429.139 128.86 428.315 129 427.451 129C426.611 129 425.803 128.828 425.027 128.484C424.251 128.14 423.563 127.668 422.963 127.068C422.371 126.476 421.919 125.8 421.607 125.04L424.283 123.828C424.443 124.268 424.683 124.652 425.003 124.98C425.331 125.316 425.707 125.576 426.131 125.76C426.555 125.952 426.995 126.048 427.451 126.048C427.915 126.048 428.359 125.984 428.783 125.856C429.215 125.728 429.603 125.54 429.947 125.292C430.291 125.052 430.559 124.756 430.751 124.404C430.951 124.06 431.051 123.668 431.051 123.228V121.536C430.675 122.064 430.203 122.492 429.635 122.82C429.067 123.148 428.411 123.312 427.667 123.312C426.803 123.312 425.995 123.148 425.243 122.82C424.491 122.492 423.827 122.04 423.251 121.464C422.683 120.88 422.235 120.208 421.907 119.448C421.587 118.688 421.427 117.872 421.427 117C421.427 116.128 421.587 115.312 421.907 114.552C422.235 113.792 422.683 113.124 423.251 112.548C423.827 111.964 424.491 111.508 425.243 111.18C425.995 110.852 426.803 110.688 427.667 110.688C428.411 110.688 429.067 110.852 429.635 111.18C430.203 111.5 430.675 111.924 431.051 112.452V111ZM427.703 120.492C428.319 120.492 428.863 120.336 429.335 120.024C429.815 119.704 430.191 119.28 430.463 118.752C430.735 118.216 430.871 117.632 430.871 117C430.871 116.36 430.731 115.776 430.451 115.248C430.179 114.72 429.803 114.296 429.323 113.976C428.851 113.656 428.311 113.496 427.703 113.496C427.103 113.496 426.555 113.656 426.059 113.976C425.563 114.288 425.167 114.708 424.871 115.236C424.575 115.764 424.427 116.352 424.427 117C424.427 117.648 424.575 118.236 424.871 118.764C425.167 119.292 425.563 119.712 426.059 120.024C426.555 120.336 427.103 120.492 427.703 120.492ZM441.865 123.312C440.761 123.312 439.753 123.028 438.841 122.46C437.937 121.892 437.213 121.128 436.669 120.168C436.133 119.208 435.865 118.148 435.865 116.988C435.865 116.116 436.021 115.3 436.333 114.54C436.645 113.772 437.073 113.1 437.617 112.524C438.169 111.94 438.809 111.484 439.537 111.156C440.265 110.828 441.041 110.664 441.865 110.664C442.801 110.664 443.657 110.864 444.433 111.264C445.217 111.656 445.881 112.196 446.425 112.884C446.969 113.572 447.365 114.356 447.613 115.236C447.861 116.116 447.917 117.036 447.781 117.996H439.009C439.121 118.444 439.305 118.848 439.561 119.208C439.817 119.56 440.141 119.844 440.533 120.06C440.925 120.268 441.369 120.376 441.865 120.384C442.377 120.392 442.841 120.272 443.257 120.024C443.681 119.768 444.033 119.424 444.313 118.992L447.301 119.688C446.813 120.752 446.085 121.624 445.117 122.304C444.149 122.976 443.065 123.312 441.865 123.312ZM438.913 115.8H444.817C444.729 115.32 444.541 114.888 444.253 114.504C443.973 114.112 443.625 113.8 443.209 113.568C442.793 113.336 442.345 113.22 441.865 113.22C441.385 113.22 440.941 113.336 440.533 113.568C440.125 113.792 439.777 114.1 439.489 114.492C439.209 114.876 439.017 115.312 438.913 115.8ZM456.165 113.928H453.837V123H450.909V113.928H449.133V111H450.909V107.232H453.837V111H456.165V113.928Z" fill="#077453"/>
<path d="M288.076 326.471H292.727V345.529H288.076V326.471ZM290.44 324.012C289.753 324.012 289.175 323.79 288.705 323.345C288.235 322.888 288 322.316 288 321.63C288 320.956 288.235 320.391 288.705 319.933C289.175 319.476 289.747 319.247 290.42 319.247C291.094 319.247 291.659 319.476 292.117 319.933C292.587 320.391 292.822 320.956 292.822 321.63C292.822 322.316 292.593 322.888 292.136 323.345C291.678 323.79 291.113 324.012 290.44 324.012Z" fill="#BFFFC8"/>
<path d="M314.003 333.484V345.529H309.353V334.704C309.353 333.954 309.169 333.275 308.8 332.665C308.432 332.042 307.936 331.553 307.314 331.197C306.704 330.829 306.024 330.644 305.274 330.644C304.525 330.644 303.839 330.829 303.216 331.197C302.606 331.553 302.117 332.042 301.748 332.665C301.393 333.275 301.215 333.954 301.215 334.704V345.529H296.564L296.545 326.471H301.196L301.215 328.167C301.863 327.481 302.638 326.941 303.54 326.547C304.442 326.14 305.414 325.937 306.456 325.937C307.841 325.937 309.105 326.28 310.249 326.966C311.392 327.64 312.301 328.548 312.974 329.692C313.66 330.822 314.003 332.087 314.003 333.484Z" fill="#BFFFC8"/>
<path d="M326.309 346.063C324.467 346.063 322.784 345.612 321.259 344.71C319.747 343.808 318.54 342.594 317.638 341.07C316.736 339.545 316.285 337.855 316.285 336C316.285 334.615 316.545 333.319 317.066 332.112C317.587 330.905 318.305 329.844 319.22 328.929C320.147 328.002 321.214 327.277 322.421 326.756C323.628 326.236 324.924 325.975 326.309 325.975C327.529 325.975 328.596 326.248 329.511 326.795C330.426 327.328 331.188 328.027 331.798 328.891V326.471H336.449V354H331.798V343.147C331.188 344.011 330.426 344.716 329.511 345.263C328.596 345.796 327.529 346.063 326.309 346.063ZM326.367 330.454C325.388 330.454 324.492 330.708 323.679 331.216C322.879 331.712 322.237 332.379 321.754 333.217C321.284 334.056 321.049 334.984 321.049 336C321.049 337.029 321.284 337.969 321.754 338.821C322.237 339.659 322.879 340.326 323.679 340.822C324.492 341.317 325.388 341.565 326.367 341.565C327.358 341.565 328.228 341.317 328.978 340.822C329.74 340.314 330.337 339.64 330.769 338.802C331.201 337.95 331.417 337.016 331.417 336C331.417 334.984 331.201 334.056 330.769 333.217C330.337 332.379 329.74 331.712 328.978 331.216C328.215 330.708 327.345 330.454 326.367 330.454Z" fill="#BFFFC8"/>
<path d="M339.67 338.478V326.471H344.32V337.258C344.32 338.008 344.505 338.694 344.873 339.316C345.242 339.926 345.731 340.415 346.341 340.784C346.963 341.14 347.643 341.317 348.38 341.317C349.142 341.317 349.828 341.14 350.438 340.784C351.048 340.415 351.537 339.926 351.906 339.316C352.274 338.694 352.458 338.008 352.458 337.258V326.471H357.109L357.128 345.529H352.478L352.458 343.795C351.798 344.481 351.016 345.028 350.114 345.434C349.212 345.828 348.246 346.025 347.217 346.025C345.832 346.025 344.568 345.688 343.425 345.015C342.281 344.329 341.366 343.42 340.68 342.289C340.007 341.146 339.67 339.875 339.67 338.478Z" fill="#BFFFC8"/>
<path d="M375.053 318H379.704V345.529H375.053V343.147C374.443 343.998 373.675 344.691 372.747 345.224C371.82 345.758 370.746 346.025 369.526 346.025C368.141 346.025 366.845 345.764 365.638 345.244C364.431 344.723 363.364 344.005 362.437 343.09C361.522 342.162 360.804 341.095 360.283 339.888C359.762 338.681 359.502 337.385 359.502 336C359.502 334.615 359.762 333.319 360.283 332.112C360.804 330.905 361.522 329.844 362.437 328.929C363.364 328.002 364.431 327.277 365.638 326.756C366.845 326.236 368.141 325.975 369.526 325.975C370.746 325.975 371.82 326.242 372.747 326.776C373.675 327.296 374.443 327.989 375.053 328.853V318ZM369.584 341.546C370.575 341.546 371.451 341.298 372.214 340.803C372.976 340.307 373.573 339.64 374.005 338.802C374.437 337.95 374.653 337.016 374.653 336C374.653 334.971 374.437 334.037 374.005 333.198C373.573 332.347 372.97 331.674 372.195 331.178C371.432 330.683 370.562 330.435 369.584 330.435C368.605 330.435 367.709 330.689 366.896 331.197C366.096 331.693 365.454 332.36 364.971 333.198C364.501 334.037 364.266 334.971 364.266 336C364.266 337.029 364.508 337.963 364.99 338.802C365.473 339.64 366.115 340.307 366.915 340.803C367.729 341.298 368.618 341.546 369.584 341.546Z" fill="#BFFFC8"/>
<path d="M124.627 207.312C123.491 207.312 122.423 207.088 121.423 206.64C120.423 206.184 119.543 205.556 118.783 204.756C118.023 203.956 117.427 203.032 116.995 201.984C116.563 200.928 116.347 199.8 116.347 198.6C116.347 197.4 116.563 196.276 116.995 195.228C117.427 194.172 118.023 193.244 118.783 192.444C119.543 191.644 120.423 191.02 121.423 190.572C122.423 190.116 123.491 189.888 124.627 189.888C125.771 189.888 126.843 190.116 127.843 190.572C128.843 191.02 129.723 191.644 130.483 192.444C131.243 193.244 131.835 194.172 132.259 195.228C132.691 196.276 132.907 197.4 132.907 198.6C132.907 199.8 132.691 200.928 132.259 201.984C131.835 203.032 131.243 203.956 130.483 204.756C129.723 205.556 128.843 206.184 127.843 206.64C126.843 207.088 125.771 207.312 124.627 207.312ZM124.627 204.384C125.363 204.384 126.055 204.232 126.703 203.928C127.351 203.624 127.919 203.208 128.407 202.68C128.903 202.144 129.287 201.528 129.559 200.832C129.839 200.136 129.979 199.392 129.979 198.6C129.979 197.808 129.839 197.064 129.559 196.368C129.279 195.664 128.891 195.048 128.395 194.52C127.907 193.992 127.339 193.576 126.691 193.272C126.051 192.968 125.363 192.816 124.627 192.816C123.891 192.816 123.199 192.968 122.551 193.272C121.903 193.576 121.331 193.996 120.835 194.532C120.347 195.06 119.963 195.672 119.683 196.368C119.411 197.064 119.275 197.808 119.275 198.6C119.275 199.4 119.415 200.148 119.695 200.844C119.975 201.54 120.359 202.156 120.847 202.692C121.343 203.22 121.911 203.636 122.551 203.94C123.199 204.236 123.891 204.384 124.627 204.384ZM146.194 199.416V207H143.266V200.184C143.266 199.712 143.15 199.284 142.918 198.9C142.686 198.508 142.374 198.2 141.982 197.976C141.598 197.744 141.17 197.628 140.698 197.628C140.226 197.628 139.794 197.744 139.402 197.976C139.018 198.2 138.71 198.508 138.478 198.9C138.254 199.284 138.142 199.712 138.142 200.184V207H135.214L135.202 195H138.13L138.142 196.068C138.55 195.636 139.038 195.296 139.606 195.048C140.174 194.792 140.786 194.664 141.442 194.664C142.314 194.664 143.11 194.88 143.83 195.312C144.55 195.736 145.122 196.308 145.546 197.028C145.978 197.74 146.194 198.536 146.194 199.416ZM148.585 198.336H156.265V201.264H148.585V198.336ZM159.167 207L159.155 195H162.083L162.095 196.068C162.503 195.636 162.991 195.296 163.559 195.048C164.127 194.792 164.739 194.664 165.395 194.664C165.835 194.664 166.275 194.728 166.715 194.856L165.563 197.808C165.259 197.688 164.955 197.628 164.651 197.628C164.179 197.628 163.747 197.744 163.355 197.976C162.971 198.2 162.663 198.508 162.431 198.9C162.207 199.284 162.095 199.712 162.095 200.184V207H159.167ZM176.547 195H179.475V207H176.547L176.415 205.512C176.087 206.048 175.651 206.484 175.107 206.82C174.571 207.148 173.935 207.312 173.199 207.312C172.311 207.312 171.479 207.144 170.703 206.808C169.927 206.472 169.243 206.008 168.651 205.416C168.067 204.824 167.607 204.14 167.271 203.364C166.943 202.588 166.779 201.756 166.779 200.868C166.779 200.012 166.935 199.208 167.247 198.456C167.567 197.704 168.011 197.044 168.579 196.476C169.147 195.908 169.803 195.464 170.547 195.144C171.291 194.824 172.091 194.664 172.947 194.664C173.739 194.664 174.447 194.84 175.071 195.192C175.703 195.544 176.239 195.992 176.679 196.536L176.547 195ZM173.127 204.492C173.751 204.492 174.303 204.336 174.783 204.024C175.263 203.712 175.639 203.292 175.911 202.764C176.183 202.228 176.319 201.64 176.319 201C176.319 200.352 176.183 199.764 175.911 199.236C175.639 198.7 175.259 198.276 174.771 197.964C174.291 197.652 173.743 197.496 173.127 197.496C172.511 197.496 171.947 197.656 171.435 197.976C170.931 198.288 170.527 198.708 170.223 199.236C169.927 199.764 169.779 200.352 169.779 201C169.779 201.648 169.931 202.236 170.235 202.764C170.539 203.292 170.943 203.712 171.447 204.024C171.959 204.336 172.519 204.492 173.127 204.492ZM181.866 207V195H184.794V196.068C185.202 195.636 185.69 195.296 186.258 195.048C186.826 194.792 187.438 194.664 188.094 194.664C188.926 194.664 189.69 194.86 190.386 195.252C191.09 195.644 191.65 196.168 192.066 196.824C192.49 196.168 193.05 195.644 193.746 195.252C194.442 194.86 195.206 194.664 196.038 194.664C196.918 194.664 197.714 194.88 198.426 195.312C199.146 195.736 199.718 196.308 200.142 197.028C200.574 197.74 200.79 198.536 200.79 199.416V207H197.862V200.196C197.862 199.732 197.746 199.308 197.514 198.924C197.29 198.532 196.986 198.22 196.602 197.988C196.226 197.748 195.802 197.628 195.33 197.628C194.858 197.628 194.43 197.744 194.046 197.976C193.67 198.2 193.366 198.504 193.134 198.888C192.902 199.272 192.786 199.708 192.786 200.196V207H189.858V200.196C189.858 199.708 189.746 199.272 189.522 198.888C189.298 198.504 188.994 198.2 188.61 197.976C188.226 197.744 187.798 197.628 187.326 197.628C186.862 197.628 186.438 197.748 186.054 197.988C185.67 198.22 185.362 198.532 185.13 198.924C184.906 199.308 184.794 199.732 184.794 200.196V207H181.866ZM206.122 213H203.194V195H206.122V196.524C206.514 195.98 206.994 195.54 207.562 195.204C208.138 194.86 208.81 194.688 209.578 194.688C210.458 194.688 211.278 194.852 212.038 195.18C212.798 195.508 213.466 195.964 214.042 196.548C214.626 197.124 215.078 197.792 215.398 198.552C215.726 199.312 215.89 200.128 215.89 201C215.89 201.872 215.726 202.692 215.398 203.46C215.078 204.228 214.626 204.904 214.042 205.488C213.466 206.064 212.798 206.516 212.038 206.844C211.278 207.172 210.458 207.336 209.578 207.336C208.81 207.336 208.138 207.168 207.562 206.832C206.994 206.488 206.514 206.044 206.122 205.5V213ZM209.542 197.508C208.934 197.508 208.39 197.668 207.91 197.988C207.43 198.3 207.054 198.72 206.782 199.248C206.51 199.776 206.374 200.36 206.374 201C206.374 201.64 206.51 202.228 206.782 202.764C207.054 203.292 207.43 203.716 207.91 204.036C208.39 204.348 208.934 204.504 209.542 204.504C210.158 204.504 210.722 204.348 211.234 204.036C211.746 203.724 212.154 203.304 212.458 202.776C212.762 202.24 212.914 201.648 212.914 201C212.914 200.36 212.762 199.776 212.458 199.248C212.154 198.72 211.746 198.3 211.234 197.988C210.73 197.668 210.166 197.508 209.542 197.508Z" fill="#077453"/>
<path d="M38.5877 459.312C37.4517 459.312 36.3837 459.088 35.3837 458.64C34.3837 458.184 33.5037 457.556 32.7437 456.756C31.9837 455.956 31.3877 455.032 30.9557 453.984C30.5237 452.928 30.3077 451.8 30.3077 450.6C30.3077 449.4 30.5237 448.276 30.9557 447.228C31.3877 446.172 31.9837 445.244 32.7437 444.444C33.5037 443.644 34.3837 443.02 35.3837 442.572C36.3837 442.116 37.4517 441.888 38.5877 441.888C39.7317 441.888 40.8037 442.116 41.8037 442.572C42.8037 443.02 43.6837 443.644 44.4437 444.444C45.2037 445.244 45.7957 446.172 46.2197 447.228C46.6517 448.276 46.8677 449.4 46.8677 450.6C46.8677 451.8 46.6517 452.928 46.2197 453.984C45.7957 455.032 45.2037 455.956 44.4437 456.756C43.6837 457.556 42.8037 458.184 41.8037 458.64C40.8037 459.088 39.7317 459.312 38.5877 459.312ZM38.5877 456.384C39.3237 456.384 40.0157 456.232 40.6637 455.928C41.3117 455.624 41.8797 455.208 42.3677 454.68C42.8637 454.144 43.2477 453.528 43.5197 452.832C43.7997 452.136 43.9397 451.392 43.9397 450.6C43.9397 449.808 43.7997 449.064 43.5197 448.368C43.2397 447.664 42.8517 447.048 42.3557 446.52C41.8677 445.992 41.2997 445.576 40.6517 445.272C40.0117 444.968 39.3237 444.816 38.5877 444.816C37.8517 444.816 37.1597 444.968 36.5117 445.272C35.8637 445.576 35.2917 445.996 34.7957 446.532C34.3077 447.06 33.9237 447.672 33.6437 448.368C33.3717 449.064 33.2357 449.808 33.2357 450.6C33.2357 451.4 33.3757 452.148 33.6557 452.844C33.9357 453.54 34.3197 454.156 34.8077 454.692C35.3037 455.22 35.8717 455.636 36.5117 455.94C37.1597 456.236 37.8517 456.384 38.5877 456.384ZM52.6524 444.48V447H55.9284V449.928H52.6524V459H49.7244V449.928H48.4164V447H49.7244V444.48C49.7244 443.792 49.8924 443.164 50.2284 442.596C50.5724 442.02 51.0324 441.564 51.6084 441.228C52.1844 440.884 52.8204 440.712 53.5164 440.712C54.0204 440.712 54.5204 440.816 55.0164 441.024C55.5124 441.232 55.9524 441.552 56.3364 441.984L54.2244 444.048C54.1524 443.912 54.0484 443.812 53.9124 443.748C53.7844 443.676 53.6524 443.64 53.5164 443.64C53.2844 443.64 53.0804 443.724 52.9044 443.892C52.7364 444.052 52.6524 444.248 52.6524 444.48ZM61.5118 444.48V447H64.7878V449.928H61.5118V459H58.5838V449.928H57.2758V447H58.5838V444.48C58.5838 443.792 58.7518 443.164 59.0878 442.596C59.4318 442.02 59.8918 441.564 60.4678 441.228C61.0438 440.884 61.6798 440.712 62.3758 440.712C62.8798 440.712 63.3798 440.816 63.8758 441.024C64.3718 441.232 64.8118 441.552 65.1958 441.984L63.0838 444.048C63.0118 443.912 62.9078 443.812 62.7718 443.748C62.6438 443.676 62.5118 443.64 62.3758 443.64C62.1438 443.64 61.9398 443.724 61.7638 443.892C61.5958 444.052 61.5118 444.248 61.5118 444.48ZM66.6236 450.336H74.3036V453.264H66.6236V450.336ZM77.2059 459L77.1939 447H80.1219L80.1339 448.068C80.5419 447.636 81.0299 447.296 81.5979 447.048C82.1659 446.792 82.7779 446.664 83.4339 446.664C83.8739 446.664 84.3139 446.728 84.7539 446.856L83.6019 449.808C83.2979 449.688 82.9939 449.628 82.6899 449.628C82.2179 449.628 81.7859 449.744 81.3939 449.976C81.0099 450.2 80.7019 450.508 80.4699 450.9C80.2459 451.284 80.1339 451.712 80.1339 452.184V459H77.2059ZM94.5857 447H97.5137V459H94.5857L94.4537 457.512C94.1257 458.048 93.6897 458.484 93.1457 458.82C92.6097 459.148 91.9737 459.312 91.2377 459.312C90.3497 459.312 89.5177 459.144 88.7417 458.808C87.9657 458.472 87.2817 458.008 86.6897 457.416C86.1057 456.824 85.6457 456.14 85.3097 455.364C84.9817 454.588 84.8177 453.756 84.8177 452.868C84.8177 452.012 84.9737 451.208 85.2857 450.456C85.6057 449.704 86.0497 449.044 86.6177 448.476C87.1857 447.908 87.8417 447.464 88.5857 447.144C89.3297 446.824 90.1297 446.664 90.9857 446.664C91.7777 446.664 92.4857 446.84 93.1097 447.192C93.7417 447.544 94.2777 447.992 94.7177 448.536L94.5857 447ZM91.1657 456.492C91.7897 456.492 92.3417 456.336 92.8217 456.024C93.3017 455.712 93.6777 455.292 93.9497 454.764C94.2217 454.228 94.3577 453.64 94.3577 453C94.3577 452.352 94.2217 451.764 93.9497 451.236C93.6777 450.7 93.2977 450.276 92.8097 449.964C92.3297 449.652 91.7817 449.496 91.1657 449.496C90.5497 449.496 89.9857 449.656 89.4737 449.976C88.9697 450.288 88.5657 450.708 88.2617 451.236C87.9657 451.764 87.8177 452.352 87.8177 453C87.8177 453.648 87.9697 454.236 88.2737 454.764C88.5777 455.292 88.9817 455.712 89.4857 456.024C89.9977 456.336 90.5577 456.492 91.1657 456.492ZM99.9048 459V447H102.833V448.068C103.241 447.636 103.729 447.296 104.297 447.048C104.865 446.792 105.477 446.664 106.133 446.664C106.965 446.664 107.729 446.86 108.425 447.252C109.129 447.644 109.689 448.168 110.105 448.824C110.529 448.168 111.089 447.644 111.785 447.252C112.481 446.86 113.245 446.664 114.077 446.664C114.957 446.664 115.753 446.88 116.465 447.312C117.185 447.736 117.757 448.308 118.181 449.028C118.613 449.74 118.829 450.536 118.829 451.416V459H115.901V452.196C115.901 451.732 115.785 451.308 115.553 450.924C115.329 450.532 115.025 450.22 114.641 449.988C114.265 449.748 113.841 449.628 113.369 449.628C112.897 449.628 112.469 449.744 112.085 449.976C111.709 450.2 111.405 450.504 111.173 450.888C110.941 451.272 110.825 451.708 110.825 452.196V459H107.897V452.196C107.897 451.708 107.785 451.272 107.561 450.888C107.337 450.504 107.033 450.2 106.649 449.976C106.265 449.744 105.837 449.628 105.365 449.628C104.901 449.628 104.477 449.748 104.093 449.988C103.709 450.22 103.401 450.532 103.169 450.924C102.945 451.308 102.833 451.732 102.833 452.196V459H99.9048ZM124.161 465H121.233V447H124.161V448.524C124.553 447.98 125.033 447.54 125.601 447.204C126.177 446.86 126.849 446.688 127.617 446.688C128.497 446.688 129.317 446.852 130.077 447.18C130.837 447.508 131.505 447.964 132.081 448.548C132.665 449.124 133.117 449.792 133.437 450.552C133.765 451.312 133.929 452.128 133.929 453C133.929 453.872 133.765 454.692 133.437 455.46C133.117 456.228 132.665 456.904 132.081 457.488C131.505 458.064 130.837 458.516 130.077 458.844C129.317 459.172 128.497 459.336 127.617 459.336C126.849 459.336 126.177 459.168 125.601 458.832C125.033 458.488 124.553 458.044 124.161 457.5V465ZM127.581 449.508C126.973 449.508 126.429 449.668 125.949 449.988C125.469 450.3 125.093 450.72 124.821 451.248C124.549 451.776 124.413 452.36 124.413 453C124.413 453.64 124.549 454.228 124.821 454.764C125.093 455.292 125.469 455.716 125.949 456.036C126.429 456.348 126.973 456.504 127.581 456.504C128.197 456.504 128.761 456.348 129.273 456.036C129.785 455.724 130.193 455.304 130.497 454.776C130.801 454.24 130.953 453.648 130.953 453C130.953 452.36 130.801 451.776 130.497 451.248C130.193 450.72 129.785 450.3 129.273 449.988C128.769 449.668 128.205 449.508 127.581 449.508Z" fill="#077453"/>
<path d="M534.46 375V358.2H544.996V361.128H537.388V364.536H543.424V367.464H537.388V372.072H544.996V375H534.46ZM546.472 375L550.864 368.976L546.508 362.988H550.12L552.664 366.48L555.22 362.988H558.832L554.476 368.976L558.868 375H555.256L552.664 371.448L550.084 375H546.472ZM567.47 371.388L570.11 372.816C569.558 373.568 568.866 374.172 568.034 374.628C567.202 375.084 566.294 375.312 565.31 375.312C564.206 375.312 563.198 375.028 562.286 374.46C561.382 373.892 560.658 373.132 560.114 372.18C559.578 371.22 559.31 370.16 559.31 369C559.31 368.12 559.466 367.3 559.778 366.54C560.09 365.772 560.518 365.1 561.062 364.524C561.614 363.94 562.254 363.484 562.982 363.156C563.71 362.828 564.486 362.664 565.31 362.664C566.294 362.664 567.202 362.892 568.034 363.348C568.866 363.804 569.558 364.416 570.11 365.184L567.47 366.6C567.19 366.28 566.858 366.032 566.474 365.856C566.098 365.68 565.71 365.592 565.31 365.592C564.734 365.592 564.214 365.752 563.75 366.072C563.286 366.384 562.918 366.8 562.646 367.32C562.374 367.832 562.238 368.392 562.238 369C562.238 369.6 562.374 370.16 562.646 370.68C562.918 371.192 563.286 371.604 563.75 371.916C564.214 372.228 564.734 372.384 565.31 372.384C565.726 372.384 566.122 372.296 566.498 372.12C566.874 371.936 567.198 371.692 567.47 371.388ZM582.881 367.416V375H579.953V368.184C579.953 367.712 579.837 367.284 579.605 366.9C579.373 366.508 579.061 366.2 578.669 365.976C578.285 365.744 577.857 365.628 577.385 365.628C576.913 365.628 576.481 365.744 576.089 365.976C575.705 366.2 575.397 366.508 575.165 366.9C574.941 367.284 574.829 367.712 574.829 368.184V375H571.901L571.889 357H574.817L574.829 364.068C575.237 363.636 575.725 363.296 576.293 363.048C576.861 362.792 577.473 362.664 578.129 362.664C579.001 362.664 579.797 362.88 580.517 363.312C581.237 363.736 581.809 364.308 582.233 365.028C582.665 365.74 582.881 366.536 582.881 367.416ZM594.086 363H597.014V375H594.086L593.954 373.512C593.626 374.048 593.19 374.484 592.646 374.82C592.11 375.148 591.474 375.312 590.738 375.312C589.85 375.312 589.018 375.144 588.242 374.808C587.466 374.472 586.782 374.008 586.19 373.416C585.606 372.824 585.146 372.14 584.81 371.364C584.482 370.588 584.318 369.756 584.318 368.868C584.318 368.012 584.474 367.208 584.786 366.456C585.106 365.704 585.55 365.044 586.118 364.476C586.686 363.908 587.342 363.464 588.086 363.144C588.83 362.824 589.63 362.664 590.486 362.664C591.278 362.664 591.986 362.84 592.61 363.192C593.242 363.544 593.778 363.992 594.218 364.536L594.086 363ZM590.666 372.492C591.29 372.492 591.842 372.336 592.322 372.024C592.802 371.712 593.178 371.292 593.45 370.764C593.722 370.228 593.858 369.64 593.858 369C593.858 368.352 593.722 367.764 593.45 367.236C593.178 366.7 592.798 366.276 592.31 365.964C591.83 365.652 591.282 365.496 590.666 365.496C590.05 365.496 589.486 365.656 588.974 365.976C588.47 366.288 588.066 366.708 587.762 367.236C587.466 367.764 587.318 368.352 587.318 369C587.318 369.648 587.47 370.236 587.774 370.764C588.078 371.292 588.482 371.712 588.986 372.024C589.498 372.336 590.058 372.492 590.666 372.492ZM610.397 367.416V375H607.469V368.184C607.469 367.712 607.353 367.284 607.121 366.9C606.889 366.508 606.577 366.2 606.185 365.976C605.801 365.744 605.373 365.628 604.901 365.628C604.429 365.628 603.997 365.744 603.605 365.976C603.221 366.2 602.913 366.508 602.681 366.9C602.457 367.284 602.345 367.712 602.345 368.184V375H599.417L599.405 363H602.333L602.345 364.068C602.753 363.636 603.241 363.296 603.809 363.048C604.377 362.792 604.989 362.664 605.645 362.664C606.517 362.664 607.313 362.88 608.033 363.312C608.753 363.736 609.325 364.308 609.749 365.028C610.181 365.74 610.397 366.536 610.397 367.416ZM621.457 363H624.385V375.228C624.385 376.092 624.209 376.876 623.857 377.58C623.505 378.292 623.025 378.9 622.417 379.404C621.809 379.916 621.113 380.308 620.329 380.58C619.545 380.86 618.721 381 617.857 381C617.017 381 616.209 380.828 615.433 380.484C614.657 380.14 613.969 379.668 613.369 379.068C612.777 378.476 612.325 377.8 612.013 377.04L614.689 375.828C614.849 376.268 615.089 376.652 615.409 376.98C615.737 377.316 616.113 377.576 616.537 377.76C616.961 377.952 617.401 378.048 617.857 378.048C618.321 378.048 618.765 377.984 619.189 377.856C619.621 377.728 620.009 377.54 620.353 377.292C620.697 377.052 620.965 376.756 621.157 376.404C621.357 376.06 621.457 375.668 621.457 375.228V373.536C621.081 374.064 620.609 374.492 620.041 374.82C619.473 375.148 618.817 375.312 618.073 375.312C617.209 375.312 616.401 375.148 615.649 374.82C614.897 374.492 614.233 374.04 613.657 373.464C613.089 372.88 612.641 372.208 612.313 371.448C611.993 370.688 611.833 369.872 611.833 369C611.833 368.128 611.993 367.312 612.313 366.552C612.641 365.792 613.089 365.124 613.657 364.548C614.233 363.964 614.897 363.508 615.649 363.18C616.401 362.852 617.209 362.688 618.073 362.688C618.817 362.688 619.473 362.852 620.041 363.18C620.609 363.5 621.081 363.924 621.457 364.452V363ZM618.109 372.492C618.725 372.492 619.269 372.336 619.741 372.024C620.221 371.704 620.597 371.28 620.869 370.752C621.141 370.216 621.277 369.632 621.277 369C621.277 368.36 621.137 367.776 620.857 367.248C620.585 366.72 620.209 366.296 619.729 365.976C619.257 365.656 618.717 365.496 618.109 365.496C617.509 365.496 616.961 365.656 616.465 365.976C615.969 366.288 615.573 366.708 615.277 367.236C614.981 367.764 614.833 368.352 614.833 369C614.833 369.648 614.981 370.236 615.277 370.764C615.573 371.292 615.969 371.712 616.465 372.024C616.961 372.336 617.509 372.492 618.109 372.492ZM632.271 375.312C631.167 375.312 630.159 375.028 629.247 374.46C628.343 373.892 627.619 373.128 627.075 372.168C626.539 371.208 626.271 370.148 626.271 368.988C626.271 368.116 626.427 367.3 626.739 366.54C627.051 365.772 627.479 365.1 628.023 364.524C628.575 363.94 629.215 363.484 629.943 363.156C630.671 362.828 631.447 362.664 632.271 362.664C633.207 362.664 634.063 362.864 634.839 363.264C635.623 363.656 636.287 364.196 636.831 364.884C637.375 365.572 637.771 366.356 638.019 367.236C638.267 368.116 638.323 369.036 638.187 369.996H629.415C629.527 370.444 629.711 370.848 629.967 371.208C630.223 371.56 630.547 371.844 630.939 372.06C631.331 372.268 631.775 372.376 632.271 372.384C632.783 372.392 633.247 372.272 633.663 372.024C634.087 371.768 634.439 371.424 634.719 370.992L637.707 371.688C637.219 372.752 636.491 373.624 635.523 374.304C634.555 374.976 633.471 375.312 632.271 375.312ZM629.319 367.8H635.223C635.135 367.32 634.947 366.888 634.659 366.504C634.379 366.112 634.031 365.8 633.615 365.568C633.199 365.336 632.751 365.22 632.271 365.22C631.791 365.22 631.347 365.336 630.939 365.568C630.531 365.792 630.183 366.1 629.895 366.492C629.615 366.876 629.423 367.312 629.319 367.8Z" fill="#077453"/>
<path fill-rule="evenodd" clip-rule="evenodd" d="M579.708 299.132C583.418 295.422 589.433 295.422 593.143 299.132L594.558 297.717C590.066 293.226 582.785 293.226 578.294 297.717L579.708 299.132ZM579.706 330.868C583.416 334.578 589.431 334.578 593.141 330.868L594.556 332.282C590.065 336.773 582.783 336.773 578.292 332.282L579.706 330.868ZM610.62 305.022C608.647 303.704 606.326 303 603.953 303C600.771 303 597.718 304.264 595.468 306.515C593.217 308.765 591.953 311.817 591.953 315C591.953 317.373 592.657 319.693 593.975 321.667C595.294 323.64 597.168 325.178 599.361 326.087C601.554 326.995 603.966 327.232 606.294 326.769C608.622 326.306 610.76 325.163 612.438 323.485C614.117 321.807 615.26 319.669 615.723 317.341C616.186 315.013 615.948 312.6 615.04 310.408C614.131 308.215 612.593 306.341 610.62 305.022ZM607.109 310.294L603.952 305.577L600.795 310.282L597.638 315L603.952 318.193L610.267 315.012L607.109 310.294ZM597.988 316.282L603.952 319.464L609.916 316.282L603.952 324.423L597.988 316.282ZM569 327C575.627 327 581 321.627 581 315C581 308.373 575.627 303 569 303C562.373 303 557 308.373 557 315C557 321.627 562.373 327 569 327ZM570.441 316.037V316.035C570.359 316.041 569.933 316.067 568.985 316.067C568.227 316.067 567.694 316.044 567.506 316.035V316.037C564.59 315.909 562.414 315.401 562.414 314.794C562.414 314.187 564.59 313.679 567.506 313.549V315.532C567.697 315.545 568.243 315.578 568.997 315.578C569.903 315.578 570.356 315.54 570.441 315.533V313.55C573.351 313.68 575.522 314.188 575.522 314.794C575.522 315.401 573.351 315.908 570.441 316.037ZM570.441 313.344V311.57H574.502V308.864H563.446V311.57H567.506V313.343C564.206 313.495 561.725 314.149 561.725 314.932C561.725 315.715 564.206 316.368 567.506 316.52V322.207H570.441V316.519C573.736 316.367 576.212 315.714 576.212 314.932C576.212 314.15 573.736 313.496 570.441 313.344Z" fill="#077453"/>
<path fill-rule="evenodd" clip-rule="evenodd" d="M396 41C393.239 41 391 43.2386 391 46V50H445V46C445 43.2386 442.761 41 440 41H396ZM398.5 47C399.328 47 400 46.3284 400 45.5C400 44.6716 399.328 44 398.5 44C397.672 44 397 44.6716 397 45.5C397 46.3284 397.672 47 398.5 47ZM409 45.5C409 46.3284 408.328 47 407.5 47C406.672 47 406 46.3284 406 45.5C406 44.6716 406.672 44 407.5 44C408.328 44 409 44.6716 409 45.5ZM403 47C403.828 47 404.5 46.3284 404.5 45.5C404.5 44.6716 403.828 44 403 44C402.172 44 401.5 44.6716 401.5 45.5C401.5 46.3284 402.172 47 403 47ZM440 85H396C394.343 85 393 83.6569 393 82V54H443V82C443 83.6569 441.657 85 440 85ZM396 87C393.239 87 391 84.7614 391 82V54V52H393H443H445V54V82C445 84.7614 442.761 87 440 87H396ZM415.258 75.652H413.076L420.736 61H422.918L415.258 75.652ZM398.5 70.526V68.854L411.331 63.398V65.532L401.599 69.69L411.331 73.65V75.784L398.5 70.526ZM424.669 73.65V75.784L437.5 70.526V68.854L424.669 63.398V65.532L434.401 69.69L424.669 73.65Z" fill="#077453"/>
<path fill-rule="evenodd" clip-rule="evenodd" d="M307 550C307 547.239 309.239 545 312 545H356C358.761 545 361 547.239 361 550V554H307V550ZM316 549.5C316 550.328 315.328 551 314.5 551C313.672 551 313 550.328 313 549.5C313 548.672 313.672 548 314.5 548C315.328 548 316 548.672 316 549.5ZM323.5 551C324.328 551 325 550.328 325 549.5C325 548.672 324.328 548 323.5 548C322.672 548 322 548.672 322 549.5C322 550.328 322.672 551 323.5 551ZM320.5 549.5C320.5 550.328 319.828 551 319 551C318.172 551 317.5 550.328 317.5 549.5C317.5 548.672 318.172 548 319 548C319.828 548 320.5 548.672 320.5 549.5ZM356 589H312C310.343 589 309 587.657 309 586V558H359V586C359 587.657 357.657 589 356 589ZM312 591C309.239 591 307 588.761 307 586V558V556H309H359H361V558V586C361 588.761 358.761 591 356 591H312ZM355 568L328 568V565L355 565V568ZM340 572H313V575H340V572ZM355 572H343V575H355V572ZM313 565L313 568L325 568V565L313 565ZM355 582L328 582V579L355 579V582ZM313 579L313 582H325V579H313Z" fill="#077453"/>
<path fill-rule="evenodd" clip-rule="evenodd" d="M159.706 131.132C163.416 127.422 169.431 127.422 173.141 131.132L174.556 129.717C170.065 125.226 162.783 125.226 158.292 129.717L159.706 131.132ZM159.706 162.868C163.416 166.578 169.431 166.578 173.141 162.868L174.556 164.283C170.065 168.774 162.783 168.774 158.292 164.283L159.706 162.868ZM196 147C196 153.627 190.627 159 184 159C177.373 159 172 153.627 172 147C172 140.373 177.373 135 184 135C190.627 135 196 140.373 196 147ZM186.979 142.26C188.717 142.859 189.988 143.756 189.738 145.425C189.557 146.647 188.881 147.239 187.981 147.446C189.216 148.089 189.844 149.075 189.245 150.784C188.502 152.907 186.738 153.086 184.391 152.642L183.821 154.924L182.446 154.582L183.008 152.33C182.651 152.24 182.286 152.147 181.911 152.045L181.347 154.307L179.972 153.964L180.541 151.678C180.406 151.643 180.27 151.607 180.132 151.572L180.132 151.571L180.132 151.571L180.132 151.571L180.131 151.571C179.943 151.522 179.753 151.473 179.561 151.424L177.77 150.978L178.453 149.403C178.453 149.403 179.467 149.672 179.453 149.652C179.843 149.748 180.016 149.494 180.084 149.325L180.984 145.717L181.13 145.752C181.074 145.731 181.024 145.717 180.986 145.707L181.628 143.131C181.645 142.838 181.544 142.469 180.987 142.33C181.008 142.316 179.987 142.082 179.987 142.082L180.353 140.612L182.251 141.085L182.25 141.093C182.516 141.159 182.79 141.222 183.069 141.286L183.129 141.3L183.693 139.039L185.068 139.382L184.515 141.598L184.538 141.604C184.901 141.686 185.264 141.769 185.618 141.858L186.167 139.656L187.543 139.999L186.979 142.26ZM182.626 150.458C183.749 150.755 186.204 151.403 186.593 149.835C186.993 148.233 184.615 147.698 183.453 147.437L183.453 147.437L183.452 147.437C183.322 147.408 183.208 147.382 183.114 147.359L182.357 150.388C182.434 150.407 182.524 150.431 182.624 150.458L182.626 150.458L182.626 150.458ZM183.686 146.031C184.623 146.281 186.664 146.826 187.019 145.4C187.383 143.943 185.398 143.504 184.429 143.289L184.428 143.289C184.319 143.265 184.223 143.244 184.145 143.224L183.46 145.971C183.525 145.988 183.601 146.008 183.686 146.031ZM161 147C161 153.627 155.627 159 149 159C142.373 159 137 153.627 137 147C137 140.373 142.373 135 149 135C155.627 135 161 140.373 161 147ZM145.447 153.035C144.684 152.317 144.215 151.283 144.039 149.933H146.019C146.122 150.652 146.378 151.209 146.789 151.605C147.17 151.928 147.588 152.141 148.043 152.243V147.909C145.696 147.484 144.523 146.149 144.523 143.905C144.523 143.304 144.618 142.739 144.809 142.211C145 141.683 145.286 141.229 145.667 140.847C146.283 140.231 147.075 139.857 148.043 139.725V138.449H149.979V139.725C151.196 139.901 152.15 140.415 152.839 141.265C153.455 142.057 153.822 143.025 153.939 144.169L153.895 144.191H151.981C151.908 143.619 151.754 143.15 151.519 142.783C151.167 142.211 150.654 141.852 149.979 141.705V146.127C150.918 146.289 151.717 146.567 152.377 146.963C153.433 147.638 153.961 148.679 153.961 150.087C153.961 150.645 153.851 151.18 153.631 151.693C153.426 152.192 153.125 152.632 152.729 153.013C151.996 153.732 151.079 154.165 149.979 154.311V155.543H148.043V154.267C146.972 154.091 146.107 153.681 145.447 153.035ZM146.745 145.093C147.068 145.504 147.5 145.768 148.043 145.885V141.727C147.456 141.845 147.009 142.094 146.701 142.475C146.408 142.842 146.261 143.26 146.261 143.729C146.261 144.228 146.422 144.683 146.745 145.093ZM151.673 148.877C151.409 148.569 150.844 148.327 149.979 148.151V152.309C150.595 152.177 151.094 151.891 151.475 151.451C151.871 151.011 152.069 150.535 152.069 150.021C152.069 149.611 151.937 149.229 151.673 148.877Z" fill="#077453"/>
<path fill-rule="evenodd" clip-rule="evenodd" d="M75.7063 383.132C79.4163 379.422 85.4314 379.422 89.1413 383.132L90.5556 381.717C86.0645 377.226 78.7831 377.226 74.2921 381.717L75.7063 383.132ZM75.7063 414.868C79.4163 418.578 85.4314 418.578 89.1413 414.868L90.5556 416.283C86.0645 420.774 78.7831 420.774 74.2921 416.283L75.7063 414.868ZM71.62 389.022C69.6466 387.704 67.3265 387 64.9531 387C61.7705 387 58.7183 388.264 56.4678 390.515C54.2174 392.765 52.9531 395.817 52.9531 399C52.9531 401.373 53.6569 403.693 54.9755 405.667C56.2941 407.64 58.1682 409.178 60.3609 410.087C62.5536 410.995 64.9664 411.232 67.2942 410.769C69.622 410.306 71.7602 409.163 73.4384 407.485C75.1166 405.807 76.2595 403.669 76.7225 401.341C77.1856 399.013 76.9479 396.6 76.0397 394.408C75.1314 392.215 73.5934 390.341 71.62 389.022ZM64.9541 390.504L64.9551 390.505V390.504L67.8013 394.745L70.6474 398.999L70.6364 398.995L70.6379 398.997L70.6474 399L70.6421 399.003L70.6465 399.01L64.9541 401.877L60.1194 399.432L59.2617 399L59.2636 399L59.2617 398.999L62.1079 394.745L64.9541 390.504ZM59.5774 400.154L59.5817 400.156L59.5801 400.154L64.9554 403.022L70.3308 400.154L70.3231 400.165L70.3426 400.154L64.9568 407.502V407.504L64.9559 407.503L64.9551 407.504V407.502L61.3552 402.581L59.5774 400.154ZM100 411C106.627 411 112 405.627 112 399C112 392.373 106.627 387 100 387C93.3726 387 88 392.373 88 399C88 405.627 93.3726 411 100 411ZM91.7309 398.469H93.8228C93.8084 398.662 93.8013 398.836 93.8013 399.001C93.8013 399.217 93.8115 399.438 93.8315 399.66H92.8158H92.7755L92.7585 399.696L91.7663 401.823L91.7242 401.914H91.8242H94.4124C95.6069 404.628 98.3256 406.38 101.351 406.38C102.874 406.38 104.342 405.938 105.598 405.102L105.626 405.083V405.049V402.442V402.273L105.514 402.4C104.524 403.527 103.1 404.173 101.606 404.173C99.889 404.173 98.2956 403.331 97.3198 401.914H102.707H102.748L102.765 401.877L103.757 399.75L103.799 399.66H103.699H96.4456C96.4128 399.42 96.396 399.178 96.396 398.939C96.396 398.783 96.403 398.626 96.4171 398.469H104.314H104.355L104.372 398.432L105.363 396.305L105.406 396.215H105.305H97.1585C98.1019 394.664 99.7962 393.705 101.606 393.705C103.177 393.705 104.648 394.407 105.643 395.63L105.707 395.709L105.751 395.617L106.612 393.77L106.631 393.728L106.598 393.696C105.182 392.358 103.318 391.621 101.351 391.621C99.814 391.621 98.3357 392.07 97.0747 392.919C95.8555 393.741 94.9174 394.88 94.3603 396.215H92.7228H92.6818L92.6648 396.251L91.6733 398.378L91.6309 398.469H91.7309Z" fill="#077453"/>
</svg>
