<svg width="101" height="25" viewBox="0 0 101 25" fill="none" xmlns="http://www.w3.org/2000/svg">
<path id="Union" fill-rule="evenodd" clip-rule="evenodd" d="M36.131 18.397L36.1705 18.2517L36.1706 18.2514L36.1713 18.2487L36.172 18.2463C36.2613 17.9176 36.3446 17.6112 36.4303 17.3049L36.8752 15.7045C37.6171 13.0358 38.359 10.3672 39.0952 7.6986C39.147 7.51091 39.2344 7.46561 39.4188 7.46561C42.3443 7.47046 45.2697 7.47046 48.1951 7.46884C50.4373 7.46884 52.6794 7.46611 54.9216 7.46338L54.9228 7.46338L57.1655 7.46075C57.3888 7.46075 57.5301 7.35342 57.5895 7.13876C57.744 6.57891 57.8989 6.01906 58.0538 5.45921L58.0581 5.44366C58.2116 4.88901 58.3651 4.33437 58.5182 3.77973C58.5291 3.7395 58.5378 3.69781 58.5482 3.64779C58.5533 3.62337 58.5588 3.59696 58.5651 3.56776H40.2489C40.2644 3.50545 40.2787 3.44605 40.2926 3.38872L40.2933 3.38575L40.2935 3.38522L40.2935 3.38507L40.2936 3.38468C40.3244 3.2575 40.3527 3.14042 40.3848 3.02411C40.4727 2.70505 40.5612 2.38618 40.6497 2.06737L40.6507 2.06359C40.8208 1.45078 40.9908 0.838195 41.1566 0.224907C41.2003 0.0598678 41.2715 0 41.4495 0C48.0899 0.0048541 54.7288 0.00485445 61.3692 0.00161838C61.8821 0.00161838 62.3141 0.144005 62.5957 0.598673C62.8319 0.97891 62.8125 1.39474 62.7008 1.80087C62.0229 4.27808 61.3352 6.75367 60.6476 9.22764C60.3628 10.2519 59.2819 11.0318 58.2399 11.0285C53.9989 11.0157 49.7579 11.0181 45.5176 11.0204H45.5173H45.5169H45.5165H45.5161H45.5158H45.5154H45.515H45.5146H45.5142H45.5139H45.5135H45.5131H45.5127H45.5124H45.512H45.5116H45.5112H45.5108H45.5105H45.5101H45.5097H45.5093H45.509H45.5086H45.5082C44.3807 11.0211 43.2532 11.0217 42.1258 11.022C42.0821 11.022 42.0444 11.0215 42.0117 11.0209C41.9019 11.0192 41.8493 11.0184 41.8176 11.0438C41.7883 11.0672 41.777 11.1129 41.7551 11.2007C41.7469 11.2336 41.7372 11.2724 41.7246 11.3181C41.3302 12.7329 40.9389 14.1477 40.5477 15.5624C40.3129 16.4113 40.0782 17.2602 39.8428 18.109C39.8365 18.1317 39.8308 18.1527 39.8257 18.172L39.8182 18.2L39.8182 18.2C39.7909 18.3032 39.7777 18.3529 39.7454 18.3765C39.7154 18.3984 39.6688 18.3977 39.5789 18.3963C39.5486 18.3958 39.5134 18.3952 39.4722 18.3954H36.385H36.1326L36.131 18.397ZM88.0447 0.390556L88.1467 0.014604H88.1451L88.0856 0.0112022C88.026 0.00771366 87.978 0.00489619 87.9299 0.00489619H67.9907L67.9715 0.00488952C67.8366 0.00481929 67.6966 0.00474638 67.5668 0.0356386C66.5766 0.271872 65.9148 0.883489 65.6397 1.85754C64.9391 4.33637 64.2579 6.82005 63.5767 9.30373C63.3017 10.3053 63.9505 11.0431 64.9035 11.0269C65.8904 11.0099 66.8773 11.0136 67.8643 11.0173L67.865 11.0173C68.2823 11.0189 68.6996 11.0205 69.1169 11.0205C73.0998 11.0221 77.0843 11.0253 81.0687 11.0286L81.0758 11.0286H81.4577L81.4371 11.1152C81.4198 11.1889 81.4069 11.2435 81.3914 11.2972L80.4982 14.5251C80.4933 14.5427 80.4888 14.5592 80.4847 14.5749L80.4706 14.629L80.4703 14.6301L80.47 14.6311L80.4699 14.6315C80.4452 14.7275 80.432 14.7788 80.3989 14.806C80.3611 14.8371 80.2974 14.8368 80.1606 14.836L80.0856 14.8358H68.1849L66.9999 14.8359C65.4209 14.8362 63.8419 14.8364 62.2629 14.8326C62.1043 14.8326 62.0218 14.8682 61.9765 15.0364C61.8128 15.6452 61.6433 16.2533 61.4738 16.8611L61.4738 16.8613C61.3919 17.1548 61.3101 17.4483 61.2289 17.7418C61.1897 17.8863 61.1529 18.0316 61.114 18.1846C61.0967 18.2526 61.0791 18.3222 61.0607 18.3938H61.2823H81.1632C82.0904 18.3938 82.7991 17.9683 83.2731 17.2014C83.4755 16.8755 83.5849 16.4818 83.6901 16.1033L83.7052 16.0493C84.1623 14.4198 84.6127 12.787 85.063 11.1545L85.0637 11.1519C85.2396 10.5142 85.4155 9.87647 85.5918 9.23901C85.6759 8.93482 85.7018 8.62901 85.5999 8.32321C85.4106 7.7569 84.9608 7.46727 84.2731 7.46727H67.9843C67.9307 7.46727 67.8771 7.46209 67.8164 7.45623L67.8163 7.45622C67.7873 7.45342 67.7567 7.45047 67.7238 7.44785C67.7352 7.40429 67.7449 7.3649 67.754 7.32806C67.7668 7.27595 67.7785 7.22894 67.7917 7.18249C67.9043 6.77766 68.0173 6.37261 68.1303 5.96743L68.1304 5.96732L68.1304 5.96722L68.1304 5.96711L68.1304 5.96701L68.1305 5.96691L68.1305 5.96681L68.1305 5.96671L68.1305 5.96662L68.1306 5.96652L68.1306 5.96643L68.1306 5.96634L68.1306 5.96625L68.1306 5.96616L68.1307 5.96607L68.1307 5.96598L68.1307 5.96589L68.1307 5.9658L68.1308 5.96572L68.1308 5.96563L68.1308 5.96554L68.1308 5.96546L68.1309 5.96537C68.328 5.25869 68.5252 4.55159 68.7205 3.84449L68.7346 3.79315C68.7703 3.6627 68.7863 3.6041 68.8244 3.57859C68.8555 3.5578 68.9014 3.559 68.9846 3.56119C69.0155 3.562 69.0517 3.56295 69.0943 3.56295L72.0683 3.56286H72.0684H72.0685H72.0686H72.0687H72.0688H72.0689H72.069H72.0691H72.0692H72.0693H72.0693H72.0694H72.0695H72.0696H72.0697H72.0698H72.0699H72.07H72.0701H72.0702H72.0703H72.0704H72.0704H72.0705H72.0706H72.0707C77.0261 3.56264 81.9807 3.56241 86.9364 3.56781C87.1241 3.56781 87.1888 3.50956 87.2341 3.33643C87.3707 2.81778 87.5154 2.30238 87.6601 1.78677L87.6616 1.7813L87.663 1.77632C87.7214 1.56835 87.7798 1.36035 87.8377 1.15208C87.9057 0.903777 87.973 0.655472 88.042 0.40092L88.0428 0.397851L88.0447 0.390556ZM14.6706 0.0577184L14.6495 0.0227051V0.0259406C14.6414 0.0275586 14.6329 0.0287723 14.6244 0.0299859C14.6159 0.0311996 14.6074 0.0324132 14.5993 0.0340313C13.0084 5.77854 11.4175 11.5245 9.81991 17.2947L9.80729 17.3403L9.51379 18.4003H9.75165C10.017 18.4003 10.2824 18.4 10.5477 18.3997H10.5483C11.3442 18.3988 12.1401 18.3979 12.936 18.4052C13.1091 18.4068 13.1657 18.3421 13.2078 18.1884C14.0842 15.0043 14.9656 11.8219 15.8469 8.6395L15.8484 8.63388C15.8576 8.6013 15.8712 8.57063 15.8898 8.52899C15.9007 8.50446 15.9133 8.47612 15.9277 8.44133C17.102 10.4463 18.2676 12.4374 19.4331 14.4284L21.7688 18.4181C23.2888 17.0302 24.8045 15.6459 26.3179 14.2637L26.3623 14.2231L26.3916 14.1963L26.4091 14.1803L26.4272 14.1639L26.4699 14.1249L26.4913 14.1053L26.4987 14.0985C28.1324 12.6064 29.7635 11.1167 31.3946 9.62735C31.407 9.63529 31.4187 9.64402 31.4307 9.65298L31.4464 9.66457L29.0452 18.389L29.0878 18.3932L29.0879 18.3932H29.0879C29.1251 18.3969 29.1437 18.3987 29.1633 18.3987C29.4107 18.3987 29.6581 18.3986 29.9055 18.3984C30.7713 18.3978 31.6371 18.3973 32.5029 18.4036C32.6615 18.4052 32.6971 18.3243 32.7311 18.2029C33.4521 15.5917 34.1748 12.9804 34.8975 10.3692L34.8982 10.3666L34.8989 10.3641L34.8996 10.3615L34.9003 10.359L34.9011 10.3564L34.9018 10.3538L34.9025 10.3513L34.9032 10.3487L34.9039 10.3461L34.9046 10.3436L34.9053 10.341L34.906 10.3384L34.9067 10.3359L34.9074 10.3333L34.9081 10.3307L34.9089 10.3282L34.9096 10.3256L34.9103 10.323L34.911 10.3205L34.9113 10.3192L34.9117 10.3179L34.912 10.3166L34.9124 10.3153L34.9128 10.314L34.9131 10.3127L34.9135 10.3115L34.9138 10.3102C35.3737 8.64966 35.834 6.98967 36.2943 5.32989L36.3003 5.30828C36.6624 4.00262 37.0244 2.69709 37.3862 1.39156C37.4661 1.1043 37.5439 0.816314 37.6257 0.513177C37.6665 0.362134 37.7083 0.207328 37.7519 0.0469752C32.634 4.37036 27.5582 8.65815 22.463 12.9605C19.8544 8.64028 17.2635 4.35061 14.6726 0.0610399L14.6706 0.0577184ZM95.5472 0.153055L100.304 9.43824L90.3048 18.7209L91.4934 14.5111L86.9572 18.7207L92.2072 0.152811L94.3599 4.35831L95.5472 0.153055ZM10.923 0.036838L10.8408 0.339055C10.7672 0.609921 10.6959 0.872326 10.6237 1.13386C10.186 2.71628 9.74796 4.2991 9.30988 5.88192C8.87179 7.46478 8.4337 9.04764 7.99601 10.6301L7.62139 11.9833C7.0456 14.0633 6.46962 16.144 5.89255 18.2235L5.8916 18.227C5.86613 18.3194 5.84394 18.3999 5.7081 18.3999C4.95766 18.3956 4.20722 18.3956 3.45678 18.3956H3.45578C3.0804 18.3956 2.70501 18.3956 2.32963 18.395C2.31343 18.395 2.29723 18.3914 2.27382 18.3862L2.27377 18.3862L2.27373 18.3862L2.27368 18.3862L2.27363 18.3861L2.27359 18.3861L2.27354 18.3861L2.2735 18.3861L2.27345 18.3861L2.27341 18.3861L2.27336 18.3861L2.27332 18.3861L2.27327 18.3861L2.27323 18.386L2.27319 18.386L2.27314 18.386L2.2731 18.386L2.27305 18.386L2.27301 18.386L2.27297 18.386L2.27292 18.386L2.27288 18.386L2.27284 18.3859L2.27279 18.3859L2.27274 18.3859L2.2726 18.3859L2.27205 18.3858L2.2718 18.3857L2.27149 18.3856C2.26036 18.3831 2.24762 18.3803 2.23254 18.3772C2.2377 18.3505 2.24231 18.3243 2.24685 18.2984C2.25799 18.2348 2.26869 18.1738 2.28594 18.1151C3.55137 13.5426 4.8179 8.9711 6.08462 4.39893L6.08547 4.39589L6.9103 1.41864C6.951 1.27098 6.9919 1.12352 7.03279 0.976131C7.1057 0.713289 7.17856 0.450634 7.25009 0.187315C7.27598 0.0902325 7.29863 0.012567 7.43455 0.014185C8.18533 0.0184998 8.93611 0.0184999 9.6869 0.0185001C10.0623 0.0185001 10.4376 0.0185002 10.813 0.0190395C10.8276 0.0190395 10.8427 0.0219398 10.8656 0.0263511L10.8657 0.0263532L10.8657 0.0263547C10.8811 0.0293104 10.9 0.032944 10.9247 0.036838H10.923ZM10.3553 24.9979L10.3554 24.9983L10.3538 24.9999L10.3553 24.9979ZM10.3553 24.9979C10.2032 24.2457 10.0609 23.5419 9.91204 22.8107C9.8067 23.0238 9.70364 23.2315 9.60195 23.4364L9.60189 23.4365L9.60184 23.4367C9.49427 23.6534 9.38823 23.8672 9.28262 24.0809C9.25322 24.1407 9.22271 24.2002 9.19218 24.2597L9.19208 24.2599L9.19205 24.26C9.12518 24.3904 9.05822 24.5209 9.0027 24.6553C8.9396 24.809 8.85384 24.8834 8.68395 24.8559C8.6299 24.8474 8.57516 24.8494 8.50881 24.8517H8.50876H8.50871H8.50865H8.50859H8.50853H8.50845H8.50838C8.47354 24.8529 8.43551 24.8543 8.3927 24.8543C8.81955 24.0087 9.23978 23.1747 9.66818 22.3245L9.66859 22.3236L9.66891 22.323L9.67275 22.3154L10.1855 21.2979C10.2636 21.7141 10.3389 22.1176 10.4134 22.5175L10.4136 22.5182C10.4981 22.9713 10.5817 23.4198 10.6677 23.877C11.2922 23.0275 11.9039 22.1959 12.5171 21.3642C12.5236 21.3658 12.5304 21.367 12.5373 21.3682L12.5404 21.3688C12.5463 21.3698 12.5521 21.3709 12.5575 21.3723L12.5572 21.3791C12.5039 22.5305 12.4506 23.6819 12.3974 24.8446H11.8877C11.9234 24.2246 11.9578 23.6128 11.9921 23.0029L12.0009 22.8463C11.7136 23.2216 11.4263 23.5974 11.1344 23.9792L11.1272 23.9886L11.1225 23.9948L11.1218 23.9957C10.8708 24.324 10.6163 24.6569 10.3553 24.9979ZM2.83997 24.8547L3.62984 23.2894L3.6301 23.2889L3.63318 23.2828L3.63354 23.2821L3.63401 23.2811L3.64016 23.2689C3.96221 22.6306 4.2813 21.9982 4.6004 21.3662H4.6457L4.64594 21.3675L4.64606 21.3681C4.80127 22.1975 4.95649 23.027 5.11655 23.8774L5.35974 23.5468L5.36002 23.5464C5.89832 22.8147 6.43114 22.0905 6.96274 21.3662L7.00481 21.3808L7.00452 21.387C6.95122 22.5354 6.89792 23.6837 6.84462 24.8434H6.33494C6.36682 24.2921 6.39761 23.7452 6.4282 23.2018L6.4482 22.8467C5.90939 23.5506 5.37058 24.2544 4.80265 24.9987C4.65056 24.2479 4.50817 23.5441 4.35931 22.8079C4.29422 22.9399 4.23071 23.0682 4.16827 23.1945L4.16692 23.1972L4.16504 23.201L4.16459 23.2019L4.16456 23.202C4.06065 23.412 3.95968 23.6161 3.85933 23.8208C3.82364 23.893 3.78738 23.9651 3.75109 24.0373L3.75095 24.0376L3.75081 24.0379L3.75066 24.0381L3.75064 24.0382L3.75063 24.0382L3.75061 24.0383L3.75046 24.0385L3.75044 24.0386L3.75043 24.0386L3.75041 24.0387L3.75026 24.0389L3.75024 24.039L3.75022 24.039L3.75021 24.0391L3.75019 24.0391L3.75017 24.0391L3.75015 24.0392L3.75013 24.0392L3.75011 24.0393L3.75009 24.0393L3.75007 24.0393C3.65016 24.238 3.55009 24.437 3.46129 24.6395C3.3901 24.8013 3.29787 24.8887 3.1118 24.8563C3.06318 24.8479 3.0125 24.8498 2.95028 24.8521H2.95024C2.91721 24.8533 2.88092 24.8547 2.83997 24.8547ZM51.2889 23.4596L51.61 22.8078H51.6117C51.6729 23.1106 51.7335 23.4097 51.7945 23.71L51.7958 23.7168C51.881 24.1366 51.9666 24.5589 52.055 24.997C52.4117 24.5312 52.7557 24.0812 53.0946 23.6379L53.099 23.6322L53.7022 22.8434C53.6776 23.2597 53.6537 23.6786 53.6296 24.1005L53.6296 24.1017L53.6295 24.1024L53.6295 24.1026L53.6295 24.1028L53.612 24.4098L53.5873 24.8401H54.097C54.1459 23.7693 54.1949 22.7134 54.2438 21.6576L54.2572 21.3694L54.2478 21.366L54.2385 21.3629L54.2346 21.3616C54.2298 21.36 54.225 21.3583 54.2199 21.3564C53.6067 22.1913 52.9935 23.0262 52.3673 23.8773C52.2783 23.4028 52.1908 22.9348 52.1021 22.46L51.8851 21.2998L51.1292 22.7981L51.1249 22.8064C50.7817 23.4867 50.4435 24.1572 50.1036 24.8304C50.568 24.908 50.5761 24.9048 50.7622 24.5278C50.9373 24.1734 51.1119 23.8191 51.2889 23.4596ZM18.0411 24.8499C18.1128 24.592 18.1834 24.3392 18.2531 24.0891L18.2542 24.0853C18.3477 23.75 18.4398 23.4197 18.5314 23.0895C18.5656 22.966 18.6003 22.8427 18.6349 22.7194L18.635 22.7192L18.635 22.7191L18.635 22.7191L18.635 22.719L18.635 22.719L18.635 22.7189L18.6351 22.7189C18.7347 22.3644 18.8342 22.0103 18.923 21.6527C18.965 21.4812 19.0395 21.4294 19.2142 21.4391C19.414 21.4505 19.6141 21.4537 19.8142 21.4569H19.8142H19.8143H19.8143H19.8143H19.8144H19.8144H19.8144H19.8144H19.8145H19.8145H19.8145H19.8146H19.8146H19.8146H19.8146H19.8147H19.8147H19.8147H19.8148C20.0408 21.4605 20.2669 21.4641 20.4925 21.4796C21.1332 21.5249 21.4876 21.8857 21.4973 22.5297C21.5086 23.3419 21.0491 24.3467 20.0702 24.7092C19.8388 24.7949 19.5799 24.8305 19.3323 24.8435C19.0381 24.8583 18.7422 24.8554 18.4351 24.8524H18.4351H18.4351H18.435H18.435H18.435H18.4349H18.4349H18.4349H18.4349H18.4348H18.4348H18.4348H18.4347H18.4347H18.4347H18.4347H18.4346H18.4346H18.4346C18.3062 24.8512 18.1758 24.8499 18.0428 24.8499H18.0411ZM19.036 24.3616L19.0361 24.3616C19.2655 24.3567 19.4845 24.3519 19.698 24.316C19.8986 24.282 20.1106 24.1833 20.2692 24.0555C20.719 23.6898 20.9099 23.1898 20.9018 22.617C20.8986 22.3031 20.7206 22.0491 20.4358 22.0006C20.1957 21.9605 19.9514 21.948 19.7083 21.9355C19.6075 21.9303 19.5068 21.9252 19.4068 21.918C19.2822 22.3676 19.1609 22.804 19.0396 23.2404C18.9356 23.6145 18.8316 23.9886 18.7256 24.371H18.7272C18.8323 24.3661 18.9349 24.3638 19.0356 24.3617H19.0357L19.0358 24.3617L19.036 24.3616ZM60.5387 23.1318C60.5938 22.9355 60.6488 22.7395 60.7033 22.5439H60.7049C61.3278 23.3627 61.9362 24.162 62.5689 24.992L62.649 24.7031C62.954 23.6031 63.2504 22.5337 63.551 21.4534H63.043C62.9216 21.8912 62.7996 22.3275 62.6774 22.7646C62.5847 23.0964 62.4919 23.4286 62.399 23.7623C62.058 23.3129 61.7232 22.8708 61.3874 22.4271C61.1065 22.0562 60.8249 21.6842 60.5382 21.3062C60.3142 22.1126 60.0959 22.8987 59.8776 23.685L59.5529 24.8545C59.5984 24.8545 59.6409 24.8534 59.6814 24.8524C59.7631 24.8504 59.8363 24.8485 59.9088 24.8561C60.0318 24.8691 60.0803 24.8141 60.1062 24.7024C60.1425 24.548 60.1855 24.3953 60.2286 24.2424L60.2458 24.1813L60.2594 24.1326L60.2777 24.0665C60.364 23.7542 60.4515 23.4425 60.5387 23.1318ZM80.5818 23.3111C80.8052 23.7817 81.0233 24.2388 81.252 24.7182L81.3164 24.8531C81.2589 24.8531 81.204 24.8539 81.1509 24.8546H81.1509C81.0158 24.8565 80.8926 24.8583 80.7695 24.8466C80.7193 24.8418 80.6578 24.7706 80.6319 24.7156C80.4813 24.4018 80.3345 24.0862 80.1878 23.7708L80.1868 23.7687L80.0559 23.4875C80.038 23.4495 80.0178 23.413 79.9878 23.3588C79.9744 23.3346 79.959 23.3069 79.941 23.2739L79.8839 23.4652L79.8828 23.4689L79.8817 23.4726C79.8428 23.6023 79.8095 23.7136 79.7776 23.8257C79.765 23.8702 79.7522 23.9148 79.7394 23.9593L79.7198 24.027C79.6584 24.2394 79.597 24.4515 79.5479 24.6654C79.5139 24.811 79.4556 24.8774 79.3019 24.858C79.2399 24.8494 79.1759 24.8515 79.1013 24.8538C79.0629 24.855 79.0218 24.8563 78.9767 24.8563C79.1003 24.4098 79.2232 23.9667 79.3461 23.5235C79.5385 22.8297 79.731 22.1356 79.9265 21.4277C80.0612 21.4343 80.1962 21.4385 80.3309 21.4427C80.6282 21.4519 80.9249 21.4612 81.2177 21.4957C81.5332 21.5345 81.7079 21.8436 81.6545 22.1882C81.5591 22.8014 81.2338 23.206 80.5802 23.3111H80.5818ZM80.0672 22.9293C80.1481 22.917 80.2247 22.908 80.2981 22.8993C80.4479 22.8815 80.5841 22.8653 80.7145 22.8273C80.962 22.7545 81.1384 22.3452 81.0478 22.1186C80.9895 21.9746 80.5931 21.8484 80.4022 21.9196C80.3666 21.9326 80.331 21.9762 80.3197 22.0135C80.2615 22.213 80.2066 22.4141 80.1458 22.6366L80.1455 22.6377C80.1201 22.7306 80.0937 22.8274 80.0656 22.9293H80.0672ZM77.4935 22.7706L77.4939 22.769V22.7706H77.4935ZM76.1445 22.7706H77.4935C77.4403 22.9591 77.3983 23.1043 77.3531 23.2592C77.2422 23.2592 77.1322 23.2596 77.0227 23.2599C76.7329 23.2609 76.4472 23.2619 76.1606 23.256C76.0425 23.2544 75.9891 23.2932 75.9616 23.4065C75.905 23.6293 75.8435 23.8497 75.7794 24.0794L75.7788 24.0815C75.7533 24.173 75.7273 24.2659 75.7011 24.3611H77.0198C77.0209 24.3742 77.0222 24.385 77.0233 24.3941L77.0233 24.3942C77.0254 24.412 77.0268 24.4238 77.0247 24.4355C76.9697 24.7149 76.7998 24.8546 76.515 24.8546H75.0118C75.1002 24.535 75.1837 24.2361 75.2673 23.9373L75.2691 23.9307L75.3877 23.5029L75.3885 23.5C75.561 22.8786 75.7332 22.2577 75.9001 21.6347C75.9374 21.4988 75.9875 21.4373 76.1461 21.4406C76.5565 21.4488 76.9679 21.4476 77.3889 21.4463C77.5438 21.4459 77.7 21.4454 77.858 21.4454C77.8339 21.5352 77.8109 21.6197 77.7874 21.7059L77.7334 21.9049C77.6221 21.9049 77.5107 21.9056 77.3992 21.9063C77.1313 21.908 76.8628 21.9097 76.5943 21.9017C76.4276 21.8968 76.3516 21.947 76.3192 22.1137C76.289 22.267 76.2455 22.4179 76.1993 22.5776L76.1992 22.5779L76.1991 22.5784C76.1811 22.6409 76.1626 22.7047 76.1445 22.7706ZM35.2485 24.3592C35.1967 24.5485 35.1563 24.6958 35.1158 24.843H33.213C33.5301 23.7039 33.8424 22.581 34.1547 21.4548H36.0543C36.0433 21.4952 36.0341 21.5347 36.025 21.5734C36.0047 21.6602 35.9855 21.7422 35.9507 21.8173C35.9297 21.861 35.8439 21.8982 35.7857 21.8998C35.4427 21.9079 35.0996 21.9095 34.7582 21.8998C34.6256 21.8966 34.5608 21.9354 34.5301 22.0681C34.4953 22.2243 34.4518 22.379 34.4058 22.5429L34.4056 22.5434L34.4055 22.5437C34.3854 22.6155 34.3647 22.6891 34.344 22.7654H35.6854C35.6736 22.8109 35.663 22.8546 35.6528 22.8967C35.6268 23.0044 35.6033 23.1019 35.5673 23.1926C35.5527 23.2298 35.4637 23.2525 35.4087 23.2541C35.0592 23.2589 34.7097 23.2606 34.3618 23.2541C34.2486 23.2525 34.1903 23.28 34.1596 23.4013C34.1077 23.6141 34.0484 23.8247 33.9867 24.0437C33.9578 24.1461 33.9284 24.2504 33.8991 24.3576H35.2469L35.2485 24.3592ZM93.6497 24.5706L93.5724 24.8545L93.9437 24.8546C94.4312 24.8549 94.9055 24.8551 95.3797 24.8512C95.4202 24.8512 95.4801 24.8124 95.493 24.7768C95.5258 24.682 95.5504 24.5844 95.5778 24.4758L95.5779 24.4757L95.5779 24.4756L95.5782 24.4743L95.599 24.3924L95.6063 24.3642H94.2617C94.2828 24.2871 94.3033 24.2112 94.3236 24.1363L94.324 24.1351C94.3986 23.8597 94.4696 23.5976 94.5497 23.3384C94.561 23.2995 94.6468 23.2607 94.6985 23.2607C94.8903 23.2548 95.083 23.2558 95.2758 23.2568C95.3482 23.2571 95.4206 23.2575 95.493 23.2575C95.7832 23.2575 95.9639 23.1151 96.035 22.8303C96.037 22.8234 96.0342 22.8159 96.0295 22.8035L96.0249 22.7911L96.0214 22.7804L96.0189 22.7721H94.705C94.7289 22.6835 94.7529 22.5985 94.7761 22.5158L94.7768 22.5134L94.7772 22.5121L94.7774 22.5115L94.7774 22.5114C94.823 22.3495 94.8662 22.1962 94.9024 22.0407C94.9299 21.9307 94.9817 21.8983 95.0901 21.9C95.4461 21.9064 95.8004 21.9064 96.1564 21.9C96.2098 21.8983 96.2923 21.8692 96.3085 21.8304C96.3436 21.7472 96.3652 21.6573 96.3885 21.56C96.3975 21.5228 96.4066 21.4846 96.4169 21.4453C96.2457 21.4453 96.0767 21.4458 95.9092 21.4464H95.909H95.9088H95.9087H95.9085H95.9084H95.9082H95.908H95.9079H95.9077H95.9076H95.9074H95.9072H95.9071H95.9069C95.4941 21.4477 95.0907 21.449 94.6872 21.442C94.5497 21.4388 94.4995 21.4874 94.4655 21.6136C94.3393 22.082 94.2087 22.5504 94.0781 23.0188L94.0754 23.0285C94.0111 23.2591 93.9468 23.4897 93.883 23.7202C93.8048 24.0002 93.7284 24.2811 93.6497 24.5706ZM16.7494 22.7689C16.7068 22.9177 16.6723 23.0416 16.6379 23.1655L16.6119 23.2592C16.5044 23.2592 16.3976 23.2595 16.2912 23.2599H16.2909H16.2906H16.2904H16.2901H16.2898H16.2895H16.2893H16.289H16.2887H16.2884H16.2881H16.2879C16.0029 23.2608 15.7212 23.2618 15.4404 23.2559C15.3094 23.2527 15.2463 23.285 15.2139 23.4242C15.1617 23.6496 15.0974 23.8715 15.0297 24.1046L15.0297 24.1047L15.0297 24.1048L15.0297 24.1048L15.0297 24.1048L15.0296 24.1049L15.0294 24.1058C15.0049 24.1902 14.98 24.2762 14.955 24.3643H16.3029C16.2902 24.4102 16.2786 24.454 16.2675 24.4962L16.2675 24.4962L16.2675 24.4962L16.2674 24.4963L16.2674 24.4964C16.2385 24.6055 16.2126 24.7034 16.1799 24.7979C16.1702 24.827 16.1087 24.8529 16.0715 24.8529C15.4777 24.8562 14.8822 24.8562 14.2657 24.8562L14.3809 24.4414L14.3809 24.4412L14.381 24.4411L14.381 24.4409C14.6587 23.4407 14.9333 22.4518 15.2091 21.4567H17.1038C17.0941 21.4943 17.0855 21.5319 17.077 21.569L17.077 21.5691C17.0555 21.6629 17.0345 21.7544 16.9986 21.8401C16.9841 21.8774 16.8934 21.9016 16.8384 21.9016C16.4889 21.9065 16.1394 21.9097 15.7899 21.9016C15.6718 21.9 15.6168 21.9388 15.5893 22.0537C15.5511 22.2146 15.5065 22.3739 15.4596 22.542C15.439 22.6157 15.418 22.691 15.3968 22.7689H16.7462H16.7494ZM57.8078 24.3641H56.4648V24.3624C56.4945 24.2553 56.5243 24.1518 56.5533 24.0506L56.5535 24.0501L56.5536 24.0498L56.5536 24.0494C56.6162 23.8315 56.6756 23.6245 56.7253 23.4159C56.7561 23.2897 56.8111 23.2541 56.9356 23.2557C57.2209 23.2616 57.5062 23.2606 57.794 23.2597H57.7941H57.7942H57.7943H57.7943H57.7944H57.7945H57.7946H57.7947H57.7947H57.7948H57.7949H57.795C57.9035 23.2593 58.0123 23.2589 58.1217 23.2589C58.1451 23.176 58.1673 23.0965 58.1902 23.0145L58.1909 23.012L58.1914 23.0099C58.2123 22.9349 58.2339 22.8576 58.2576 22.7735H56.9098C56.9302 22.6983 56.9504 22.6259 56.97 22.5554L56.97 22.5552L56.9702 22.5546L56.9702 22.5545C57.0189 22.3797 57.0643 22.2166 57.1023 22.0519C57.1298 21.9354 57.1881 21.8998 57.3046 21.9014C57.6524 21.9079 58.0019 21.9063 58.3514 21.9014C58.4065 21.9014 58.4971 21.8771 58.5116 21.8399C58.5461 21.7548 58.5668 21.6639 58.588 21.5702L58.5881 21.57L58.5881 21.5699C58.5967 21.5319 58.6054 21.4935 58.6152 21.4548H56.7205C56.5019 22.2424 56.2841 23.0261 56.0643 23.8167L56.0636 23.8193L55.7755 24.8559C56.3936 24.8559 56.9939 24.8559 57.5926 24.8527C57.6282 24.8527 57.6848 24.8187 57.6945 24.788C57.7269 24.6908 57.7513 24.5918 57.7782 24.4825L57.7783 24.4824L57.7783 24.4824L57.796 24.4107L57.8078 24.3641ZM92.4591 22.2544C91.9446 21.7916 91.388 21.7528 90.8184 22.0343C90.2003 22.3385 89.8686 22.866 89.8346 23.5504C89.8039 24.1604 90.3201 24.539 90.9932 24.4193C91.1631 24.3885 91.3313 24.3368 91.4931 24.272C91.5952 24.2312 91.6923 24.1775 91.7973 24.1195C91.8503 24.0902 91.9053 24.0598 91.964 24.0293C91.9496 24.0809 91.9361 24.1311 91.923 24.18C91.8887 24.3075 91.8565 24.4269 91.8167 24.5439C91.7989 24.5989 91.7504 24.6571 91.7002 24.683C91.1679 24.9646 90.6065 25.0341 90.0321 24.8465C89.4625 24.6604 89.1599 24.0811 89.2619 23.4226C89.4463 22.2269 90.5709 21.2932 91.7714 21.3741C91.9599 21.3874 92.1456 21.4639 92.3294 21.5394L92.3295 21.5395C92.3918 21.5651 92.4539 21.5907 92.5157 21.6136C92.6225 21.6525 92.6484 21.7366 92.5983 21.8499C92.5631 21.9308 92.5364 22.016 92.5079 22.1067L92.5079 22.1068L92.5078 22.1069L92.5078 22.1071C92.493 22.1541 92.4778 22.2026 92.4607 22.2527L92.4591 22.2544ZM45.0607 21.3128L45.0601 21.3093H45.0633L45.0607 21.3128ZM42.4259 24.8544C43.3117 23.6631 44.1717 22.5073 45.0607 21.3128C45.2854 22.5154 45.502 23.6728 45.7219 24.8431H45.1458C45.1343 24.7759 45.122 24.7085 45.1097 24.6408C45.0787 24.4705 45.0474 24.2988 45.0277 24.1263C45.0131 23.9985 44.9565 23.9661 44.84 23.9678C44.7003 23.9697 44.5605 23.969 44.4209 23.9684H44.4207C44.2111 23.9674 44.0019 23.9665 43.7931 23.9742C43.7122 23.9775 43.6135 24.0357 43.5601 24.1004C43.4081 24.2849 43.2657 24.4774 43.1378 24.6797C43.0505 24.8156 42.9485 24.8755 42.7883 24.8561C42.719 24.8475 42.6482 24.8495 42.5653 24.8519C42.5226 24.8531 42.4766 24.8544 42.4259 24.8544ZM44.8101 22.7534L44.8101 22.7536C44.8475 23.0069 44.8842 23.2561 44.9225 23.5131H43.9873C44.1945 23.2188 44.3918 22.9403 44.5915 22.6583L44.7607 22.4193L44.8101 22.7534ZM26.5057 22.7598L26.5125 22.7506L27.5832 21.3112C27.6768 21.8081 27.7685 22.2967 27.8595 22.7817L27.8604 22.7862L27.8604 22.7863L27.8609 22.7891L27.861 22.7893L27.861 22.7896L27.8616 22.7926C27.9901 23.4773 28.1172 24.1548 28.2466 24.8385H27.6689C27.6579 24.7731 27.6461 24.7075 27.6342 24.6416L27.6342 24.6415L27.6341 24.6414L27.6341 24.6414C27.6043 24.4759 27.5742 24.3089 27.5557 24.1411C27.5411 24.0068 27.4845 23.968 27.3583 23.9696C27.2104 23.9723 27.0628 23.9719 26.9153 23.9714H26.9152H26.9152H26.9152H26.9152H26.9152H26.9152H26.9151H26.9151H26.9151C26.714 23.9708 26.513 23.9702 26.3114 23.9777C26.2353 23.9809 26.1415 24.0343 26.093 24.0942C25.9409 24.2786 25.7969 24.4712 25.6707 24.6718C25.5752 24.8223 25.4587 24.8789 25.2872 24.8579C25.2244 24.8504 25.1609 24.8521 25.0838 24.8541L25.0837 24.8541C25.0436 24.8551 24.9999 24.8563 24.9506 24.8563L24.9474 24.8547C25.4721 24.1496 25.9872 23.457 26.5057 22.7598ZM26.9261 22.925L27.2809 22.4214C27.3052 22.5824 27.3289 22.738 27.3523 22.8922C27.3835 23.097 27.4143 23.2993 27.4456 23.5084H26.5153C26.6542 23.3109 26.7894 23.1191 26.9261 22.925ZM73.2081 22.1401L73.2088 22.1411H73.2056L73.2081 22.1401ZM73.4443 22.0362C73.3692 22.0698 73.2941 22.1034 73.2081 22.1401C72.9457 21.7512 72.4352 21.7596 72.2186 22.1411C72.1069 22.3369 72.1263 22.5149 72.3075 22.6589C72.4233 22.7515 72.5524 22.8268 72.681 22.9017L72.723 22.9262L72.7495 22.9418L72.78 22.9598C73.3156 23.2754 73.4143 23.6168 73.1344 24.1766C72.8366 24.7737 72.1635 25.0746 71.437 24.8966C71.149 24.8254 70.9856 24.6151 70.9597 24.3497C70.9484 24.2332 70.971 24.1523 71.0989 24.1167C71.1774 24.0948 71.2535 24.0621 71.3354 24.027C71.3682 24.0129 71.4019 23.9984 71.437 23.9841C71.4743 24.2575 71.6134 24.4145 71.8852 24.4371C72.1878 24.463 72.4338 24.3692 72.5939 24.1006C72.7363 23.8627 72.6975 23.6621 72.4629 23.4954C72.3501 23.4152 72.2297 23.345 72.1091 23.2746C72.0619 23.247 72.0146 23.2194 71.9678 23.1912C71.3869 22.8417 71.4581 22.3563 71.7558 21.9162C72.0713 21.4502 72.7234 21.2447 73.2573 21.4227C73.3463 21.4518 73.4369 21.502 73.5081 21.5635C73.7395 21.7657 73.7169 21.9146 73.445 22.0359L73.4446 22.0361L73.4443 22.0362ZM40.6029 21.45C40.7273 21.45 40.8492 21.4483 40.9694 21.4466C41.2368 21.4429 41.4954 21.4392 41.7534 21.4549C42.31 21.4888 42.53 21.8141 42.3876 22.3545C42.2177 22.9968 41.8003 23.301 41.0511 23.3285C40.7448 23.3393 40.5511 23.493 40.4702 23.7897C40.4441 23.8845 40.4173 23.979 40.3906 24.0734L40.3905 24.0735L40.3905 24.0735L40.3905 24.0735L40.3905 24.0736L40.3905 24.0736L40.3905 24.0736L40.3905 24.0737C40.3328 24.2773 40.2751 24.4805 40.2243 24.6861C40.1919 24.8123 40.1418 24.8754 40.001 24.8592C39.9273 24.8503 39.8521 24.8521 39.7706 24.8541C39.7339 24.855 39.696 24.856 39.6564 24.856C39.9751 23.7088 40.2874 22.5842 40.6013 21.4516L40.6029 21.45ZM40.9787 22.8753L40.9789 22.8753H40.9789C41.1373 22.8603 41.2814 22.8468 41.4217 22.8156C41.6725 22.7606 41.8569 22.4872 41.8294 22.2299C41.8213 22.1555 41.7728 22.0357 41.7194 22.0228C41.5401 21.9783 41.3536 21.9565 41.1682 21.9349L41.077 21.9241C41.0576 21.9225 41.0188 21.9565 41.0123 21.9807C40.9391 22.2326 40.8684 22.4845 40.7884 22.7694L40.7518 22.8998L40.7534 22.8981C40.8315 22.8891 40.9057 22.8821 40.977 22.8754L40.9775 22.8754L40.9781 22.8753L40.9787 22.8753ZM85.07 23.1124L86.2491 21.4454V21.4438C86.2007 21.4438 86.1575 21.4451 86.1177 21.4464C86.0418 21.4487 85.9784 21.4507 85.9158 21.4422C85.741 21.4195 85.6358 21.4891 85.5387 21.6347C85.3564 21.912 85.1655 22.1834 84.9746 22.4549C84.8791 22.5906 84.7837 22.7264 84.6893 22.8628C84.5878 23.0096 84.4867 23.1568 84.3847 23.3054C84.29 23.4434 84.1945 23.5826 84.0971 23.7236C84.0367 23.2967 83.9779 22.8747 83.9194 22.4556C83.8729 22.1218 83.8266 21.7898 83.7799 21.4584H83.2072C83.2992 22.0644 83.3904 22.666 83.4823 23.2723L83.4837 23.281C83.569 23.8439 83.6549 24.4108 83.7427 24.9889C84.1917 24.3544 84.6312 23.7329 85.07 23.1124ZM47.3233 21.4437L47.3647 21.4432L47.414 21.4424H47.414C47.5329 21.4405 47.6438 21.4388 47.7522 21.4504C47.8023 21.4553 47.8671 21.52 47.8865 21.5718C48.0045 21.9011 48.1162 22.2326 48.2318 22.5753L48.2322 22.5765L48.2324 22.5773L48.2328 22.5785L48.2331 22.5792L48.2332 22.5795L48.3185 22.8322L48.4809 22.6539L48.481 22.6538L48.481 22.6537L48.4836 22.6509L48.4837 22.6508C48.5914 22.5324 48.6969 22.4166 48.8023 22.3015C48.8554 22.2434 48.9108 22.1868 48.9663 22.1302C49.0883 22.0058 49.2103 21.8813 49.3071 21.74C49.5094 21.4423 49.778 21.4019 50.121 21.465L50.0448 21.5499C49.9323 21.6755 49.8249 21.7954 49.7165 21.9132C49.5956 22.0458 49.4743 22.1779 49.3529 22.31L49.3528 22.3101L49.3527 22.3102L49.3526 22.3104L49.3524 22.3105L49.3523 22.3107C49.0889 22.5974 48.8256 22.8841 48.5677 23.1752C48.4948 23.2578 48.4382 23.3662 48.4059 23.473C48.2877 23.8694 48.1793 24.2674 48.0774 24.6671C48.0418 24.8078 47.9835 24.879 47.8282 24.858C47.7553 24.8481 47.6801 24.8502 47.597 24.8525C47.5584 24.8536 47.5181 24.8548 47.4755 24.8548C47.5146 24.7135 47.5525 24.5738 47.5902 24.4353C47.6742 24.1263 47.7566 23.8231 47.846 23.5215C47.8929 23.3645 47.8881 23.2286 47.8331 23.0733C47.699 22.7025 47.5727 22.3286 47.4439 21.9471L47.4436 21.9464C47.3876 21.7804 47.3311 21.6131 47.2732 21.4439L47.3233 21.4437ZM65.1051 21.8734L65.1114 21.9132L65.1098 21.9148H65.9868C65.7117 22.9066 65.4447 23.8694 65.1713 24.8564C65.207 24.8564 65.2411 24.8552 65.274 24.8542C65.3453 24.8518 65.4107 24.8496 65.4738 24.8596C65.6777 24.892 65.7457 24.8014 65.7958 24.6104C65.9226 24.1248 66.0574 23.6412 66.1923 23.1577L66.1926 23.1567C66.2917 22.8013 66.3908 22.4458 66.4867 22.0895C66.5256 21.9423 66.5919 21.8938 66.7408 21.9018C66.9022 21.9109 67.0644 21.9089 67.2296 21.9068L67.3253 21.9057L67.3901 21.9052L67.4462 21.9051C67.4762 21.7934 67.5053 21.6883 67.5353 21.5799L67.5724 21.4456H65.6049C65.3309 21.4456 65.1632 21.5799 65.1017 21.8484C65.1017 21.8526 65.1024 21.8568 65.1051 21.8734ZM32.4642 21.56L32.4642 21.56L32.4642 21.56L32.4642 21.5601L32.4642 21.5601C32.4414 21.6558 32.421 21.7416 32.3871 21.8223C32.3693 21.8628 32.2933 21.8984 32.2415 21.9016C32.0409 21.9113 31.8402 21.9145 31.6412 21.9016C31.5053 21.8935 31.4519 21.9437 31.4163 22.0731C31.3144 22.4512 31.2096 22.8286 31.1047 23.206L31.1047 23.2062L31.1046 23.2063L31.1046 23.2065C30.9748 23.6738 30.8449 24.1413 30.7205 24.6102C30.672 24.7946 30.604 24.895 30.3986 24.8594C30.3395 24.8495 30.2782 24.8515 30.2067 24.8538H30.2067C30.1724 24.8549 30.1358 24.8561 30.096 24.8561C30.3678 23.8707 30.6348 22.9064 30.9099 21.9145H30.0118C30.0234 21.8703 30.0337 21.8281 30.0437 21.7876C30.0686 21.6858 30.0911 21.5943 30.1235 21.5052C30.1348 21.4744 30.2044 21.4485 30.2465 21.4485C30.9822 21.4453 31.7178 21.4453 32.4923 21.4453C32.482 21.4852 32.4729 21.5233 32.4642 21.56L32.4642 21.56ZM22.922 24.505C22.8915 24.6163 22.8605 24.7292 22.8282 24.8447V24.8463H23.3784C23.6923 23.7137 24.0046 22.5876 24.3217 21.4468C24.2753 21.4468 24.232 21.4478 24.1909 21.4487C24.1013 21.4507 24.0218 21.4525 23.9431 21.4436C23.8055 21.4274 23.7554 21.4841 23.7214 21.6135C23.5429 22.2739 23.3592 22.9333 23.1754 23.5934L23.0418 24.0729C23.0015 24.2157 22.9623 24.3586 22.9223 24.504L22.9221 24.5049L22.922 24.505ZM2.07957 21.4454C1.96631 21.8613 1.8579 22.2577 1.74787 22.6541C1.68162 22.8928 1.61456 23.1314 1.54747 23.37L1.54742 23.3702C1.42448 23.8075 1.30146 24.2451 1.18317 24.6847C1.1492 24.8125 1.10389 24.874 0.964739 24.8595C0.885547 24.8505 0.805587 24.8524 0.718499 24.8544C0.679249 24.8553 0.638552 24.8562 0.595825 24.8562C0.600885 24.8309 0.605312 24.8069 0.609551 24.7839C0.618868 24.7333 0.627279 24.6876 0.639512 24.6443C0.72458 24.337 0.810267 24.0299 0.895951 23.7229L0.896017 23.7226C1.08737 23.0368 1.27871 22.3511 1.4631 21.6639C1.51164 21.4843 1.5893 21.4195 1.76567 21.4454C1.82827 21.4541 1.89304 21.4519 1.96477 21.4495C2.00056 21.4483 2.03809 21.447 2.07795 21.447L2.07957 21.4454ZM87.5911 21.9838C87.329 22.9287 87.0669 23.8736 86.795 24.8542V24.8558C86.8383 24.8558 86.8786 24.8545 86.9169 24.8533C86.9934 24.8509 87.0621 24.8488 87.13 24.8574C87.2934 24.8768 87.3662 24.8186 87.4099 24.6535C87.5523 24.1174 87.7019 23.5828 87.8514 23.0481C87.9262 22.7808 88.001 22.5134 88.0749 22.2459C88.113 22.1065 88.1502 21.9671 88.1874 21.8275C88.2197 21.7062 88.2522 21.5846 88.2853 21.4628C87.9271 21.4175 87.7049 21.5604 87.6186 21.8915C87.6146 21.9069 87.6097 21.9223 87.6049 21.9377C87.6 21.953 87.5952 21.9684 87.5911 21.9838Z" fill="#819EB0" fill-opacity="0.8"/>
</svg>
