<svg width="25" height="25" viewBox="0 0 25 25" fill="none" xmlns="http://www.w3.org/2000/svg">
<g id="Icons 24x24">
<path id="Vector" d="M12.3345 6.084C13.8848 6.084 15.1416 4.8272 15.1416 3.27686C15.1416 1.72652 13.8848 0.469727 12.3345 0.469727C10.7841 0.469727 9.52734 1.72652 9.52734 3.27686C9.52734 4.8272 10.7841 6.084 12.3345 6.084Z" fill="#BFFFC8"/>
<path id="Vector_2" d="M12.3345 24.4699C13.2646 24.4699 14.0186 23.7159 14.0186 22.7858C14.0186 21.8557 13.2646 21.1017 12.3345 21.1017C11.4044 21.1017 10.6504 21.8557 10.6504 22.7858C10.6504 23.7159 11.4044 24.4699 12.3345 24.4699Z" fill="#BFFFC8"/>
<path id="Vector_3" d="M5.43675 8.65965C6.83215 8.65965 7.96335 7.52845 7.96335 6.13305C7.96335 4.73764 6.83215 3.60645 5.43675 3.60645C4.04135 3.60645 2.91016 4.73764 2.91016 6.13305C2.91016 7.52845 4.04135 8.65965 5.43675 8.65965Z" fill="#BFFFC8"/>
<path id="Vector_4" d="M19.2317 21.3311C20.0069 21.3311 20.6353 20.7027 20.6353 19.9275C20.6353 19.1523 20.0069 18.5239 19.2317 18.5239C18.4565 18.5239 17.8281 19.1523 17.8281 19.9275C17.8281 20.7027 18.4565 21.3311 19.2317 21.3311Z" fill="#BFFFC8"/>
<path id="Vector_5" d="M2.57914 15.2769C3.8191 15.2769 4.82429 14.2717 4.82429 13.0317C4.82429 11.7918 3.8191 10.7866 2.57914 10.7866C1.33917 10.7866 0.333984 11.7918 0.333984 13.0317C0.333984 14.2717 1.33917 15.2769 2.57914 15.2769Z" fill="#BFFFC8"/>
<path id="Vector_6" d="M22.0889 14.153C22.7086 14.153 23.211 13.6506 23.211 13.0309C23.211 12.4111 22.7086 11.9088 22.0889 11.9088C21.4692 11.9088 20.9668 12.4111 20.9668 13.0309C20.9668 13.6506 21.4692 14.153 22.0889 14.153Z" fill="#BFFFC8"/>
<path id="Vector_7" d="M4.04656 18.5403C3.27875 19.3082 3.27875 20.5505 4.04656 21.3183C4.81347 22.0861 6.05764 22.0861 6.82454 21.3183C7.59236 20.5505 7.59236 19.3082 6.82454 18.5403C6.05764 17.7716 4.81438 17.7643 4.04656 18.5403Z" fill="#BFFFC8"/>
<path id="Vector_8" d="M19.2303 6.97469C19.6951 6.97469 20.0719 6.5979 20.0719 6.1331C20.0719 5.6683 19.6951 5.2915 19.2303 5.2915C18.7655 5.2915 18.3887 5.6683 18.3887 6.1331C18.3887 6.5979 18.7655 6.97469 19.2303 6.97469Z" fill="#BFFFC8"/>
</g>
</svg>
