<svg width="64" height="64" viewBox="0 0 64 64" fill="none" xmlns="http://www.w3.org/2000/svg">
<g id="Icons 64x64">
<rect id="Rectangle 805" width="64" height="64" rx="16" fill="#BFFFC8"/>
<rect id="Rectangle 945" x="16.5" y="20.5" width="31" height="23" rx="1.5" fill="#077453" stroke="#BFFFC8"/>
<path id="Rectangle 947" d="M17.6448 45C15.8021 45 14.9398 42.7195 16.3215 41.5003L30.0151 29.4177C31.1492 28.4171 32.8508 28.4171 33.9849 29.4177L47.6785 41.5003C49.0602 42.7195 48.1979 45 46.3552 45H17.6448Z" fill="#077453" stroke="#BFFFC8" stroke-width="2"/>
<path id="Rectangle 946" d="M17.6448 19C15.8021 19 14.9398 21.2805 16.3215 22.4997L30.0151 34.5823C31.1492 35.5829 32.8508 35.5829 33.9849 34.5823L47.6785 22.4997C49.0602 21.2805 48.1979 19 46.3552 19H17.6448Z" fill="#077453" stroke="#BFFFC8" stroke-width="2"/>
</g>
</svg>
