<svg width="48" height="49" viewBox="0 0 48 49" fill="none" xmlns="http://www.w3.org/2000/svg">
<g id="Group 1858">
<rect id="Rectangle 410" width="48" height="48.0022" rx="16" fill="#BFFFC8"/>
<g id="Group 1857">
<path id="Rectangle 875" d="M11.9006 16.0205L14.7291 13.1921C16.2912 11.63 18.8238 11.63 20.3859 13.1921L34.5281 27.3342C36.0901 28.8963 36.0901 31.429 34.5281 32.9911L31.6996 35.8195L11.9006 16.0205Z" fill="#077453"/>
<path id="Rectangle 869" d="M11.9006 16.0205L14.7291 13.1921C16.2912 11.63 18.8238 11.63 20.3859 13.1921L34.5281 27.3342C36.0901 28.8963 36.0901 31.429 34.5281 32.9911L31.6996 35.8195L11.9006 16.0205Z" fill="#077453"/>
<rect id="Rectangle 871" x="16.1428" y="20.2627" width="2" height="1" transform="rotate(-45 16.1428 20.2627)" fill="#BFFFC8"/>
<rect id="Rectangle 881" x="14.0198" y="18.1416" width="2" height="1" transform="rotate(-45 14.0198 18.1416)" fill="#BFFFC8"/>
<rect id="Rectangle 872" x="28.8694" y="32.9912" width="2" height="1" transform="rotate(-45 28.8694 32.9912)" fill="#BFFFC8"/>
<rect id="Rectangle 873" x="26.7483" y="30.8701" width="2" height="1" transform="rotate(-45 26.7483 30.8701)" fill="#BFFFC8"/>
<rect id="Rectangle 874" x="18.9709" y="23.0918" width="8" height="8" transform="rotate(-45 18.9709 23.0918)" fill="#BFFFC8"/>
<path id="Rectangle 876" d="M19.264 34.1122L13.4624 35.457C12.7416 35.624 12.0953 34.9777 12.2624 34.257L13.6071 28.4554L29.578 12.4845C30.359 11.7035 31.6254 11.7035 32.4064 12.4845L35.2349 15.3129C36.0159 16.094 36.0159 17.3603 35.2349 18.1414L19.264 34.1122Z" fill="#077453"/>
<rect id="Rectangle 877" x="33.1135" y="20.2646" width="8" height="1" transform="rotate(-135 33.1135 20.2646)" fill="#BFFFC8"/>
<rect id="Rectangle 878" x="18.2639" y="22.3838" width="8" height="1" transform="rotate(-45 18.2639 22.3838)" fill="#BFFFC8"/>
<rect id="Rectangle 879" x="24.6272" y="28.748" width="8" height="1" transform="rotate(-45 24.6272 28.748)" fill="#BFFFC8"/>
</g>
</g>
</svg>
