<svg width="32" height="32" viewBox="0 0 32 32" fill="none" xmlns="http://www.w3.org/2000/svg">
<g id="Group 29">
<rect id="Rectangle 28" opacity="0.2" width="32" height="32" rx="8" fill="#819EB0"/>
<g id="Group">
<path id="Subtract" fill-rule="evenodd" clip-rule="evenodd" d="M9.32815 8C8.5914 8 7.99414 8.59726 7.99414 9.33401V22.6653C7.99414 23.4021 8.5914 23.9993 9.32815 23.9993H22.6601C23.3969 23.9993 23.9941 23.4021 23.9941 22.6653V9.33401C23.9941 8.59726 23.3969 8 22.6601 8H9.32815ZM18.4279 18.1656L15.9945 18.7822L19.4445 21.2988L18.4279 18.1656ZM17.3112 14.7324H21.5945L18.1445 17.2323L16.0112 18.7656L12.5445 21.2655L13.8612 17.2323L10.3945 14.7324H14.6779L15.9945 10.6992L17.3112 14.7324Z" fill="white"/>
</g>
</g>
</svg>
