<svg width="48" height="49" viewBox="0 0 48 49" fill="none" xmlns="http://www.w3.org/2000/svg">
<rect y="0.00537109" width="48" height="48.0022" rx="16" fill="#BFFFC8"/>
<path d="M11.8984 16.0249L14.7269 13.1965C16.289 11.6344 18.8216 11.6344 20.3837 13.1965L34.5259 27.3386C36.088 28.9007 36.088 31.4334 34.5259 32.9955L31.6974 35.8239L11.8984 16.0249Z" fill="#077453"/>
<path d="M11.8984 16.0249L14.7269 13.1965C16.289 11.6344 18.8216 11.6344 20.3837 13.1965L34.5259 27.3386C36.088 28.9007 36.088 31.4334 34.5259 32.9955L31.6974 35.8239L11.8984 16.0249Z" fill="#077453"/>
<rect x="16.1406" y="20.2671" width="2" height="1" transform="rotate(-45 16.1406 20.2671)" fill="#BFFFC8"/>
<rect x="14.0195" y="18.146" width="2" height="1" transform="rotate(-45 14.0195 18.146)" fill="#BFFFC8"/>
<rect x="28.8672" y="32.9956" width="2" height="1" transform="rotate(-45 28.8672 32.9956)" fill="#BFFFC8"/>
<rect x="26.7461" y="30.8745" width="2" height="1" transform="rotate(-45 26.7461 30.8745)" fill="#BFFFC8"/>
<rect x="18.9688" y="23.0962" width="8" height="8" transform="rotate(-45 18.9688 23.0962)" fill="#BFFFC8"/>
<path d="M19.2618 34.1171L13.4602 35.4619C12.7394 35.6289 12.0931 34.9826 12.2602 34.2619L13.6049 28.4603L29.5758 12.4894C30.3569 11.7083 31.6232 11.7083 32.4042 12.4894L35.2327 15.3178C36.0137 16.0989 36.0137 17.3652 35.2327 18.1462L19.2618 34.1171Z" fill="#077453"/>
<rect x="33.1133" y="20.269" width="8" height="1" transform="rotate(-135 33.1133 20.269)" fill="#BFFFC8"/>
<rect x="18.2617" y="22.3887" width="8" height="1" transform="rotate(-45 18.2617 22.3887)" fill="#BFFFC8"/>
<rect x="24.625" y="28.7529" width="8" height="1" transform="rotate(-45 24.625 28.7529)" fill="#BFFFC8"/>
</svg>
