<svg width="48" height="49" viewBox="0 0 48 49" fill="none" xmlns="http://www.w3.org/2000/svg">
<g id="Group 1794">
<g id="Group 1788">
<g id="Group 759">
<rect id="Rectangle 410" y="-0.000488281" width="48" height="48.0022" rx="16" fill="#BFFFC8"/>
</g>
<path id="Vector" d="M21.3333 27.8685C19.7667 27.8685 18.2905 27.5867 16.994 27.0893C15.6867 28.1122 14.0828 28.7355 12.3789 28.9142C12.3666 28.9155 12.3542 28.9161 12.3418 28.9161C12.1861 28.9161 12.0455 28.812 12.0077 28.6636C11.9669 28.4985 12.0947 28.397 12.2213 28.2759C12.847 27.6743 13.6056 27.2013 13.9022 25.1802C12.709 24.0364 12 22.6087 12 21.059C12 17.2978 16.179 14.2495 21.3333 14.2495C26.4876 14.2495 30.6667 17.2978 30.6667 21.059C30.6666 24.8228 26.4876 27.8685 21.3333 27.8685ZM35.7944 32.3341C35.2134 31.7871 34.5091 31.3572 34.2336 29.5198C37.1006 26.8295 36.4074 22.9809 32.6639 20.8921C32.6652 20.9477 32.6666 21.0032 32.6666 21.059C32.6666 26.1629 27.2673 30.0754 20.8228 29.8599C22.4112 31.1499 24.739 31.9637 27.3333 31.9637C28.788 31.9637 30.1587 31.7076 31.3626 31.2554C32.5765 32.1853 34.0659 32.7519 35.6482 32.9143C35.8059 32.9308 35.9549 32.8321 35.9927 32.6865C36.0307 32.5365 35.912 32.4442 35.7944 32.3341Z" fill="#077453"/>
</g>
</g>
</svg>
