<svg width="48" height="49" viewBox="0 0 48 49" fill="none" xmlns="http://www.w3.org/2000/svg">
<g id="Group 1860">
<rect id="Rectangle 410" x="48" y="48.0054" width="48" height="48.0022" rx="16" transform="rotate(-180 48 48.0054)" fill="#BFFFC8"/>
<path id="$" d="M28.9763 15.1306C30.0471 16.1396 30.706 17.5914 30.9531 19.4858L28.1732 19.4858C28.029 18.4768 27.6687 17.6943 27.0921 17.1383C26.5567 16.6853 25.9698 16.3867 25.3314 16.2426L25.3314 22.3275C28.6262 22.9247 30.2736 24.7986 30.2736 27.9491C30.2736 28.7934 30.1397 29.5862 29.872 30.3275C29.6043 31.0688 29.2028 31.7072 28.6674 32.2426C27.8025 33.1074 26.6905 33.6325 25.3314 33.8179L25.3314 35.6094L22.6133 35.6094L22.6133 33.8179C20.9041 33.5708 19.5656 32.85 18.5978 31.6557C17.7329 30.5437 17.2181 29.1847 17.0533 27.5785L17.1151 27.5476L19.8024 27.5476C19.9054 28.3507 20.1216 29.0096 20.4511 29.5244C20.9453 30.3275 21.666 30.832 22.6133 31.0379L22.6133 24.8295C21.2954 24.6029 20.1731 24.2117 19.2464 23.6557C17.7638 22.7085 17.0225 21.2464 17.0225 19.2696C17.0225 18.4871 17.1769 17.7355 17.4858 17.0148C17.7741 16.3147 18.1962 15.6969 18.7522 15.1615C19.7818 14.1525 21.0688 13.545 22.6133 13.3391L22.6133 11.6094L25.3314 11.6094L25.3314 13.4009C26.8347 13.648 28.0496 14.2246 28.9763 15.1306ZM27.1539 26.2812C26.7008 25.7046 26.0933 25.334 25.3314 25.1692L25.3314 31.0071C26.1551 30.8423 26.7832 30.4923 27.2156 29.9569C27.6275 29.4421 27.8334 28.8552 27.8334 28.1962C27.8334 27.4961 27.6069 26.8578 27.1539 26.2812ZM20.2348 20.9684C20.6055 21.4009 21.3983 21.7406 22.6133 21.9878L22.6133 16.1499C21.7484 16.3352 21.0482 16.7368 20.5128 17.3546C19.9569 17.9723 19.6789 18.6416 19.6789 19.3623C19.6789 19.9388 19.8642 20.4742 20.2348 20.9684Z" fill="#077453"/>
</g>
</svg>
