<svg width="25" height="24" viewBox="0 0 25 24" fill="none" xmlns="http://www.w3.org/2000/svg">
<g id="Coins" clip-path="url(#clip0_1974_4780)">
<path id="Vector" d="M24.3984 12C24.3984 14.3733 23.6947 16.6934 22.3761 18.6668C21.0575 20.6402 19.1834 22.1783 16.9906 23.0865C14.7979 23.9948 12.3851 24.2324 10.0574 23.7694C7.72959 23.3064 5.59139 22.1635 3.91316 20.4853C2.23493 18.807 1.09204 16.6688 0.62902 14.3411C0.165997 12.0133 0.403637 9.60048 1.31189 7.40777C2.22014 5.21505 3.75821 3.34091 5.7316 2.02233C7.70499 0.703757 10.0251 -3.05176e-05 12.3984 -3.05176e-05C15.581 -3.05176e-05 18.6333 1.26425 20.8837 3.51469C23.1342 5.76512 24.3984 8.81737 24.3984 12Z" fill="#BFFFC8"/>
<path id="Vector_2" fill-rule="evenodd" clip-rule="evenodd" d="M8.92716 5.47962L11.685 6.21817L12.3013 3.92072L13.6803 4.2949L13.0879 6.49744L14.2126 6.79962L14.8061 4.57308L16.209 4.94835L15.6046 7.1869C15.6046 7.1869 17.8955 7.69417 18.4344 9.55744C18.9733 11.4207 17.2497 12.3993 16.7173 12.4364C16.7173 12.4364 18.7246 13.5371 18.0352 15.7025C17.3457 17.868 15.2293 18.2553 13.0028 17.7589L12.3984 20.0804L10.9955 19.7051L11.6119 17.4196L10.4992 17.1164L9.8828 19.4182L8.4908 19.044L9.10825 16.7531L6.27734 15.9894L6.9908 14.4054C6.9908 14.4054 7.78934 14.6236 8.09153 14.6956C8.39371 14.7676 8.58789 14.4534 8.67298 14.1393C8.75807 13.8251 10.0399 8.61817 10.161 8.18944C10.2821 7.76072 10.233 7.42581 9.72462 7.29381C9.21625 7.16181 8.52462 6.95562 8.52462 6.95562L8.92716 5.47962ZM11.709 12.3753L10.9453 15.4113C10.9453 15.4113 14.7319 16.7782 15.2163 14.8549C15.7006 12.9316 11.709 12.3753 11.709 12.3753ZM12.0603 10.9353L12.8097 8.15344C12.8097 8.15344 16.0519 8.73381 15.6526 10.2818C15.2533 11.8298 13.3421 11.2364 12.0603 10.9353Z" fill="#2C906A"/>
</g>
<defs>
<clipPath id="clip0_1974_4780">
<rect width="24" height="24" fill="white" transform="translate(0.398438 -3.05176e-05)"/>
</clipPath>
</defs>
</svg>
