<svg width="24" height="24" viewBox="0 0 24 24" fill="none" xmlns="http://www.w3.org/2000/svg">
<mask id="path-1-outside-1_1925_21388" maskUnits="userSpaceOnUse" x="-0.5" y="-0.5" width="24" height="25" fill="black">
<rect fill="white" x="-0.5" y="-0.5" width="24" height="25"/>
<path fill-rule="evenodd" clip-rule="evenodd" d="M3.375 1.5C3.16789 1.5 3 1.66789 3 1.875V5.25H5.25V1.875C5.25 1.66789 5.08211 1.5 4.875 1.5H3.375ZM5.25 6.75H6C6.41421 6.75 6.75 7.08579 6.75 7.5V9.75C6.75 10.1642 6.41421 10.5 6 10.5H5.25H3H2.25C1.83579 10.5 1.5 10.1642 1.5 9.75V7.5C1.5 7.08579 1.83579 6.75 2.25 6.75H3H5.25ZM3 12V22.125C3 22.3321 3.16789 22.5 3.375 22.5H4.875C5.08211 22.5 5.25 22.3321 5.25 22.125V12H3ZM10.875 1.5C10.6679 1.5 10.5 1.66789 10.5 1.875V12H12.75V1.875C12.75 1.66789 12.5821 1.5 12.375 1.5H10.875ZM13.5 13.5H12.75H10.5H9.75C9.33579 13.5 9 13.8358 9 14.25V16.5C9 16.9142 9.33579 17.25 9.75 17.25H10.5H12.75H13.5C13.9142 17.25 14.25 16.9142 14.25 16.5V14.25C14.25 13.8358 13.9142 13.5 13.5 13.5ZM10.5 22.125V18.75H12.75V22.125C12.75 22.3321 12.5821 22.5 12.375 22.5H10.875C10.6679 22.5 10.5 22.3321 10.5 22.125ZM18 1.875C18 1.66789 18.1679 1.5 18.375 1.5H19.875C20.0821 1.5 20.25 1.66789 20.25 1.875V5.25H18V1.875ZM20.25 6.75H21C21.4142 6.75 21.75 7.08579 21.75 7.5V9.75C21.75 10.1642 21.4142 10.5 21 10.5H20.25H18H17.25C16.8358 10.5 16.5 10.1642 16.5 9.75V7.5C16.5 7.08579 16.8358 6.75 17.25 6.75H18H20.25ZM18 12V22.125C18 22.3321 18.1679 22.5 18.375 22.5H19.875C20.0821 22.5 20.25 22.3321 20.25 22.125V12H18Z"/>
</mask>
<path fill-rule="evenodd" clip-rule="evenodd" d="M3.375 1.5C3.16789 1.5 3 1.66789 3 1.875V5.25H5.25V1.875C5.25 1.66789 5.08211 1.5 4.875 1.5H3.375ZM5.25 6.75H6C6.41421 6.75 6.75 7.08579 6.75 7.5V9.75C6.75 10.1642 6.41421 10.5 6 10.5H5.25H3H2.25C1.83579 10.5 1.5 10.1642 1.5 9.75V7.5C1.5 7.08579 1.83579 6.75 2.25 6.75H3H5.25ZM3 12V22.125C3 22.3321 3.16789 22.5 3.375 22.5H4.875C5.08211 22.5 5.25 22.3321 5.25 22.125V12H3ZM10.875 1.5C10.6679 1.5 10.5 1.66789 10.5 1.875V12H12.75V1.875C12.75 1.66789 12.5821 1.5 12.375 1.5H10.875ZM13.5 13.5H12.75H10.5H9.75C9.33579 13.5 9 13.8358 9 14.25V16.5C9 16.9142 9.33579 17.25 9.75 17.25H10.5H12.75H13.5C13.9142 17.25 14.25 16.9142 14.25 16.5V14.25C14.25 13.8358 13.9142 13.5 13.5 13.5ZM10.5 22.125V18.75H12.75V22.125C12.75 22.3321 12.5821 22.5 12.375 22.5H10.875C10.6679 22.5 10.5 22.3321 10.5 22.125ZM18 1.875C18 1.66789 18.1679 1.5 18.375 1.5H19.875C20.0821 1.5 20.25 1.66789 20.25 1.875V5.25H18V1.875ZM20.25 6.75H21C21.4142 6.75 21.75 7.08579 21.75 7.5V9.75C21.75 10.1642 21.4142 10.5 21 10.5H20.25H18H17.25C16.8358 10.5 16.5 10.1642 16.5 9.75V7.5C16.5 7.08579 16.8358 6.75 17.25 6.75H18H20.25ZM18 12V22.125C18 22.3321 18.1679 22.5 18.375 22.5H19.875C20.0821 22.5 20.25 22.3321 20.25 22.125V12H18Z" fill="#BFFFC8"/>
<path d="M3 5.25H1.5V6.75H3V5.25ZM5.25 5.25V6.75H6.75V5.25H5.25ZM3 12V10.5H1.5V12H3ZM5.25 12H6.75V10.5H5.25V12ZM10.5 12H9V13.5H10.5V12ZM12.75 12V13.5H14.25V12H12.75ZM10.5 18.75V17.25H9V18.75H10.5ZM12.75 18.75H14.25V17.25H12.75V18.75ZM20.25 5.25V6.75H21.75V5.25H20.25ZM18 5.25H16.5V6.75H18V5.25ZM18 12V10.5H16.5V12H18ZM20.25 12H21.75V10.5H20.25V12ZM4.5 1.875C4.5 2.49632 3.99632 3 3.375 3V0C2.33947 0 1.5 0.839465 1.5 1.875H4.5ZM4.5 5.25V1.875H1.5V5.25H4.5ZM5.25 3.75H3V6.75H5.25V3.75ZM3.75 1.875V5.25H6.75V1.875H3.75ZM4.875 3C4.25368 3 3.75 2.49632 3.75 1.875H6.75C6.75 0.839466 5.91053 0 4.875 0V3ZM3.375 3H4.875V0H3.375V3ZM6 5.25H5.25V8.25H6V5.25ZM8.25 7.5C8.25 6.25736 7.24264 5.25 6 5.25V8.25C5.58579 8.25 5.25 7.91421 5.25 7.5H8.25ZM8.25 9.75V7.5H5.25V9.75H8.25ZM6 12C7.24264 12 8.25 10.9926 8.25 9.75H5.25C5.25 9.33579 5.58579 9 6 9V12ZM5.25 12H6V9H5.25V12ZM3 12H5.25V9H3V12ZM2.25 12H3V9H2.25V12ZM0 9.75C0 10.9926 1.00736 12 2.25 12V9C2.66421 9 3 9.33579 3 9.75H0ZM0 7.5V9.75H3V7.5H0ZM2.25 5.25C1.00736 5.25 0 6.25736 0 7.5H3C3 7.91421 2.66421 8.25 2.25 8.25V5.25ZM3 5.25H2.25V8.25H3V5.25ZM5.25 5.25H3V8.25H5.25V5.25ZM4.5 22.125V12H1.5V22.125H4.5ZM3.375 21C3.99632 21 4.5 21.5037 4.5 22.125H1.5C1.5 23.1605 2.33947 24 3.375 24V21ZM4.875 21H3.375V24H4.875V21ZM3.75 22.125C3.75 21.5037 4.25368 21 4.875 21V24C5.91053 24 6.75 23.1605 6.75 22.125H3.75ZM3.75 12V22.125H6.75V12H3.75ZM3 13.5H5.25V10.5H3V13.5ZM12 1.875C12 2.49632 11.4963 3 10.875 3V0C9.83947 0 9 0.839465 9 1.875H12ZM12 12V1.875H9V12H12ZM12.75 10.5H10.5V13.5H12.75V10.5ZM11.25 1.875V12H14.25V1.875H11.25ZM12.375 3C11.7537 3 11.25 2.49632 11.25 1.875H14.25C14.25 0.839466 13.4105 0 12.375 0V3ZM10.875 3H12.375V0H10.875V3ZM12.75 15H13.5V12H12.75V15ZM10.5 15H12.75V12H10.5V15ZM9.75 15H10.5V12H9.75V15ZM10.5 14.25C10.5 14.6642 10.1642 15 9.75 15V12C8.50736 12 7.5 13.0074 7.5 14.25H10.5ZM10.5 16.5V14.25H7.5V16.5H10.5ZM9.75 15.75C10.1642 15.75 10.5 16.0858 10.5 16.5H7.5C7.5 17.7426 8.50736 18.75 9.75 18.75V15.75ZM10.5 15.75H9.75V18.75H10.5V15.75ZM12.75 15.75H10.5V18.75H12.75V15.75ZM13.5 15.75H12.75V18.75H13.5V15.75ZM12.75 16.5C12.75 16.0858 13.0858 15.75 13.5 15.75V18.75C14.7426 18.75 15.75 17.7426 15.75 16.5H12.75ZM12.75 14.25V16.5H15.75V14.25H12.75ZM13.5 15C13.0858 15 12.75 14.6642 12.75 14.25H15.75C15.75 13.0074 14.7426 12 13.5 12V15ZM9 18.75V22.125H12V18.75H9ZM12.75 17.25H10.5V20.25H12.75V17.25ZM14.25 22.125V18.75H11.25V22.125H14.25ZM12.375 24C13.4105 24 14.25 23.1605 14.25 22.125H11.25C11.25 21.5037 11.7537 21 12.375 21V24ZM10.875 24H12.375V21H10.875V24ZM9 22.125C9 23.1605 9.83947 24 10.875 24V21C11.4963 21 12 21.5037 12 22.125H9ZM18.375 0C17.3395 0 16.5 0.839467 16.5 1.875H19.5C19.5 2.49632 18.9963 3 18.375 3V0ZM19.875 0H18.375V3H19.875V0ZM21.75 1.875C21.75 0.839468 20.9105 0 19.875 0V3C19.2537 3 18.75 2.49632 18.75 1.875H21.75ZM21.75 5.25V1.875H18.75V5.25H21.75ZM18 6.75H20.25V3.75H18V6.75ZM16.5 1.875V5.25H19.5V1.875H16.5ZM21 5.25H20.25V8.25H21V5.25ZM23.25 7.5C23.25 6.25736 22.2426 5.25 21 5.25V8.25C20.5858 8.25 20.25 7.91421 20.25 7.5H23.25ZM23.25 9.75V7.5H20.25V9.75H23.25ZM21 12C22.2426 12 23.25 10.9926 23.25 9.75H20.25C20.25 9.33579 20.5858 9 21 9V12ZM20.25 12H21V9H20.25V12ZM18 12H20.25V9H18V12ZM17.25 12H18V9H17.25V12ZM15 9.75C15 10.9926 16.0074 12 17.25 12V9C17.6642 9 18 9.33579 18 9.75H15ZM15 7.5V9.75H18V7.5H15ZM17.25 5.25C16.0074 5.25 15 6.25736 15 7.5H18C18 7.91421 17.6642 8.25 17.25 8.25V5.25ZM18 5.25H17.25V8.25H18V5.25ZM20.25 5.25H18V8.25H20.25V5.25ZM16.5 12V22.125H19.5V12H16.5ZM16.5 22.125C16.5 23.1605 17.3395 24 18.375 24V21C18.9963 21 19.5 21.5037 19.5 22.125H16.5ZM18.375 24H19.875V21H18.375V24ZM19.875 24C20.9105 24 21.75 23.1605 21.75 22.125H18.75C18.75 21.5037 19.2537 21 19.875 21V24ZM21.75 22.125V12H18.75V22.125H21.75ZM20.25 10.5H18V13.5H20.25V10.5Z" fill="#2C906A" mask="url(#path-1-outside-1_1925_21388)"/>
</svg>
