<svg width="48" height="49" viewBox="0 0 48 49" fill="none" xmlns="http://www.w3.org/2000/svg">
<rect opacity="0.2" y="0.00415039" width="48" height="48" rx="16" fill="#077453"/>
<path fill-rule="evenodd" clip-rule="evenodd" d="M23.7817 11.1309C23.925 11.095 24.075 11.095 24.2183 11.1309L33.8183 13.5309C34.2189 13.631 34.5 13.991 34.5 14.404V24.004C34.5 28.0058 31.8464 31.2343 29.3927 33.3813C28.1469 34.4714 26.9053 35.3245 25.977 35.9047C25.5119 36.1954 25.123 36.4191 24.8484 36.5711C24.711 36.6471 24.602 36.7054 24.5262 36.7452C24.4882 36.7651 24.4586 36.7804 24.4378 36.7911L24.4133 36.8036L24.4061 36.8072L24.4031 36.8087L24 36.004L23.5969 36.8087L23.5939 36.8072L23.5867 36.8036L23.5622 36.7911C23.5414 36.7804 23.5118 36.7651 23.4738 36.7452C23.398 36.7054 23.289 36.6471 23.1516 36.5711C22.877 36.4191 22.4881 36.1954 22.023 35.9047C21.0947 35.3245 19.8531 34.4714 18.6073 33.3813C16.1536 31.2343 13.5 28.0058 13.5 24.004V14.404C13.5 13.991 13.7811 13.631 14.1817 13.5309L23.7817 11.1309ZM23.5969 36.8087C23.5972 36.8089 23.5975 36.809 24 36.004C24.4025 36.809 24.4028 36.8089 24.4031 36.8087C24.1497 36.9354 23.8503 36.9354 23.5969 36.8087ZM30.4025 22.154C30.4025 25.6887 27.5372 28.554 24.0025 28.554C20.4679 28.554 17.6025 25.6887 17.6025 22.154C17.6025 18.6194 20.4679 15.754 24.0025 15.754C27.5372 15.754 30.4025 18.6194 30.4025 22.154ZM20.9511 21.9793C20.6734 22.2571 20.6734 22.7073 20.9511 22.985L22.6272 24.6611C22.7688 24.8027 22.9553 24.8721 23.1409 24.8693C23.3193 24.8667 23.497 24.7973 23.6332 24.6611L26.9854 21.3089C27.2631 21.0312 27.2631 20.5809 26.9854 20.3032C26.7077 20.0255 26.2575 20.0255 25.9797 20.3032L23.2978 22.9852C23.2052 23.0778 23.0551 23.0778 22.9626 22.9852L21.9567 21.9793C21.679 21.7016 21.2288 21.7016 20.9511 21.9793Z" fill="#077453"/>
</svg>
