<svg width="48" height="50" viewBox="0 0 48 50" fill="none" xmlns="http://www.w3.org/2000/svg">
<rect opacity="0.2" y="0.992188" width="48" height="48.0022" rx="16" fill="#077453"/>
<path d="M36 24.9927C36 18.3636 30.629 12.9927 24 12.9927C17.371 12.9927 12 18.3636 12 24.9927C12 31.6217 17.371 36.9927 24 36.9927C30.629 36.9927 36 31.6217 36 24.9927ZM21.871 30.6056V24.9927H18.4403C17.9226 24.9927 17.6613 24.3636 18.029 24.0007L23.5887 18.4701C23.8161 18.2427 24.179 18.2427 24.4065 18.4701L29.9661 24.0007C30.3339 24.3685 30.0726 24.9927 29.5548 24.9927H26.129V30.6056C26.129 30.9249 25.8677 31.1862 25.5484 31.1862H22.4516C22.1323 31.1862 21.871 30.9249 21.871 30.6056Z" fill="#077453"/>
</svg>
