<svg width="24" height="23" viewBox="0 0 24 23" fill="none" xmlns="http://www.w3.org/2000/svg">
<path fill-rule="evenodd" clip-rule="evenodd" d="M23.9266 2.49287L23.2192 4.39112C22.6651 5.67947 22.3719 6.35838 22.3395 6.42787C21.5255 8.17417 20.4054 10.2158 19.0659 11.6247C17.7871 12.9697 15.8571 14.2089 14.3113 15.0891C14.7085 17.0028 14.1645 19.0729 12.6792 20.5581C9.95402 23.2832 6.91018 23.2837 4.64531 22.6105C2.92874 22.1001 1.51747 21.1735 0.169095 20.0326C-0.0686886 19.8313 -0.0536366 19.4623 0.201275 19.2833L0.801719 18.8495C1.6082 18.2403 2.39146 17.4974 2.59026 16.5034C2.7276 15.3924 2.80627 14.7868 2.82629 14.6867C2.9917 13.8597 3.34171 12.9206 4.19164 12.0707C5.67687 10.5856 7.74685 10.0415 9.66054 10.4387C10.5407 8.89292 11.7801 6.9629 13.1251 5.684C14.5341 4.3445 16.5757 3.22451 18.3221 2.41052L20.3588 1.5308L22.2571 0.823383C23.2935 0.469369 24.2807 1.45645 23.9266 2.49287ZM11.8784 11.3975C12.1596 11.5949 12.4278 11.8194 12.6792 12.0707C12.9306 12.322 13.1549 12.5902 13.3524 12.8714C13.8221 12.5992 14.3066 12.3038 14.7804 11.9932L14.7438 11.9124C14.6047 11.6156 14.3611 11.2065 13.9523 10.7976C13.6018 10.4471 13.2511 10.2182 12.9713 10.0723L12.7565 9.96947C12.446 10.4432 12.1506 10.9278 11.8784 11.3975ZM20.8115 3.93845C20.3516 4.12895 19.852 4.34598 19.3362 4.58635C17.6452 5.37453 15.8958 6.36214 14.7793 7.42375C14.5907 7.60299 14.402 7.8016 14.2143 8.01522C14.6498 8.25614 15.1536 8.60399 15.6498 9.10015C16.1459 9.59627 16.4937 10.1001 16.7346 10.5354C16.9483 10.3478 17.1469 10.159 17.3261 9.97056C18.3877 8.85395 19.3753 7.10464 20.1636 5.41367C20.404 4.89799 20.621 4.39837 20.8115 3.93845Z" fill="#BFFFC8"/>
</svg>
