<svg width="25" height="25" viewBox="0 0 25 25" fill="none" xmlns="http://www.w3.org/2000/svg">
<path fill-rule="evenodd" clip-rule="evenodd" d="M24.3984 12.0045C24.3984 5.37712 19.0258 0.00448608 12.3984 0.00448608C5.77102 0.00448608 0.398438 5.37712 0.398438 12.0045C0.398438 18.6319 5.77102 24.0045 12.3984 24.0045C19.0258 24.0045 24.3984 18.6319 24.3984 12.0045ZM7.81662 11.8954C7.81662 14.423 9.87081 16.4772 12.3984 16.4772C13.1697 16.4772 13.9028 16.2863 14.5366 15.9427L15.6515 17.0576C14.7123 17.6532 13.5974 18.0045 12.3984 18.0045C9.02316 18.0045 6.28935 15.2707 6.28935 11.8954H3.99844L7.05298 8.84081L10.1075 11.8954H7.81662ZM17.7438 14.9499L14.6894 11.8954H16.9803C16.9803 9.36773 14.9261 7.31357 12.3984 7.31357C11.6272 7.31357 10.8941 7.50449 10.2603 7.84817L9.14535 6.73325C10.0846 6.13757 11.1995 5.78632 12.3984 5.78632C15.7737 5.78632 18.5075 8.52016 18.5075 11.8954H20.7984L17.7438 14.9499Z" fill="#BFFFC8"/>
</svg>
