<svg width="48" height="49" viewBox="0 0 48 49" fill="none" xmlns="http://www.w3.org/2000/svg">
<rect opacity="0.2" width="48" height="48.0022" rx="16" transform="matrix(1 0 0 -1 0 48.0042)" fill="#077453"/>
<path d="M14.6584 32.314C13.6824 32.314 12.7944 32.09 11.9944 31.642C11.1944 31.186 10.5024 30.558 9.91844 29.758C9.34244 28.958 8.89844 28.034 8.58644 26.986C8.27444 25.93 8.11844 24.802 8.11844 23.602C8.11844 22.402 8.27444 21.278 8.58644 20.23C8.89844 19.174 9.34244 18.246 9.91844 17.446C10.5024 16.646 11.1944 16.022 11.9944 15.574C12.7944 15.118 13.6824 14.89 14.6584 14.89C15.6344 14.89 16.5224 15.118 17.3224 15.574C18.1224 16.022 18.8064 16.646 19.3744 17.446C19.9504 18.246 20.3944 19.174 20.7064 20.23C21.0264 21.278 21.1864 22.402 21.1864 23.602C21.1864 24.802 21.0264 25.93 20.7064 26.986C20.3944 28.034 19.9504 28.958 19.3744 29.758C18.8064 30.558 18.1224 31.186 17.3224 31.642C16.5224 32.09 15.6344 32.314 14.6584 32.314ZM14.6584 29.386C15.5144 29.386 16.2224 29.114 16.7824 28.57C17.3424 28.026 17.7584 27.314 18.0304 26.434C18.3024 25.554 18.4384 24.61 18.4384 23.602C18.4384 22.538 18.2944 21.57 18.0064 20.698C17.7184 19.818 17.2944 19.118 16.7344 18.598C16.1744 18.078 15.4824 17.818 14.6584 17.818C14.0104 17.818 13.4464 17.978 12.9664 18.298C12.4944 18.61 12.1024 19.038 11.7904 19.582C11.4784 20.126 11.2464 20.746 11.0944 21.442C10.9424 22.13 10.8664 22.85 10.8664 23.602C10.8664 24.602 11.0024 25.546 11.2744 26.434C11.5544 27.314 11.9744 28.026 12.5344 28.57C13.1024 29.114 13.8104 29.386 14.6584 29.386ZM24.4143 32.002L34.1103 15.202H37.4943L27.7983 32.002H24.4143ZM26.4783 22.486C25.8223 22.486 25.2183 22.33 24.6663 22.018C24.1223 21.698 23.6863 21.266 23.3583 20.722C23.0303 20.178 22.8663 19.57 22.8663 18.898C22.8663 18.21 23.0303 17.594 23.3583 17.05C23.6943 16.506 24.1343 16.078 24.6783 15.766C25.2303 15.454 25.8303 15.298 26.4783 15.298C27.1343 15.298 27.7343 15.458 28.2783 15.778C28.8223 16.098 29.2543 16.53 29.5743 17.074C29.9023 17.618 30.0663 18.226 30.0663 18.898C30.0663 19.578 29.8983 20.19 29.5623 20.734C29.2343 21.278 28.7983 21.706 28.2543 22.018C27.7103 22.33 27.1183 22.486 26.4783 22.486ZM26.4783 20.482C26.9103 20.482 27.2823 20.33 27.5943 20.026C27.9063 19.714 28.0623 19.338 28.0623 18.898C28.0623 18.45 27.9063 18.074 27.5943 17.77C27.2823 17.466 26.9103 17.314 26.4783 17.314C26.0383 17.314 25.6583 17.466 25.3383 17.77C25.0263 18.074 24.8703 18.45 24.8703 18.898C24.8703 19.338 25.0263 19.714 25.3383 20.026C25.6583 20.33 26.0383 20.482 26.4783 20.482ZM35.4303 31.918C34.7663 31.918 34.1623 31.754 33.6183 31.426C33.0743 31.09 32.6423 30.65 32.3223 30.106C32.0023 29.554 31.8423 28.962 31.8423 28.33C31.8423 27.642 32.0063 27.026 32.3343 26.482C32.6703 25.938 33.1103 25.51 33.6543 25.198C34.2063 24.878 34.7983 24.718 35.4303 24.718C36.1183 24.718 36.7343 24.886 37.2783 25.222C37.8223 25.558 38.2503 26.002 38.5623 26.554C38.8823 27.098 39.0423 27.69 39.0423 28.33C39.0423 28.986 38.8783 29.586 38.5503 30.13C38.2303 30.674 37.7943 31.11 37.2423 31.438C36.6983 31.758 36.0943 31.918 35.4303 31.918ZM35.4303 29.914C35.8783 29.914 36.2583 29.758 36.5703 29.446C36.8823 29.134 37.0383 28.762 37.0383 28.33C37.0383 27.882 36.8823 27.502 36.5703 27.19C36.2583 26.878 35.8783 26.722 35.4303 26.722C34.9983 26.722 34.6263 26.878 34.3143 27.19C34.0023 27.502 33.8463 27.882 33.8463 28.33C33.8463 28.762 34.0023 29.134 34.3143 29.446C34.6263 29.758 34.9983 29.914 35.4303 29.914Z" fill="#077453"/>
</svg>
