<svg width="500" height="500" viewBox="0 0 500 500" fill="none" xmlns="http://www.w3.org/2000/svg">
<rect x="84" y="248" width="80" height="80" rx="8" transform="rotate(-90 84 248)" fill="#077453" fill-opacity="0.4"/>
<path fill-rule="evenodd" clip-rule="evenodd" d="M115.111 248C115.111 230.818 101.182 216.889 84 216.889L84 199.111C111.001 199.111 132.889 220.999 132.889 248L115.111 248Z" fill="#BFFFC8"/>
<rect x="80" y="168" width="80" height="80" rx="8" transform="rotate(90 80 168)" fill="#077453" fill-opacity="0.4"/>
<path fill-rule="evenodd" clip-rule="evenodd" d="M48.8889 168C48.8889 185.182 62.8178 199.111 80 199.111L80 216.889C52.9994 216.889 31.1111 195.001 31.1111 168L48.8889 168Z" fill="#BFFFC8"/>
<rect width="80" height="80" rx="8" transform="matrix(1.19249e-08 1 1 -1.19249e-08 84 336)" fill="#077453" fill-opacity="0.4"/>
<path fill-rule="evenodd" clip-rule="evenodd" d="M115.111 336C115.111 353.182 101.182 367.111 84 367.111L84 384.889C111.001 384.889 132.889 363.001 132.889 336L115.111 336Z" fill="#BFFFC8"/>
<rect width="80" height="80" rx="8" transform="matrix(-1 -8.74228e-08 -8.74228e-08 1 80 336)" fill="#077453" fill-opacity="0.4"/>
<path fill-rule="evenodd" clip-rule="evenodd" d="M80 367.111C62.8178 367.111 48.8889 353.182 48.8889 336L31.1111 336C31.1111 363.001 52.9994 384.889 80 384.889L80 367.111Z" fill="#BFFFC8"/>
<rect x="416" y="164" width="80" height="80" rx="8" transform="rotate(180 416 164)" fill="#077453" fill-opacity="0.4"/>
<path d="M384.889 164C384.889 146.818 398.818 132.889 416 132.889L416 115.111C399.465 115.111 384.848 123.32 376 135.884C367.152 123.32 352.535 115.111 336 115.111L336 132.889C353.182 132.889 367.111 146.818 367.111 164L384.889 164Z" fill="#BFFFC8"/>
<rect x="248" y="416" width="80" height="80" rx="8" transform="rotate(180 248 416)" fill="#077453" fill-opacity="0.4"/>
<path fill-rule="evenodd" clip-rule="evenodd" d="M248 384.889C230.818 384.889 216.889 398.818 216.889 416L199.111 416C199.111 388.999 220.999 367.111 248 367.111L248 384.889Z" fill="#BFFFC8"/>
<rect x="168" y="164" width="80" height="80" rx="8" transform="rotate(-90 168 164)" fill="#077453" fill-opacity="0.4"/>
<rect x="84" y="164" width="80" height="80" rx="8" transform="rotate(-90 84 164)" fill="#077453" fill-opacity="0.4"/>
<rect x="1" y="163" width="78" height="78" rx="7" transform="rotate(-90 1 163)" stroke="#077453" stroke-opacity="0.2" stroke-width="2"/>
<rect x="84" y="80" width="80" height="80" rx="8" transform="rotate(-90 84 80)" fill="#077453" fill-opacity="0.4"/>
<rect x="336" y="168" width="80" height="80" rx="8" fill="#077453" fill-opacity="0.4"/>
<path fill-rule="evenodd" clip-rule="evenodd" d="M336 199.111C353.182 199.111 367.111 185.182 367.111 168H384.889C384.889 195.001 363.001 216.889 336 216.889L336 199.111Z" fill="#BFFFC8"/>
<rect x="421" y="169" width="78" height="78" rx="7" stroke="#077453" stroke-opacity="0.2" stroke-width="2"/>
<rect x="248" y="80" width="80" height="80" rx="8" transform="rotate(180 248 80)" fill="#077453" fill-opacity="0.4"/>
<rect x="331" y="79" width="78" height="78" rx="7" transform="rotate(180 331 79)" stroke="#077453" stroke-opacity="0.2" stroke-width="2"/>
<rect x="416" y="80" width="80" height="80" rx="8" transform="rotate(180 416 80)" fill="#077453" fill-opacity="0.4"/>
<rect x="332" y="84" width="80" height="80" rx="8" transform="rotate(90 332 84)" fill="#077453" fill-opacity="0.4"/>
<path fill-rule="evenodd" clip-rule="evenodd" d="M300.889 84C300.889 101.182 314.818 115.111 332 115.111L332 132.889C304.999 132.889 283.111 111.001 283.111 84L300.889 84Z" fill="#BFFFC8"/>
<rect x="252" y="336" width="80" height="80" rx="8" fill="#077453" fill-opacity="0.4"/>
<path d="M283.111 336C283.111 353.182 269.182 367.111 252 367.111L252 384.889C268.535 384.889 283.152 376.68 292 364.116C300.848 376.68 315.465 384.889 332 384.889L332 367.111C314.818 367.111 300.889 353.182 300.889 336H283.111Z" fill="#BFFFC8"/>
<rect x="164" y="252" width="80" height="80" rx="8" transform="rotate(90 164 252)" fill="#077453" fill-opacity="0.4"/>
<path d="M164 283.111C146.818 283.111 132.889 269.182 132.889 252L115.111 252C115.111 268.535 123.32 283.152 135.884 292C123.32 300.848 115.111 315.465 115.111 332L132.889 332C132.889 314.818 146.818 300.889 164 300.889L164 283.111Z" fill="#BFFFC8"/>
<rect x="79" y="253" width="78" height="78" rx="7" transform="rotate(90 79 253)" stroke="#077453" stroke-opacity="0.2" stroke-width="2"/>
<rect width="80" height="80" rx="8" transform="matrix(-4.37114e-08 -1 -1 4.37114e-08 416 332)" fill="#077453" fill-opacity="0.4"/>
<path fill-rule="evenodd" clip-rule="evenodd" d="M384.889 332C384.889 314.818 398.818 300.889 416 300.889L416 283.111C388.999 283.111 367.111 304.999 367.111 332L384.889 332Z" fill="#BFFFC8"/>
<rect width="80" height="80" rx="8" transform="matrix(1 0 0 -1 420 164)" fill="#077453" fill-opacity="0.4"/>
<path fill-rule="evenodd" clip-rule="evenodd" d="M420 132.889C437.182 132.889 451.111 146.818 451.111 164H468.889C468.889 136.999 447.001 115.111 420 115.111V132.889Z" fill="#BFFFC8"/>
<rect width="80" height="80" rx="8" transform="matrix(1 0 0 -1 420 332)" fill="#077453" fill-opacity="0.4"/>
<path fill-rule="evenodd" clip-rule="evenodd" d="M420 300.889C437.182 300.889 451.111 314.818 451.111 332H468.889C468.889 304.999 447.001 283.111 420 283.111V300.889Z" fill="#BFFFC8"/>
<rect width="80" height="80" rx="8" transform="matrix(1.19249e-08 1 1 -1.19249e-08 336 336)" fill="#077453" fill-opacity="0.4"/>
<path fill-rule="evenodd" clip-rule="evenodd" d="M367.111 336C367.111 353.182 353.182 367.111 336 367.111L336 384.889C363.001 384.889 384.889 363.001 384.889 336L367.111 336Z" fill="#BFFFC8"/>
<rect x="421" y="415" width="78" height="78" rx="7" transform="rotate(-90 421 415)" stroke="#077453" stroke-opacity="0.2" stroke-width="2"/>
<rect x="336" y="500" width="80" height="80" rx="8" transform="rotate(-90 336 500)" fill="#077453" fill-opacity="0.4"/>
<rect x="252" y="500" width="80" height="80" rx="8" transform="rotate(-90 252 500)" fill="#077453" fill-opacity="0.4"/>
<rect x="169" y="499" width="78" height="78" rx="7" transform="rotate(-90 169 499)" stroke="#077453" stroke-opacity="0.2" stroke-width="2"/>
<rect x="84" y="500" width="80" height="80" rx="8" transform="rotate(-90 84 500)" fill="#077453" fill-opacity="0.4"/>
<rect x="168" y="168" width="164" height="164" rx="32" fill="#077453"/>
<rect opacity="0.4" x="176" y="176" width="148" height="148" rx="28" stroke="#BFFFC8" stroke-width="2" stroke-dasharray="2 4"/>
<g clip-path="url(#clip0_87_5615)">
<path d="M460 232C473.255 232 484 221.255 484 208C484 194.745 473.255 184 460 184C446.745 184 436 194.745 436 208C436 221.255 446.745 232 460 232Z" fill="#077453"/>
<path d="M471.476 204.85C471.976 201.512 469.433 199.718 465.959 198.52L467.086 193.997L464.334 193.312L463.235 197.716C462.513 197.534 461.77 197.365 461.03 197.197L462.137 192.765L459.385 192.078L458.258 196.599C457.659 196.462 457.07 196.329 456.5 196.185L456.503 196.171L452.706 195.223L451.974 198.163C451.974 198.163 454.017 198.631 453.974 198.66C455.089 198.939 455.289 199.676 455.256 200.262L453.972 205.414C454.049 205.433 454.148 205.462 454.259 205.505L453.968 205.433L452.168 212.651C452.031 212.988 451.686 213.496 450.905 213.304C450.934 213.343 448.905 212.805 448.905 212.805L447.539 215.955L451.122 216.849C451.788 217.016 452.441 217.191 453.082 217.355L451.944 221.929L454.694 222.614L455.821 218.091C456.573 218.293 457.302 218.481 458.016 218.659L456.891 223.163L459.643 223.848L460.782 219.284C465.476 220.172 469.005 219.814 470.491 215.568C471.688 212.151 470.432 210.177 467.962 208.892C469.761 208.478 471.115 207.295 471.476 204.85ZM465.186 213.67C464.337 217.089 458.581 215.24 456.715 214.777L458.227 208.717C460.094 209.184 466.076 210.106 465.186 213.67ZM466.038 204.801C465.263 207.911 460.473 206.33 458.92 205.943L460.29 200.449C461.842 200.836 466.847 201.557 466.038 204.801Z" fill="#BFFFC8"/>
</g>
<g clip-path="url(#clip1_87_5615)">
<path fill-rule="evenodd" clip-rule="evenodd" d="M39.9062 268C44.653 268 49.2932 269.408 53.2399 272.045C57.1867 274.682 60.2629 278.43 62.0794 282.816C63.8959 287.201 64.3711 292.027 63.4451 296.682C62.5191 301.338 60.2333 305.614 56.8768 308.971C53.5204 312.327 49.244 314.613 44.5884 315.539C39.9329 316.465 35.1073 315.99 30.7218 314.173C26.3364 312.357 22.5881 309.28 19.951 305.334C17.3138 301.387 15.9063 296.747 15.9062 292C15.9062 285.635 18.4348 279.53 22.9357 275.029C27.4366 270.529 33.5411 268 39.9062 268V268Z" fill="#077453"/>
<path fill-rule="evenodd" clip-rule="evenodd" d="M39.9102 275.008L45.6025 283.491L51.2949 291.997L39.9102 287.7V275.008Z" fill="#BFFFC8"/>
<path fill-rule="evenodd" clip-rule="evenodd" d="M39.9102 300.046L50.6851 294.309L39.9102 309.009V300.046Z" fill="#BFFFC8"/>
<path fill-rule="evenodd" clip-rule="evenodd" d="M39.9102 287.703L51.2949 292.001L39.9102 297.736V287.703Z" fill="#BFFFC8"/>
<path fill-rule="evenodd" clip-rule="evenodd" d="M39.9082 275.008L34.2158 283.491L28.5234 291.997L39.9082 287.7V275.008Z" fill="#BFFFC8"/>
<path fill-rule="evenodd" clip-rule="evenodd" d="M39.9135 300.046L29.1602 294.309L39.9135 309.009V300.046Z" fill="#BFFFC8"/>
<path fill-rule="evenodd" clip-rule="evenodd" d="M39.9082 287.703L28.5234 292.001L39.9082 297.736V287.703Z" fill="#BFFFC8"/>
</g>
<g clip-path="url(#clip2_87_5615)">
<path d="M460 400C473.255 400 484 389.255 484 376C484 362.745 473.255 352 460 352C446.745 352 436 362.745 436 376C436 389.255 446.745 400 460 400Z" fill="#077453"/>
<path fill-rule="evenodd" clip-rule="evenodd" d="M462.883 378.074V378.071C462.718 378.083 461.867 378.134 459.97 378.134C458.455 378.134 457.388 378.089 457.013 378.071V378.075C451.181 377.819 446.828 376.803 446.828 375.588C446.828 374.375 451.181 373.359 457.013 373.098V377.064C457.394 377.091 458.486 377.156 459.995 377.156C461.806 377.156 462.713 377.081 462.883 377.066V373.101C468.703 373.361 473.045 374.376 473.045 375.588C473.045 376.803 468.703 377.816 462.883 378.074ZM462.883 372.689V369.14H471.004V363.728H448.892V369.14H457.013V372.687C450.413 372.99 445.45 374.298 445.45 375.864C445.45 377.43 450.413 378.737 457.013 379.041V390.414H462.883V379.038C469.472 378.735 474.424 377.429 474.424 375.864C474.424 374.3 469.472 372.993 462.883 372.689Z" fill="#BFFFC8"/>
</g>
<circle cx="208" cy="460" r="24" fill="#077453"/>
<path d="M205.996 475.6L198.652 462.788V459.769H201.1C202.079 459.769 202.936 459.633 203.67 459.361C204.432 459.062 205.058 458.64 205.547 458.096C206.064 457.552 206.418 456.9 206.608 456.138H198.652V453.119H206.567C206.404 452.412 206.118 451.786 205.71 451.242C205.33 450.698 204.813 450.276 204.16 449.977C203.534 449.651 202.773 449.488 201.875 449.488H198.652V446.468H217.053V449.488H210.647C211.11 450.004 211.49 450.562 211.79 451.16C212.116 451.759 212.334 452.412 212.442 453.119H217.053V456.138H212.524C212.252 458.151 211.477 459.728 210.198 460.871C208.92 461.986 207.274 462.748 205.262 463.156L213.258 475.6H205.996Z" fill="#BFFFC8"/>
<circle cx="292" cy="40" r="24" fill="#077453"/>
<path d="M284.894 52.0704C283.369 50.6331 282.43 48.5651 282.078 45.8664H286.038C286.243 47.3038 286.757 48.4184 287.578 49.2104C288.341 49.8558 289.177 50.2811 290.086 50.4864V41.8184C285.393 40.9678 283.046 38.2984 283.046 33.8104C283.046 32.6078 283.237 31.4784 283.618 30.4224C283.999 29.3664 284.571 28.4571 285.334 27.6944C286.566 26.4624 288.15 25.7144 290.086 25.4504V22.8984H293.958V25.4504C296.393 25.8024 298.299 26.8291 299.678 28.5304C300.91 30.1144 301.643 32.0504 301.878 34.3384L301.79 34.3824H297.962C297.815 33.2384 297.507 32.2998 297.038 31.5664C296.334 30.4224 295.307 29.7038 293.958 29.4104V38.2544C295.835 38.5771 297.434 39.1344 298.754 39.9264C300.866 41.2758 301.922 43.3584 301.922 46.1744C301.922 47.2891 301.702 48.3598 301.262 49.3864C300.851 50.3838 300.25 51.2638 299.458 52.0264C297.991 53.4638 296.158 54.3291 293.958 54.6224V57.0864H290.086V54.5344C287.945 54.1824 286.214 53.3611 284.894 52.0704ZM287.49 36.1864C288.135 37.0078 289.001 37.5358 290.086 37.7704V29.4544C288.913 29.6891 288.018 30.1878 287.402 30.9504C286.815 31.6838 286.522 32.5198 286.522 33.4584C286.522 34.4558 286.845 35.3651 287.49 36.1864ZM297.346 43.7544C296.818 43.1384 295.689 42.6544 293.958 42.3024V50.6184C295.19 50.3544 296.187 49.7824 296.95 48.9024C297.742 48.0224 298.138 47.0691 298.138 46.0424C298.138 45.2211 297.874 44.4584 297.346 43.7544Z" fill="#BFFFC8"/>
<circle cx="40" cy="124" r="24" fill="#077453"/>
<path d="M43.2155 113.281C46.5115 113.281 49.4541 114.8 51.3877 117.178L53.1106 113.484C50.4163 110.937 46.7491 109.367 42.7044 109.367C36.4064 109.367 31.0191 113.171 28.8083 118.555H25.4487L23.4648 122.807H27.7867C27.7542 123.202 27.733 123.596 27.733 123.999C27.733 124.487 27.7584 124.969 27.8065 125.444H25.6346L23.6515 129.698H28.9115C31.1853 134.946 36.5054 138.63 42.7044 138.63C45.8286 138.63 48.7273 137.694 51.1275 136.095V130.882C49.1946 133.083 46.3673 134.473 43.2155 134.473C39.5313 134.473 36.2905 132.574 34.4035 129.698H45.4171L47.4009 125.444H32.7831C32.7074 124.933 32.6671 124.409 32.6671 123.876C32.6671 123.516 32.6855 123.16 32.7208 122.807H48.6304L50.6135 118.555H34.096C35.9228 115.403 39.3221 113.281 43.2155 113.281Z" fill="#BFFFC8"/>
<path d="M43.2125 113.41C46.3537 113.41 49.2962 114.815 51.2857 117.261L51.4143 117.419L51.5013 117.235L53.2235 113.541L53.2617 113.456L53.196 113.393C50.3637 110.716 46.6364 109.242 42.7013 109.242C39.628 109.242 36.6713 110.14 34.1495 111.839C31.687 113.497 29.7979 115.804 28.6879 118.508L28.8053 118.429H25.4456H25.3636L25.3297 118.503L23.3466 122.756L23.2617 122.938H23.4618H27.7837L27.6564 122.799C27.6204 123.241 27.6027 123.633 27.6027 124.002C27.6027 124.479 27.6274 124.97 27.6762 125.459L27.8035 125.319H25.6316H25.551L25.517 125.393L23.5325 129.646L23.4484 129.828H23.6484H28.9085L28.7911 129.751C31.1624 135.223 36.6225 138.76 42.7013 138.76C45.7485 138.76 48.6846 137.877 51.1952 136.204L51.251 136.167V136.097V130.884V130.545L51.0283 130.8C49.048 133.054 46.1995 134.347 43.2125 134.347C39.6987 134.347 36.4444 132.583 34.5065 129.63L34.4005 129.828H45.4141H45.4961L45.53 129.755L47.5138 125.5L47.5987 125.319H47.3979H32.78L32.9066 125.428C32.8309 124.913 32.792 124.393 32.792 123.879C32.792 123.529 32.8097 123.174 32.8451 122.822L32.7178 122.938H48.6274H48.7094L48.7433 122.864L50.7264 118.611L50.812 118.429H50.6105H34.0929L34.2032 118.621C36.0654 115.407 39.5184 113.41 43.2125 113.41ZM34.0929 118.685H50.6105L50.4945 118.503L48.5121 122.756L48.6274 122.682H32.7178H32.6026L32.5898 122.798C32.5545 123.157 32.5368 123.521 32.5368 123.879C32.5368 124.405 32.5764 124.939 32.6535 125.466L32.6704 125.575H32.78H47.3979L47.2826 125.393L45.2995 129.646L45.4141 129.573H34.4005H34.1636L34.2937 129.769C36.2782 132.796 39.6131 134.601 43.2125 134.601C46.2723 134.601 49.1915 133.278 51.2206 130.968L50.9965 130.884V136.097L51.0531 135.992C48.5849 137.636 45.6976 138.504 42.7013 138.504C36.7236 138.504 31.3561 135.028 29.0259 129.649L28.9919 129.573H28.9085H23.6484L23.7651 129.755L25.7475 125.5L25.6316 125.575H27.8035H27.9442L27.9307 125.434C27.8826 124.953 27.8572 124.47 27.8572 124.002C27.8572 123.641 27.8749 123.254 27.9109 122.82L27.9222 122.682H27.7837H23.4618L23.577 122.864L25.5609 118.611L25.4456 118.685H28.8053H28.8908L28.9226 118.605C30.015 115.948 31.8715 113.681 34.2923 112.05C36.771 110.381 39.6796 109.498 42.7013 109.498C46.5714 109.498 50.2351 110.947 53.0199 113.579L52.9916 113.432L51.2701 117.126L51.4843 117.099C49.4446 114.593 46.4307 113.155 43.2125 113.155C39.4265 113.155 35.8908 115.201 33.9819 118.493L33.8709 118.685H34.0929Z" fill="#BFFFC8"/>
<mask id="mask0_87_5615" style="mask-type:alpha" maskUnits="userSpaceOnUse" x="225" y="203" width="50" height="50">
<circle cx="250" cy="228" r="25" fill="#077453"/>
</mask>
<g mask="url(#mask0_87_5615)">
<circle opacity="0.2" cx="250" cy="228" r="25" fill="#077453"/>
<path d="M224 253H253V231C253 227.686 250.314 225 247 225H224V253Z" fill="#BFFFC8"/>
<path d="M255 253H284V225H261C257.686 225 255 227.686 255 231V253Z" fill="#BFFFC8"/>
<path d="M224 223H247C250.314 223 253 220.314 253 217V195H224V223Z" fill="#BFFFC8"/>
<path d="M255 217C255 220.314 257.686 223 261 223H284V195H255V217Z" fill="#BFFFC8"/>
</g>
<path d="M204.037 270.333H209.189V288.999H204.037V270.333ZM206.651 268.186C205.904 268.186 205.275 267.938 204.765 267.44C204.255 266.942 204 266.326 204 265.592C204 264.858 204.255 264.242 204.765 263.744C205.275 263.246 205.898 262.997 206.632 262.997C207.366 262.997 207.982 263.246 208.48 263.744C208.99 264.242 209.245 264.858 209.245 265.592C209.245 266.326 208.996 266.942 208.498 267.44C208.013 267.938 207.397 268.186 206.651 268.186Z" fill="#BFFFC8"/>
<path d="M230.256 277.127V288.999H225.104V278.546C225.104 277.886 224.942 277.295 224.619 276.773C224.308 276.238 223.884 275.815 223.349 275.503C222.827 275.192 222.242 275.037 221.595 275.037C220.948 275.037 220.357 275.192 219.822 275.503C219.286 275.815 218.863 276.238 218.552 276.773C218.241 277.295 218.086 277.886 218.086 278.546V288.999H212.934L212.915 270.333H218.067L218.086 271.714C218.708 271.117 219.436 270.65 220.27 270.314C221.116 269.978 222.005 269.81 222.939 269.81C224.295 269.81 225.521 270.14 226.616 270.8C227.723 271.459 228.607 272.343 229.266 273.45C229.926 274.545 230.256 275.771 230.256 277.127Z" fill="#BFFFC8"/>
<path d="M242.321 289.522C240.516 289.522 238.868 289.08 237.374 288.196C235.894 287.313 234.711 286.124 233.828 284.631C232.944 283.138 232.503 281.483 232.503 279.666C232.503 278.31 232.758 277.04 233.268 275.858C233.778 274.676 234.481 273.637 235.377 272.741C236.286 271.832 237.331 271.123 238.513 270.613C239.695 270.103 240.964 269.848 242.321 269.848C243.403 269.848 244.362 270.084 245.195 270.557C246.029 271.017 246.738 271.615 247.323 272.349V270.333H252.475V298.447H247.323V287.02C246.738 287.742 246.029 288.339 245.195 288.812C244.362 289.285 243.403 289.522 242.321 289.522ZM242.395 274.794C241.537 274.794 240.759 275.018 240.062 275.466C239.365 275.902 238.812 276.493 238.401 277.239C237.99 277.974 237.785 278.782 237.785 279.666C237.785 280.574 237.99 281.396 238.401 282.13C238.812 282.864 239.365 283.449 240.062 283.884C240.759 284.32 241.537 284.538 242.395 284.538C243.242 284.538 244.001 284.32 244.673 283.884C245.357 283.449 245.892 282.864 246.278 282.13C246.676 281.383 246.875 280.562 246.875 279.666C246.875 278.77 246.676 277.955 246.278 277.221C245.892 276.486 245.357 275.902 244.673 275.466C244.001 275.018 243.242 274.794 242.395 274.794Z" fill="#BFFFC8"/>
<path d="M255.515 282.167V270.333H260.667V280.749C260.667 281.408 260.823 282.005 261.134 282.54C261.457 283.063 261.887 283.48 262.422 283.791C262.957 284.102 263.542 284.258 264.176 284.258C264.823 284.258 265.414 284.102 265.95 283.791C266.485 283.48 266.908 283.063 267.219 282.54C267.53 282.005 267.685 281.408 267.685 280.749V270.333H272.837L272.856 288.999H267.704L267.685 287.58C267.063 288.178 266.329 288.644 265.483 288.98C264.649 289.316 263.766 289.484 262.832 289.484C261.488 289.484 260.263 289.154 259.155 288.495C258.048 287.835 257.164 286.958 256.505 285.863C255.845 284.755 255.515 283.524 255.515 282.167Z" fill="#BFFFC8"/>
<path d="M289.96 261H295.111V288.999H289.96V287.02C289.387 287.742 288.678 288.333 287.832 288.794C286.985 289.254 286.021 289.484 284.938 289.484C283.582 289.484 282.313 289.229 281.131 288.719C279.949 288.209 278.903 287.506 277.995 286.61C277.099 285.701 276.396 284.656 275.886 283.474C275.375 282.292 275.12 281.022 275.12 279.666C275.12 278.31 275.375 277.04 275.886 275.858C276.396 274.676 277.099 273.637 277.995 272.741C278.903 271.832 279.949 271.123 281.131 270.613C282.313 270.103 283.582 269.848 284.938 269.848C286.021 269.848 286.985 270.078 287.832 270.538C288.678 270.986 289.387 271.577 289.96 272.312V261ZM285.013 284.538C285.859 284.538 286.625 284.32 287.309 283.884C287.993 283.449 288.535 282.864 288.933 282.13C289.331 281.383 289.53 280.562 289.53 279.666C289.53 278.758 289.331 277.936 288.933 277.202C288.535 276.468 287.993 275.883 287.309 275.447C286.625 275.012 285.859 274.794 285.013 274.794C284.155 274.794 283.377 275.012 282.68 275.447C281.983 275.883 281.429 276.474 281.019 277.221C280.608 277.955 280.403 278.77 280.403 279.666C280.403 280.562 280.608 281.383 281.019 282.13C281.442 282.864 282.002 283.449 282.699 283.884C283.395 284.32 284.167 284.538 285.013 284.538Z" fill="#BFFFC8"/>
<defs>
<clipPath id="clip0_87_5615">
<rect width="48" height="48" fill="white" transform="translate(436 184)"/>
</clipPath>
<clipPath id="clip1_87_5615">
<rect width="48" height="48" fill="white" transform="translate(16 268)"/>
</clipPath>
<clipPath id="clip2_87_5615">
<rect width="48" height="48" fill="white" transform="translate(436 352)"/>
</clipPath>
</defs>
</svg>
