<svg width="32" height="32" viewBox="0 0 32 32" fill="none" xmlns="http://www.w3.org/2000/svg">
<rect opacity="0.2" width="32" height="32" rx="8" fill="#9F9F9F"/>
<path d="M8 9V18H10.9883V9H8ZM24.4883 17.2617V15.75C24.4883 15.5625 24.4531 15.375 24.3828 15.1875L22.1328 9.91406C21.875 9.30469 21.418 9 20.7617 9H14.0117C13.5898 9 13.2266 9.14062 12.9219 9.42188C12.6406 9.72656 12.5 10.0898 12.5 10.5117V18C12.5 18.4219 12.6523 18.7734 12.957 19.0547L17.8789 24.0117L18.6875 23.2031C18.8984 22.9922 19.0039 22.7344 19.0039 22.4297L18.9688 22.1836L18.2656 18.7383H23.0117C23.4102 18.7383 23.75 18.5859 24.0312 18.2812C24.3359 18 24.4883 17.6602 24.4883 17.2617Z" fill="#517185"/>
</svg>
