<svg width="64" height="64" viewBox="0 0 64 64" fill="none" xmlns="http://www.w3.org/2000/svg">
<rect width="64" height="64" rx="16" fill="#BFFFC8"/>
<path fill-rule="evenodd" clip-rule="evenodd" d="M27.7631 36.7693C32.835 36.3694 36.899 32.3056 37.299 27.2339C37.315 26.9619 37.331 26.6739 37.331 26.4019C37.331 20.6582 32.675 16.0024 26.9311 16.0024C21.1872 16.0024 16.5312 20.6582 16.5312 26.4019C16.5312 32.1456 21.1872 36.8013 26.9311 36.8013C27.2031 36.8013 27.4911 36.7853 27.7631 36.7693ZM26.9311 22.4021L28.3391 24.994L30.9311 26.4019L28.3391 27.8098L26.9311 30.4017L25.5231 27.8098L22.9312 26.4019L25.5231 24.994L26.9311 22.4021ZM39.6991 27.33C44.6911 28.082 48.531 32.3858 48.531 37.6015C48.531 43.3452 43.8751 48.0009 38.1311 48.0009C32.9152 48.0009 28.6112 44.1612 27.8592 39.1694H27.9072C34.1632 38.6734 39.2031 33.6337 39.6991 27.426V27.33Z" fill="#077453"/>
</svg>
