<svg width="64" height="64" viewBox="0 0 64 64" fill="none" xmlns="http://www.w3.org/2000/svg">
<rect width="64" height="64" rx="16" fill="#BFFFC8"/>
<path d="M38.8075 27.9741H47.0749C47.417 29.2585 47.6004 30.6077 47.6004 31.9999C47.6004 33.3921 47.417 34.7413 47.0749 36.0257H38.8075C39.1317 33.3178 39.1182 30.5691 38.8075 27.9741ZM27.5477 38.0386C28.2194 41.4153 29.6344 45.1161 31.9588 47.5994C31.9727 47.5995 31.9865 47.5999 32.0004 47.5999C32.0143 47.5999 32.0281 47.5994 32.042 47.5994C34.3702 45.112 35.7827 41.4088 36.4531 38.0386H27.5477ZM38.5011 25.9612H46.3882C44.3799 21.1821 40.0601 17.6142 34.8279 16.6562C36.73 19.3686 37.8989 22.7158 38.5011 25.9612ZM36.7807 27.9741H27.2201C26.8843 30.6106 26.8839 33.3861 27.2201 36.0257H36.7808C37.1166 33.3891 37.117 30.6137 36.7807 27.9741ZM25.4997 38.0386H17.6126C19.6209 42.8177 23.9407 46.3856 29.1729 47.3436C27.2703 44.6302 26.1017 41.2828 25.4997 38.0386ZM38.5011 38.0386C37.8988 41.2847 36.7296 44.6318 34.8279 47.3436C40.0601 46.3856 44.3799 42.8177 46.3882 38.0386H38.5011ZM36.4531 25.9612C35.7814 22.5845 34.3663 18.8837 32.042 16.4004C32.0281 16.4004 32.0143 16.3999 32.0004 16.3999C31.9865 16.3999 31.9727 16.4004 31.9588 16.4004C29.6307 18.8878 28.2182 22.591 27.5477 25.9612H36.4531ZM16.9259 27.9741C16.5838 29.2585 16.4004 30.6077 16.4004 31.9999C16.4004 33.3921 16.5838 34.7413 16.9259 36.0257H25.1933C24.8827 33.4307 24.8691 30.682 25.1933 27.9741H16.9259ZM25.4997 25.9612C26.102 22.7153 27.2712 19.3683 29.1729 16.6562C23.9407 17.6142 19.6209 21.1821 17.6126 25.9612H25.4997Z" fill="#077453"/>
</svg>
