<svg width="64" height="65" viewBox="0 0 64 65" fill="none" xmlns="http://www.w3.org/2000/svg">
<rect y="0.987061" width="64" height="64" rx="16" fill="#BFFFC8"/>
<path d="M48 32.9861C48 24.1478 40.8387 16.9868 32 16.9868C23.1613 16.9868 16 24.1478 16 32.9861C16 41.8244 23.1613 48.9854 32 48.9854C40.8387 48.9854 48 41.8244 48 32.9861ZM29.1613 40.4696V32.9861H24.5871C23.8968 32.9861 23.5484 32.1474 24.0387 31.6636L31.4516 24.2897C31.7548 23.9865 32.2387 23.9865 32.5419 24.2897L39.9548 31.6636C40.4452 32.1539 40.0968 32.9861 39.4065 32.9861H34.8387V40.4696C34.8387 40.8954 34.4903 41.2438 34.0645 41.2438H29.9355C29.5097 41.2438 29.1613 40.8954 29.1613 40.4696Z" fill="#077453"/>
</svg>
