<svg width="64" height="64" viewBox="0 0 64 64" fill="none" xmlns="http://www.w3.org/2000/svg">
<rect width="64" height="64" rx="16" fill="#BFFFC8"/>
<path d="M39.4972 39.7504C37.9638 39.7504 36.7162 38.5029 36.7162 36.9695V32.3511C36.7162 30.8177 37.9638 29.5702 39.4972 29.5702H46.7434C46.7873 29.5702 46.8309 29.5716 46.8743 29.5735V24.9729C46.8743 23.7886 45.9143 22.8286 44.7301 22.8286H18.1443C16.96 22.8285 16 23.7886 16 24.9728V44.3477C16 45.532 16.96 46.4921 18.1443 46.4921H44.7301C45.9143 46.4921 46.8743 45.532 46.8743 44.3477V39.7471C46.8309 39.7491 46.7873 39.7504 46.7434 39.7504H39.4972Z" fill="#077453"/>
<path d="M46.7416 31.0942H39.4954C38.8011 31.0942 38.2383 31.6571 38.2383 32.3513V36.9697C38.2383 37.664 38.8011 38.2268 39.4954 38.2268H46.7416C47.4359 38.2268 47.9987 37.664 47.9987 36.9697V32.3513C47.9987 31.657 47.4359 31.0942 46.7416 31.0942ZM41.9923 36.4749C40.9902 36.4749 40.1779 35.6626 40.1779 34.6605C40.1779 33.6584 40.9902 32.846 41.9923 32.846C42.9944 32.846 43.8068 33.6584 43.8068 34.6605C43.8068 35.6626 42.9944 36.4749 41.9923 36.4749Z" fill="#077453"/>
<path d="M40.9968 18.901C40.517 17.449 38.951 16.6608 37.4991 17.1405L26.6055 20.7395H41.6042L40.9968 18.901Z" fill="#077453"/>
</svg>
