<svg width="64" height="64" viewBox="0 0 64 64" fill="none" xmlns="http://www.w3.org/2000/svg">
<rect width="64" height="64" rx="16" fill="#BFFFC8"/>
<path fill-rule="evenodd" clip-rule="evenodd" d="M30.3992 18.5999C29.5155 18.5999 28.7992 19.3163 28.7992 20.1999V24.9999H36.9045C38.3229 24.9998 39.545 24.9998 40.5237 25.1313C41.5725 25.2723 42.578 25.5903 43.3933 26.4058C44.2088 27.2213 44.5268 28.2266 44.6679 29.2754C44.7994 30.2541 44.7994 31.4762 44.7992 32.8946V39.5052C44.7994 40.9236 44.7994 42.1457 44.6679 43.1244C44.5268 44.1732 44.2088 45.1786 43.3933 45.994C42.578 46.8095 41.5725 47.1274 40.5237 47.2685C39.545 47.4001 38.3229 47.4001 36.9045 47.3999H27.0939C25.6755 47.4001 24.4534 47.4001 23.4748 47.2685C22.4259 47.1274 21.4206 46.8095 20.6051 45.994C19.7897 45.1786 19.4717 44.1732 19.3307 43.1244C19.1991 42.1457 19.1991 40.9236 19.1992 39.5052V32.8946C19.1991 31.4762 19.1991 30.2541 19.3307 29.2754C19.4717 28.2266 19.7897 27.2213 20.6051 26.4058C21.4206 25.5903 22.4259 25.2723 23.4748 25.1313C24.0905 25.0486 24.8026 25.0179 25.5992 25.0065V20.1999C25.5992 17.5489 27.7483 15.3999 30.3992 15.3999H33.6992C36.2949 15.3999 38.3992 17.5042 38.3992 20.0999V20.1999C38.3992 21.0835 37.6829 21.7999 36.7992 21.7999C35.9156 21.7999 35.1992 21.0835 35.1992 20.1999V20.0999C35.1992 19.2715 34.5277 18.5999 33.6992 18.5999H30.3992ZM31.9992 32.9999C30.2319 32.9999 28.7992 34.4325 28.7992 36.1999C28.7992 37.9673 30.2319 39.3999 31.9992 39.3999C33.7666 39.3999 35.1992 37.9673 35.1992 36.1999C35.1992 34.4325 33.7666 32.9999 31.9992 32.9999Z" fill="#077453"/>
</svg>
