<svg width="32" height="32" viewBox="0 0 32 32" fill="none" xmlns="http://www.w3.org/2000/svg">
<rect opacity="0.2" width="32" height="32" rx="8" fill="#9F9F9F"/>
<path d="M8 23.0117V14.0117H10.9883V23.0117H8ZM24.4883 14.75V16.2617C24.4883 16.4492 24.4531 16.6367 24.3828 16.8242L22.1328 22.0977C21.875 22.707 21.418 23.0117 20.7617 23.0117H14.0117C13.5898 23.0117 13.2266 22.8711 12.9219 22.5898C12.6406 22.2852 12.5 21.9219 12.5 21.5V14.0117C12.5 13.5898 12.6523 13.2383 12.957 12.957L17.8789 8L18.6875 8.80859C18.8984 9.01953 19.0039 9.27734 19.0039 9.58203L18.9688 9.82812L18.2656 13.2734H23.0117C23.4102 13.2734 23.75 13.4258 24.0312 13.7305C24.3359 14.0117 24.4883 14.3516 24.4883 14.75Z" fill="#517185"/>
</svg>
