<svg width="32" height="33" viewBox="0 0 32 33" fill="none" xmlns="http://www.w3.org/2000/svg">
<g id="Group 1869">
<rect id="Rectangle 31" y="0.116943" width="32" height="32" rx="8" fill="#3077B0"/>
<path id="Vector" d="M11.0178 25.1179H7.28252V13.0917H11.0234V25.1179H11.0178ZM9.15017 11.4492C7.95195 11.4492 6.98438 10.476 6.98438 9.28354C6.98438 8.09104 7.95195 7.11792 9.15017 7.11792C10.3428 7.11792 11.316 8.09104 11.316 9.28354C11.316 10.4817 10.3484 11.4492 9.15017 11.4492ZM25.0195 25.1179H21.2842V19.2679C21.2842 17.8729 21.2561 16.0785 19.3435 16.0785C17.3971 16.0785 17.0989 17.5973 17.0989 19.1667V25.1179H13.3636V13.0917H16.947V14.7342H16.9977C17.4983 13.7892 18.719 12.7935 20.5361 12.7935C24.3164 12.7935 25.0195 15.2854 25.0195 18.5254V25.1179Z" fill="white"/>
</g>
</svg>
