<svg width="32" height="33" viewBox="0 0 32 33" fill="none" xmlns="http://www.w3.org/2000/svg">
<g id="Group 1870">
<rect id="Rectangle 31" y="0.116943" width="32" height="32" rx="8" fill="#57A8D6"/>
<path id="Subtract" fill-rule="evenodd" clip-rule="evenodd" d="M22.1522 24.67L25.6605 7.79357C25.7508 7.35836 25.3233 6.99529 24.9088 7.15556L5.35964 14.6977C4.87715 14.8836 4.88128 15.5667 5.36515 15.748L6.69761 16.2453C8.86174 17.0531 10.5301 18.8171 11.2159 21.0229L11.9723 23.4558C12.0903 23.8354 12.5547 23.9758 12.8628 23.7238L15.5181 21.5592C15.7964 21.3322 16.1929 21.321 16.4836 21.5322L21.2728 25.0094C21.6024 25.249 22.0696 25.0684 22.1522 24.67ZM11.6761 16.5791L20.9856 10.8451C21.1528 10.7423 21.325 10.9686 21.1811 11.1018L13.4982 18.244C13.2281 18.4953 13.054 18.832 13.0046 19.1971L12.743 21.1368C12.7081 21.3957 12.3445 21.4213 12.2729 21.1707L11.2664 17.6337C11.1513 17.2303 11.3192 16.7993 11.6761 16.5791Z" fill="white"/>
</g>
</svg>
