<svg width="64" height="64" viewBox="0 0 64 64" fill="none" xmlns="http://www.w3.org/2000/svg">
<rect width="64" height="64" rx="16" fill="#BFFFC8"/>
<path fill-rule="evenodd" clip-rule="evenodd" d="M31.708 14.8356C31.8991 14.7879 32.099 14.7879 32.2901 14.8356L45.0901 18.0356C45.6243 18.1692 45.999 18.6492 45.999 19.1998V31.9998C45.999 37.3355 42.4609 41.6402 39.1892 44.5029C37.5282 45.9563 35.8728 47.0938 34.635 47.8674C34.0149 48.255 33.4964 48.5532 33.1302 48.7559C32.947 48.8573 32.8017 48.935 32.7006 48.9881C32.65 49.0146 32.6104 49.035 32.5827 49.0492L32.55 49.0659L32.5405 49.0707L32.5365 49.0727L31.999 47.9998L31.4616 49.0727L31.4575 49.0707L31.448 49.0659L31.4153 49.0492C31.3876 49.035 31.348 49.0146 31.2975 48.9881C31.1963 48.935 31.051 48.8573 30.8678 48.7559C30.5016 48.5532 29.9832 48.255 29.363 47.8674C28.1253 47.0938 26.4699 45.9563 24.8088 44.5029C21.5371 41.6402 17.999 37.3355 17.999 31.9998V19.1998C17.999 18.6492 18.3738 18.1692 18.908 18.0356L31.708 14.8356ZM31.4616 49.0727C31.462 49.0729 31.4624 49.0731 31.999 47.9998C32.5357 49.0731 32.536 49.0729 32.5365 49.0727C32.1986 49.2416 31.7994 49.2416 31.4616 49.0727ZM40.5364 29.5331C40.5364 34.246 36.7159 38.0665 32.0031 38.0665C27.2902 38.0665 23.4697 34.246 23.4697 29.5331C23.4697 24.8203 27.2902 20.9998 32.0031 20.9998C36.7159 20.9998 40.5364 24.8203 40.5364 29.5331ZM27.9332 29.3003C27.563 29.6705 27.563 30.2709 27.9332 30.6411L30.1567 32.8646L30.1678 32.8759C30.2842 32.9923 30.4235 33.0722 30.5711 33.1154C30.893 33.2096 31.255 33.1298 31.5089 32.876L31.5238 32.8607L35.9783 28.4063C36.3485 28.036 36.3485 27.4357 35.9783 27.0654C35.608 26.6951 35.0077 26.6951 34.6374 27.0654L31.0618 30.641C30.9384 30.7644 30.7383 30.7644 30.6148 30.641L29.2741 29.3003C28.9038 28.93 28.3035 28.93 27.9332 29.3003Z" fill="#077453"/>
</svg>
