<svg width="64" height="65" viewBox="0 0 64 65" fill="none" xmlns="http://www.w3.org/2000/svg">
<rect opacity="0.2" y="0.00292969" width="64" height="64" rx="15.9999" fill="#077453"/>
<path d="M23.1888 28.2429C23.5088 28.2429 23.7888 28.3629 24.0288 28.6029C24.2688 28.8429 24.3888 29.1229 24.3888 29.4429V34.3629C24.3888 34.6829 24.2688 34.9629 24.0288 35.2029C23.7888 35.4429 23.5088 35.5629 23.1888 35.5629C22.8554 35.5629 22.5688 35.4429 22.3288 35.2029C22.1021 34.9629 21.9888 34.6829 21.9888 34.3629V29.4429C21.9888 29.1229 22.1021 28.8429 22.3288 28.6029C22.5688 28.3629 22.8554 28.2429 23.1888 28.2429ZM17.2288 26.2029V37.4829L21.3888 41.6429H25.0288L29.1488 37.5629V26.2029L24.9088 22.0029H21.4688L17.2288 26.2029ZM15.2288 24.8829L20.1888 19.9629C20.3888 19.7229 20.6688 19.6029 21.0288 19.6029H25.3888C25.7088 19.6029 25.9888 19.7229 26.2288 19.9629L31.1488 24.8829C31.3888 25.0829 31.5088 25.3629 31.5088 25.7229V38.0429C31.5088 38.4163 31.3888 38.6963 31.1488 38.8829L26.3488 43.6829C26.1088 43.9229 25.8288 44.0429 25.5088 44.0429H20.9488C20.5754 44.0429 20.2954 43.9229 20.1088 43.6829L15.2288 38.8029C14.9888 38.5629 14.8688 38.2829 14.8688 37.9629V25.7229C14.8688 25.3496 14.9888 25.0696 15.2288 24.8829ZM36.76 26.9629H34.4V25.6829C34.4 25.3629 34.52 25.0829 34.76 24.8429L39.6 19.9629C39.84 19.7229 40.12 19.6029 40.44 19.6029H47.4C47.72 19.6029 48 19.7229 48.24 19.9629L50.68 22.4029C50.92 22.6429 51.04 22.9229 51.04 23.2429V28.2829C51.04 28.6029 50.92 28.8829 50.68 29.1229L38.4 41.6829H51.04V44.0829H35.48C35.16 44.0829 34.88 43.9629 34.64 43.7229C34.4 43.4829 34.28 43.2029 34.28 42.8829C34.28 42.5629 34.4 42.2829 34.64 42.0429L48.68 27.8029V23.7229L46.96 22.0029H40.92L36.76 26.1629V26.9629Z" fill="#077453"/>
</svg>
