<svg width="64" height="65" viewBox="0 0 64 65" fill="none" xmlns="http://www.w3.org/2000/svg">
<rect opacity="0.2" y="0.00292969" width="64" height="64" rx="15.9999" fill="#077453"/>
<path d="M23.1888 28.2429C23.5088 28.2429 23.7888 28.3629 24.0288 28.6029C24.2688 28.8429 24.3888 29.1229 24.3888 29.4429V34.3629C24.3888 34.6829 24.2688 34.9629 24.0288 35.2029C23.7888 35.4429 23.5088 35.5629 23.1888 35.5629C22.8554 35.5629 22.5688 35.4429 22.3288 35.2029C22.1021 34.9629 21.9888 34.6829 21.9888 34.3629V29.4429C21.9888 29.1229 22.1021 28.8429 22.3288 28.6029C22.5688 28.3629 22.8554 28.2429 23.1888 28.2429ZM17.2288 26.2029V37.4829L21.3888 41.6429H25.0288L29.1488 37.5629V26.2029L24.9088 22.0029H21.4688L17.2288 26.2029ZM15.2288 24.8829L20.1888 19.9629C20.3888 19.7229 20.6688 19.6029 21.0288 19.6029H25.3888C25.7088 19.6029 25.9888 19.7229 26.2288 19.9629L31.1488 24.8829C31.3888 25.0829 31.5088 25.3629 31.5088 25.7229V38.0429C31.5088 38.4163 31.3888 38.6963 31.1488 38.8829L26.3488 43.6829C26.1088 43.9229 25.8288 44.0429 25.5088 44.0429H20.9488C20.5754 44.0429 20.2954 43.9229 20.1088 43.6829L15.2288 38.8029C14.9888 38.5629 14.8688 38.2829 14.8688 37.9629V25.7229C14.8688 25.3496 14.9888 25.0696 15.2288 24.8829ZM36.76 22.0029V19.6029H51.04V23.3229C51.04 23.6429 50.92 23.9229 50.68 24.1629L45.36 29.4829C45.5067 29.5229 45.64 29.6029 45.76 29.7229L50.64 34.6029C50.88 34.8429 51 35.1229 51 35.4429V38.1229C51 38.4429 50.88 38.7229 50.64 38.9629L45.96 43.6429C45.72 43.8829 45.44 44.0029 45.12 44.0029H37.88C37.56 44.0029 37.28 43.8829 37.04 43.6429L34.4 41.0029L36.08 39.3229L38.36 41.6029H44.72L48.68 37.6429V35.9629L44.52 31.7629H42.56C42.24 31.7629 41.96 31.6429 41.72 31.4029C41.48 31.1629 41.36 30.8829 41.36 30.5629C41.36 30.2429 41.48 29.9629 41.72 29.7229L48.68 22.8429V22.0029H36.76Z" fill="#077453"/>
</svg>
