<svg width="64" height="65" viewBox="0 0 64 65" fill="none" xmlns="http://www.w3.org/2000/svg">
<rect opacity="0.2" y="0.00292969" width="64" height="64" rx="16" fill="#077453"/>
<path d="M23.1888 28.2431C23.5088 28.2431 23.7888 28.3631 24.0288 28.6031C24.2688 28.8431 24.3888 29.1231 24.3888 29.4431V34.363C24.3888 34.683 24.2688 34.963 24.0288 35.203C23.7888 35.443 23.5088 35.563 23.1888 35.563C22.8555 35.563 22.5688 35.443 22.3288 35.203C22.1022 34.963 21.9888 34.683 21.9888 34.363V29.4431C21.9888 29.1231 22.1022 28.8431 22.3288 28.6031C22.5688 28.3631 22.8555 28.2431 23.1888 28.2431ZM17.2289 26.2031V37.483L21.3888 41.643H25.0288L29.1488 37.563V26.2031L24.9088 22.0031H21.4688L17.2289 26.2031ZM15.2289 24.8831L20.1888 19.9631C20.3888 19.7231 20.6688 19.6031 21.0288 19.6031H25.3888C25.7088 19.6031 25.9888 19.7231 26.2288 19.9631L31.1488 24.8831C31.3888 25.0831 31.5088 25.3631 31.5088 25.7231V38.043C31.5088 38.4163 31.3888 38.6963 31.1488 38.883L26.3488 43.6829C26.1088 43.9229 25.8288 44.0429 25.5088 44.0429H20.9488C20.5755 44.0429 20.2955 43.9229 20.1088 43.6829L15.2289 38.803C14.9889 38.563 14.8689 38.283 14.8689 37.963V25.7231C14.8689 25.3498 14.9889 25.0698 15.2289 24.8831ZM48.6799 34.003H51.0399V36.243H48.6799V45.0029H46.2799V36.243H35.6C35.28 36.243 35 36.123 34.76 35.883C34.52 35.643 34.4 35.363 34.4 35.043V30.563C34.4 30.243 34.52 29.9631 34.76 29.7231L44.3599 19.9631C44.5466 19.7231 44.8266 19.6031 45.1999 19.6031H48.6799V34.003ZM46.2799 34.003V22.0031H45.7199L36.68 31.163V34.003H46.2799Z" fill="#077453"/>
</svg>
