<svg width="1920" height="569" viewBox="0 0 1920 569" fill="none" xmlns="http://www.w3.org/2000/svg">
<rect width="130" height="130" rx="16" transform="matrix(-1 -8.74228e-08 -8.74227e-08 1 476 357.447)" fill="#008059"/>
<path fill-rule="evenodd" clip-rule="evenodd" d="M346 436.892L476 436.892L476 408.003L346 408.003L346 436.892Z" fill="#BFFFC8" fill-opacity="0.4"/>
<rect width="130" height="130" rx="16" transform="matrix(-1 -8.74228e-08 -8.74227e-08 1 74 89.4473)" fill="#008059"/>
<path fill-rule="evenodd" clip-rule="evenodd" d="M-55.9999 168.892L74 168.892L74 140.003L-55.9999 140.003L-55.9999 168.892Z" fill="#BFFFC8" fill-opacity="0.4"/>
<rect width="130" height="130" rx="16" transform="matrix(-4.37114e-08 -1 -1 4.37115e-08 342 353.447)" fill="#008059"/>
<path fill-rule="evenodd" clip-rule="evenodd" d="M262.556 223.447L262.556 353.447L291.445 353.447L291.445 223.447L262.556 223.447Z" fill="#BFFFC8" fill-opacity="0.4"/>
<rect width="130" height="130" rx="16" transform="matrix(-1 -8.74228e-08 -8.74227e-08 1 208 223.447)" fill="#008059"/>
<rect width="130" height="130" rx="16" transform="matrix(-1 -8.74228e-08 -8.74227e-08 1 74 357.447)" fill="#008059"/>
<rect width="130" height="130" rx="16" transform="matrix(-1 -8.74228e-08 -8.74227e-08 1 74 -44.5527)" fill="#008059"/>
<rect width="130" height="130" rx="16" transform="matrix(-1 -8.74228e-08 -8.74227e-08 1 342 -44.5527)" fill="#008059"/>
<rect width="130" height="130" rx="16" transform="matrix(-1 -8.74228e-08 -8.74227e-08 1 476 89.4473)" fill="#008059"/>
<rect width="130" height="130" rx="16" transform="matrix(-1 -8.74228e-08 -8.74227e-08 1 476 491.447)" fill="#008059"/>
<rect width="130" height="130" rx="16" transform="matrix(-1 -8.74228e-08 -8.74227e-08 1 208 491.447)" fill="#008059"/>
<rect width="130" height="130" rx="16" transform="matrix(-1 -8.74228e-08 -8.74227e-08 1 208 89.4473)" fill="#008059"/>
<path fill-rule="evenodd" clip-rule="evenodd" d="M78.0001 168.892L208 168.892L208 140.003L78.0001 140.003L78.0001 168.892Z" fill="#BFFFC8" fill-opacity="0.4"/>
<rect x="342" y="357.447" width="130" height="130" rx="16" transform="rotate(90 342 357.447)" fill="#008059"/>
<path fill-rule="evenodd" clip-rule="evenodd" d="M291.444 357.447C291.444 385.368 314.079 408.003 342 408.003L342 436.892C298.124 436.892 262.556 401.323 262.556 357.447L291.444 357.447Z" fill="#BFFFC8" fill-opacity="0.4"/>
<rect x="212" y="219.447" width="130" height="130" rx="16" transform="rotate(-90 212 219.447)" fill="#008059"/>
<path fill-rule="evenodd" clip-rule="evenodd" d="M262.556 219.447C262.556 191.526 239.921 168.892 212 168.892L212 140.003C255.876 140.003 291.444 175.571 291.444 219.447L262.556 219.447Z" fill="#BFFFC8" fill-opacity="0.4"/>
<rect width="130" height="130" rx="16" transform="matrix(-1 -8.74228e-08 -8.74227e-08 1 610 357.447)" fill="#008059"/>
<path d="M488 407.447C488 404.134 490.686 401.447 494 401.447H502V443.447H494C490.686 443.447 488 440.761 488 437.447V407.447Z" fill="#9BE1A5" fill-opacity="0.3"/>
<path d="M502 402.447C502 396.372 506.925 391.447 513 391.447H550V453.447H513C506.925 453.447 502 448.522 502 442.447V402.447Z" fill="#BFFFC8" fill-opacity="0.4"/>
<rect x="550" y="387.447" width="14" height="70" rx="2" fill="#9BE1A5" fill-opacity="0.3"/>
<path d="M564 398.447H586C589.866 398.447 593 401.581 593 405.447V405.447C593 409.313 589.866 412.447 586 412.447H564V398.447Z" fill="#BFFFC8" fill-opacity="0.4"/>
<path d="M564 432.447H586C589.866 432.447 593 435.581 593 439.447V439.447C593 443.313 589.866 446.447 586 446.447H564V432.447Z" fill="#BFFFC8" fill-opacity="0.4"/>
<rect x="480" y="408.008" width="8" height="29" fill="#BFFFC8" fill-opacity="0.4"/>
<rect x="1842" y="219.447" width="130" height="130" rx="16" transform="rotate(180 1842 219.447)" fill="#008059"/>
<path fill-rule="evenodd" clip-rule="evenodd" d="M1712 140.003L1842 140.003L1842 168.892L1712 168.892L1712 140.003Z" fill="#BFFFC8" fill-opacity="0.4"/>
<rect x="1708" y="223.443" width="130" height="130" rx="16" transform="rotate(90 1708 223.443)" fill="#008059"/>
<path fill-rule="evenodd" clip-rule="evenodd" d="M1628.56 353.443L1628.56 223.443L1657.45 223.443L1657.45 353.443L1628.56 353.443Z" fill="#BFFFC8" fill-opacity="0.4"/>
<rect x="1976" y="219.447" width="130" height="130" rx="16" transform="rotate(180 1976 219.447)" fill="#008059"/>
<path fill-rule="evenodd" clip-rule="evenodd" d="M1846 140.003L1976 140.003L1976 168.892L1846 168.892L1846 140.003Z" fill="#BFFFC8" fill-opacity="0.4"/>
<rect width="130" height="130" rx="16" transform="matrix(-1 -8.74228e-08 -8.74227e-08 1 1708 -44.5527)" fill="#008059"/>
<rect width="130" height="130" rx="16" transform="matrix(-1 -8.74228e-08 -8.74227e-08 1 1574 491.447)" fill="#008059"/>
<rect width="130" height="130" rx="16" transform="matrix(-1 -8.74228e-08 -8.74227e-08 1 1842 491.447)" fill="#008059"/>
<rect width="130" height="130" rx="16" transform="matrix(-1 -8.74228e-08 -8.74227e-08 1 1842 -44.5527)" fill="#008059"/>
<g opacity="0.1">
<rect width="130" height="130" rx="16" transform="matrix(-1 -8.74228e-08 -8.74227e-08 1 1514 223.447)" fill="#008059"/>
</g>
<rect width="130" height="130" rx="16" transform="matrix(-1 -8.74228e-08 -8.74227e-08 1 1708 491.447)" fill="#008059"/>
<rect width="130" height="130" rx="16" transform="matrix(-1 -8.74228e-08 -8.74227e-08 1 1574 223.443)" fill="#008059"/>
<rect width="130" height="130" rx="16" transform="matrix(-1 -8.74228e-08 -8.74227e-08 1 1976 357.447)" fill="#008059"/>
<rect x="1574" y="487.447" width="130" height="130" rx="16" transform="rotate(180 1574 487.447)" fill="#008059"/>
<path fill-rule="evenodd" clip-rule="evenodd" d="M1444 408.003L1574 408.003L1574 436.892L1444 436.892L1444 408.003Z" fill="#BFFFC8" fill-opacity="0.4"/>
<rect width="130" height="130" rx="16" transform="matrix(-4.37114e-08 -1 -1 4.37114e-08 1708 219.447)" fill="#008059"/>
<path fill-rule="evenodd" clip-rule="evenodd" d="M1657.44 219.447C1657.44 191.526 1680.08 168.892 1708 168.892L1708 140.003C1664.12 140.003 1628.56 175.571 1628.56 219.447L1657.44 219.447Z" fill="#BFFFC8" fill-opacity="0.4"/>
<rect width="130" height="130" rx="16" transform="matrix(-4.37114e-08 1 1 4.37113e-08 1578 357.447)" fill="#008059"/>
<path fill-rule="evenodd" clip-rule="evenodd" d="M1628.56 357.447C1628.56 385.368 1605.92 408.003 1578 408.003L1578 436.892C1621.88 436.892 1657.44 401.323 1657.44 357.447L1628.56 357.447Z" fill="#BFFFC8" fill-opacity="0.4"/>
<rect x="1310" y="357.447" width="130" height="130" rx="16" fill="#008059"/>
<path d="M1432 407.447C1432 404.134 1429.31 401.447 1426 401.447H1418V443.447H1426C1429.31 443.447 1432 440.761 1432 437.447V407.447Z" fill="#9BE1A5" fill-opacity="0.3"/>
<path d="M1418 402.447C1418 396.372 1413.08 391.447 1407 391.447H1370V453.447H1407C1413.08 453.447 1418 448.522 1418 442.447V402.447Z" fill="#BFFFC8" fill-opacity="0.4"/>
<rect width="14" height="70" rx="2" transform="matrix(-1 0 0 1 1370 387.447)" fill="#9BE1A5" fill-opacity="0.3"/>
<rect width="8" height="29" transform="matrix(-1 0 0 1 1440 408.008)" fill="#BFFFC8" fill-opacity="0.4"/>
</svg>
