<svg width="48" height="49" fill="none" xmlns="http://www.w3.org/2000/svg"><rect width="48" height="48.002" rx="16" transform="matrix(1 0 0 -1 0 48.004)" fill="#8DCAF8"/><path d="M14.657 32.314c-.976 0-1.864-.224-2.664-.672a6.624 6.624 0 0 1-2.076-1.884c-.576-.8-1.02-1.724-1.332-2.772a11.888 11.888 0 0 1-.468-3.384c0-1.2.156-2.324.468-3.372.312-1.056.756-1.984 1.332-2.784.584-.8 1.276-1.424 2.076-1.872.8-.456 1.688-.684 2.664-.684.976 0 1.864.228 2.664.684a6.252 6.252 0 0 1 2.052 1.872c.576.8 1.02 1.728 1.332 2.784.32 1.048.48 2.172.48 3.372 0 1.2-.16 2.328-.48 3.384-.312 1.048-.756 1.972-1.332 2.772a6.38 6.38 0 0 1-2.052 1.884c-.8.448-1.688.672-2.664.672zm0-2.928c.856 0 1.564-.272 2.124-.816.56-.544.976-1.256 1.248-2.136.272-.88.408-1.824.408-2.832 0-1.064-.144-2.032-.432-2.904-.288-.88-.712-1.58-1.272-2.1s-1.252-.78-2.076-.78c-.648 0-1.212.16-1.692.48-.472.312-.864.74-1.176 1.284a6.504 6.504 0 0 0-.696 1.86 9.987 9.987 0 0 0-.228 2.16c0 1 .136 1.944.408 2.832.28.88.7 1.592 1.26 2.136.568.544 1.276.816 2.124.816zM24.413 32.002l9.696-16.8h3.384l-9.696 16.8h-3.384zm2.064-9.516a3.62 3.62 0 0 1-1.812-.468 3.69 3.69 0 0 1-1.308-1.296 3.464 3.464 0 0 1-.492-1.824c0-.688.164-1.304.492-1.848a3.689 3.689 0 0 1 1.32-1.284 3.597 3.597 0 0 1 1.8-.468c.656 0 1.256.16 1.8.48.544.32.976.752 1.296 1.296.328.544.492 1.152.492 1.824 0 .68-.168 1.292-.504 1.836a3.593 3.593 0 0 1-1.308 1.284 3.508 3.508 0 0 1-1.776.468zm0-2.004c.432 0 .804-.152 1.116-.456.312-.312.468-.688.468-1.128 0-.448-.156-.824-.468-1.128a1.544 1.544 0 0 0-1.116-.456c-.44 0-.82.152-1.14.456-.312.304-.468.68-.468 1.128 0 .44.156.816.468 1.128.32.304.7.456 1.14.456zm8.952 11.436a3.442 3.442 0 0 1-1.812-.492 3.79 3.79 0 0 1-1.296-1.32 3.483 3.483 0 0 1-.48-1.776c0-.688.164-1.304.492-1.848a3.689 3.689 0 0 1 1.32-1.284 3.483 3.483 0 0 1 1.776-.48c.688 0 1.304.168 1.848.504.544.336.972.78 1.284 1.332.32.544.48 1.136.48 1.776a3.42 3.42 0 0 1-.492 1.8 3.66 3.66 0 0 1-1.308 1.308c-.544.32-1.148.48-1.812.48zm0-2.004c.448 0 .828-.156 1.14-.468.312-.312.468-.684.468-1.116 0-.448-.156-.828-.468-1.14a1.551 1.551 0 0 0-1.14-.468c-.432 0-.804.156-1.116.468a1.551 1.551 0 0 0-.468 1.14c0 .432.156.804.468 1.116.312.312.684.468 1.116.468z" fill="#0061A8"/></svg>