<svg width="48" height="49" viewBox="0 0 48 49" fill="none" xmlns="http://www.w3.org/2000/svg">
<rect width="48" height="48.0022" rx="16" transform="matrix(1 0 0 -1 0 48.0142)" fill="#FF7D60"/>
<path d="M36 24.0142C36 30.6432 30.629 36.0142 24 36.0142C17.371 36.0142 12 30.6432 12 24.0142C12 17.3851 17.371 12.0142 24 12.0142C30.629 12.0142 36 17.3851 36 24.0142ZM21.871 18.4013V24.0142H18.4403C17.9226 24.0142 17.6613 24.6432 18.029 25.0061L23.5887 30.5367C23.8161 30.7642 24.179 30.7642 24.4065 30.5367L29.9661 25.0061C30.3339 24.6384 30.0726 24.0142 29.5548 24.0142H26.129V18.4013C26.129 18.0819 25.8677 17.8206 25.5484 17.8206H22.4516C22.1323 17.8206 21.871 18.0819 21.871 18.4013Z" fill="#6D1400"/>
</svg>
