<svg width="109" height="72" viewBox="0 0 109 72" fill="none" xmlns="http://www.w3.org/2000/svg">
<rect opacity="0.4" x="1" y="1" width="107" height="70" rx="15" stroke="#077453" stroke-width="2" stroke-dasharray="2 4"/>
<path opacity="0.6" d="M19.5645 60.182C18.9018 60.182 18.2788 60.0513 17.6955 59.79C17.1121 59.524 16.5988 59.16 16.1555 58.698C15.7168 58.2313 15.3715 57.69 15.1195 57.074C14.8721 56.458 14.7485 55.8 14.7485 55.1C14.7485 54.4 14.8721 53.742 15.1195 53.126C15.3715 52.51 15.7168 51.971 16.1555 51.509C16.5988 51.0423 17.1121 50.6783 17.6955 50.417C18.2788 50.151 18.9018 50.018 19.5645 50.018C20.3578 50.018 21.0881 50.2023 21.7555 50.571C22.4228 50.9397 22.9758 51.4297 23.4145 52.041L22.5465 52.51C22.2011 52.048 21.7625 51.6817 21.2305 51.411C20.7031 51.1357 20.1478 50.998 19.5645 50.998C19.0278 50.998 18.5261 51.1077 18.0595 51.327C17.5975 51.5417 17.1915 51.838 16.8415 52.216C16.4915 52.594 16.2185 53.0303 16.0225 53.525C15.8265 54.0197 15.7285 54.5447 15.7285 55.1C15.7285 55.6647 15.8265 56.1943 16.0225 56.689C16.2231 57.1837 16.4985 57.62 16.8485 57.998C17.2031 58.376 17.6115 58.6723 18.0735 58.887C18.5401 59.097 19.0371 59.202 19.5645 59.202C20.1711 59.202 20.7335 59.0643 21.2515 58.789C21.7741 58.509 22.2058 58.145 22.5465 57.697L23.4145 58.166C22.9758 58.7773 22.4228 59.2673 21.7555 59.636C21.0881 60 20.3578 60.182 19.5645 60.182ZM30.2161 53H31.1961V60H30.2161L30.1811 58.698C29.9524 59.1413 29.6327 59.5007 29.2221 59.776C28.8114 60.0467 28.3214 60.182 27.7521 60.182C27.2387 60.182 26.7581 60.0863 26.3101 59.895C25.8621 59.699 25.4677 59.4307 25.1271 59.09C24.7864 58.7493 24.5204 58.355 24.3291 57.907C24.1377 57.459 24.0421 56.9783 24.0421 56.465C24.0421 55.961 24.1354 55.4873 24.3221 55.044C24.5134 54.6007 24.7747 54.211 25.1061 53.875C25.4421 53.539 25.8294 53.2777 26.2681 53.091C26.7114 52.8997 27.1851 52.804 27.6891 52.804C28.2724 52.804 28.7811 52.944 29.2151 53.224C29.6491 53.4993 29.9944 53.861 30.2511 54.309L30.2161 53ZM27.7311 59.23C28.2304 59.23 28.6597 59.1087 29.0191 58.866C29.3784 58.6187 29.6537 58.2873 29.8451 57.872C30.0411 57.4567 30.1391 56.9993 30.1391 56.5C30.1391 55.9867 30.0411 55.5247 29.8451 55.114C29.6491 54.6987 29.3714 54.3697 29.0121 54.127C28.6527 53.8843 28.2257 53.763 27.7311 53.763C27.2364 53.763 26.7837 53.8867 26.3731 54.134C25.9671 54.3767 25.6427 54.7057 25.4001 55.121C25.1621 55.5363 25.0431 55.996 25.0431 56.5C25.0431 57.0087 25.1667 57.4707 25.4141 57.886C25.6614 58.2967 25.9881 58.6233 26.3941 58.866C26.8047 59.1087 27.2504 59.23 27.7311 59.23ZM32.5968 60V53H33.5768V53.966C33.8242 53.6113 34.1462 53.329 34.5428 53.119C34.9395 52.909 35.3712 52.804 35.8378 52.804C36.1085 52.804 36.3698 52.839 36.6218 52.909L36.2228 53.882C36.0268 53.8213 35.8355 53.791 35.6488 53.791C35.2708 53.791 34.9232 53.8843 34.6058 54.071C34.2932 54.2577 34.0435 54.5073 33.8568 54.82C33.6702 55.1327 33.5768 55.4803 33.5768 55.863V60H32.5968ZM42.8969 49.5H43.8769V60H42.8969V58.691C42.6542 59.139 42.3206 59.5007 41.8959 59.776C41.4759 60.0467 40.9766 60.182 40.3979 60.182C39.8892 60.182 39.4132 60.0863 38.9699 59.895C38.5266 59.7037 38.1346 59.44 37.7939 59.104C37.4579 58.7633 37.1942 58.3713 37.0029 57.928C36.8116 57.4847 36.7159 57.0087 36.7159 56.5C36.7159 55.9913 36.8116 55.5153 37.0029 55.072C37.1942 54.624 37.4579 54.232 37.7939 53.896C38.1346 53.5553 38.5266 53.2893 38.9699 53.098C39.4132 52.9067 39.8892 52.811 40.3979 52.811C40.9766 52.811 41.4759 52.9487 41.8959 53.224C42.3206 53.4947 42.6542 53.8517 42.8969 54.295V49.5ZM40.4049 59.23C40.9042 59.23 41.3336 59.1087 41.6929 58.866C42.0522 58.6187 42.3276 58.2873 42.5189 57.872C42.7149 57.4567 42.8129 56.9993 42.8129 56.5C42.8129 55.9867 42.7149 55.5247 42.5189 55.114C42.3229 54.6987 42.0452 54.3697 41.6859 54.127C41.3266 53.8843 40.8996 53.763 40.4049 53.763C39.9102 53.763 39.4599 53.8867 39.0539 54.134C38.6479 54.3767 38.3236 54.7057 38.0809 55.121C37.8382 55.5363 37.7169 55.996 37.7169 56.5C37.7169 57.0087 37.8406 57.4707 38.0879 57.886C38.3352 58.2967 38.6619 58.6233 39.0679 58.866C39.4786 59.1087 39.9242 59.23 40.4049 59.23ZM45.2778 60V59.132C45.6604 58.7773 46.0804 58.39 46.5378 57.97C46.9951 57.5453 47.4478 57.109 47.8958 56.661C48.3484 56.2083 48.7614 55.7627 49.1348 55.324C49.5081 54.8807 49.8068 54.463 50.0308 54.071C50.2594 53.6743 50.3738 53.3243 50.3738 53.021C50.3738 52.6523 50.2828 52.3163 50.1008 52.013C49.9234 51.705 49.6831 51.46 49.3798 51.278C49.0811 51.0913 48.7474 50.998 48.3788 50.998C48.0101 50.998 47.6718 51.0913 47.3638 51.278C47.0604 51.46 46.8178 51.705 46.6358 52.013C46.4538 52.3163 46.3628 52.6523 46.3628 53.021H45.3828C45.3828 52.461 45.5181 51.9547 45.7888 51.502C46.0641 51.0493 46.4281 50.69 46.8808 50.424C47.3334 50.1533 47.8328 50.018 48.3788 50.018C48.9248 50.018 49.4218 50.1533 49.8698 50.424C50.3224 50.6947 50.6818 51.0563 50.9478 51.509C51.2184 51.9617 51.3538 52.4657 51.3538 53.021C51.3538 53.3523 51.2651 53.7163 51.0878 54.113C50.9151 54.505 50.6794 54.9133 50.3808 55.338C50.0821 55.758 49.7461 56.1827 49.3728 56.612C48.9994 57.0413 48.6098 57.4613 48.2038 57.872C47.7978 58.278 47.4034 58.6607 47.0208 59.02H51.5008V60H45.2778ZM57.7227 60.182C57.06 60.182 56.437 60.0513 55.8537 59.79C55.2703 59.524 54.757 59.16 54.3137 58.698C53.875 58.2313 53.5297 57.69 53.2777 57.074C53.0303 56.458 52.9067 55.8 52.9067 55.1C52.9067 54.4 53.0303 53.742 53.2777 53.126C53.5297 52.51 53.875 51.971 54.3137 51.509C54.757 51.0423 55.2703 50.6783 55.8537 50.417C56.437 50.151 57.06 50.018 57.7227 50.018C58.516 50.018 59.2463 50.2023 59.9137 50.571C60.581 50.9397 61.134 51.4297 61.5727 52.041L60.7047 52.51C60.3593 52.048 59.9207 51.6817 59.3887 51.411C58.8613 51.1357 58.306 50.998 57.7227 50.998C57.186 50.998 56.6843 51.1077 56.2177 51.327C55.7557 51.5417 55.3497 51.838 54.9997 52.216C54.6497 52.594 54.3767 53.0303 54.1807 53.525C53.9847 54.0197 53.8867 54.5447 53.8867 55.1C53.8867 55.6647 53.9847 56.1943 54.1807 56.689C54.3813 57.1837 54.6567 57.62 55.0067 57.998C55.3613 58.376 55.7697 58.6723 56.2317 58.887C56.6983 59.097 57.1953 59.202 57.7227 59.202C58.3293 59.202 58.8917 59.0643 59.4097 58.789C59.9323 58.509 60.364 58.145 60.7047 57.697L61.5727 58.166C61.134 58.7773 60.581 59.2673 59.9137 59.636C59.2463 60 58.516 60.182 57.7227 60.182ZM62.9894 60V53H63.9694V53.966C64.2167 53.6113 64.5387 53.329 64.9354 53.119C65.3321 52.909 65.7637 52.804 66.2304 52.804C66.5011 52.804 66.7624 52.839 67.0144 52.909L66.6154 53.882C66.4194 53.8213 66.2281 53.791 66.0414 53.791C65.6634 53.791 65.3157 53.8843 64.9984 54.071C64.6857 54.2577 64.4361 54.5073 64.2494 54.82C64.0627 55.1327 63.9694 55.4803 63.9694 55.863V60H62.9894ZM72.6926 53H73.7286L69.8996 63.5H68.8566L70.1306 60L67.6176 53H68.6886L70.6206 58.649L72.6926 53ZM75.946 63.5H74.966V53H75.946V54.309C76.1886 53.8657 76.52 53.5063 76.94 53.231C77.36 52.9557 77.8593 52.818 78.438 52.818C78.9466 52.818 79.4226 52.9137 79.866 53.105C80.314 53.2963 80.706 53.5623 81.042 53.903C81.378 54.239 81.6416 54.6287 81.833 55.072C82.0243 55.5153 82.12 55.9913 82.12 56.5C82.12 57.0087 82.0243 57.487 81.833 57.935C81.6416 58.383 81.378 58.7773 81.042 59.118C80.706 59.454 80.314 59.7177 79.866 59.909C79.4226 60.1003 78.9466 60.196 78.438 60.196C77.8593 60.196 77.36 60.0583 76.94 59.783C76.52 59.5077 76.1886 59.1483 75.946 58.705V63.5ZM78.431 53.77C77.941 53.77 77.514 53.8937 77.15 54.141C76.7906 54.3837 76.513 54.7103 76.317 55.121C76.121 55.5317 76.023 55.9913 76.023 56.5C76.023 56.9993 76.1186 57.4567 76.31 57.872C76.506 58.2873 76.7836 58.6187 77.143 58.866C77.507 59.1133 77.9363 59.237 78.431 59.237C78.9163 59.237 79.362 59.1157 79.768 58.873C80.1786 58.6303 80.5076 58.3037 80.755 57.893C81.0023 57.4777 81.126 57.0133 81.126 56.5C81.126 56.0007 81.0046 55.5457 80.762 55.135C80.5193 54.7197 80.195 54.3883 79.789 54.141C79.383 53.8937 78.9303 53.77 78.431 53.77ZM86.7598 53.98H85.0868L85.0798 60H84.0998L84.1068 53.98H82.8398V53H84.1068L84.0998 50.802H85.0798L85.0868 53H86.7598V53.98ZM90.8975 60.182C90.2535 60.182 89.6655 60.0163 89.1335 59.685C88.6062 59.3537 88.1839 58.9103 87.8665 58.355C87.5539 57.795 87.3975 57.1767 87.3975 56.5C87.3975 55.9867 87.4885 55.5083 87.6705 55.065C87.8525 54.617 88.1022 54.225 88.4195 53.889C88.7415 53.5483 89.1149 53.2823 89.5395 53.091C89.9642 52.8997 90.4169 52.804 90.8975 52.804C91.5415 52.804 92.1272 52.9697 92.6545 53.301C93.1865 53.6323 93.6089 54.078 93.9215 54.638C94.2389 55.198 94.3975 55.8187 94.3975 56.5C94.3975 57.0087 94.3065 57.4847 94.1245 57.928C93.9425 58.3713 93.6905 58.7633 93.3685 59.104C93.0512 59.44 92.6802 59.7037 92.2555 59.895C91.8355 60.0863 91.3829 60.182 90.8975 60.182ZM90.8975 59.202C91.3735 59.202 91.8005 59.0783 92.1785 58.831C92.5612 58.579 92.8622 58.2477 93.0815 57.837C93.3055 57.4263 93.4175 56.9807 93.4175 56.5C93.4175 56.01 93.3055 55.5597 93.0815 55.149C92.8575 54.7337 92.5542 54.4023 92.1715 54.155C91.7935 53.9077 91.3689 53.784 90.8975 53.784C90.4215 53.784 89.9922 53.91 89.6095 54.162C89.2315 54.4093 88.9305 54.7383 88.7065 55.149C88.4872 55.5597 88.3775 56.01 88.3775 56.5C88.3775 57.004 88.4919 57.4613 88.7205 57.872C88.9492 58.278 89.2549 58.6023 89.6375 58.845C90.0202 59.083 90.4402 59.202 90.8975 59.202Z" fill="#077453"/>
<g opacity="0.6">
<mask id="path-3-outside-1_2026_22196" maskUnits="userSpaceOnUse" x="36" y="13" width="34" height="22" fill="black">
<rect fill="white" x="36" y="13" width="34" height="22"/>
<path fill-rule="evenodd" clip-rule="evenodd" d="M40 15C38.8954 15 38 15.8954 38 17V26H68V17C68 15.8954 67.1046 15 66 15H40ZM68 30H38V31C38 32.1046 38.8954 33 40 33H66C67.1046 33 68 32.1046 68 31V30Z"/>
</mask>
<path fill-rule="evenodd" clip-rule="evenodd" d="M40 15C38.8954 15 38 15.8954 38 17V26H68V17C68 15.8954 67.1046 15 66 15H40ZM68 30H38V31C38 32.1046 38.8954 33 40 33H66C67.1046 33 68 32.1046 68 31V30Z" fill="#077453"/>
<path d="M38 26H36V28H38V26ZM68 26V28H70V26H68ZM68 30H70V28H68V30ZM38 30V28H36V30H38ZM40 17V17V13C37.7909 13 36 14.7909 36 17H40ZM40 26V17H36V26H40ZM38 28H68V24H38V28ZM66 17V26H70V17H66ZM66 17H70C70 14.7909 68.2091 13 66 13V17ZM40 17H66V13H40V17ZM68 28H38V32H68V28ZM40 31V30H36V31H40ZM40 31H40H36C36 33.2091 37.7909 35 40 35V31ZM66 31H40V35H66V31ZM66 31V35C68.2091 35 70 33.2091 70 31H66ZM66 30V31H70V30H66Z" fill="white" mask="url(#path-3-outside-1_2026_22196)"/>
<mask id="path-5-outside-2_2026_22196" maskUnits="userSpaceOnUse" x="41" y="19" width="31" height="22" fill="black">
<rect fill="white" x="41" y="19" width="31" height="22"/>
<path d="M43 23C43 21.8954 43.8954 21 45 21H68C69.1046 21 70 21.8954 70 23V37C70 38.1046 69.1046 39 68 39H45C43.8954 39 43 38.1046 43 37V23Z"/>
</mask>
<path d="M43 23C43 21.8954 43.8954 21 45 21H68C69.1046 21 70 21.8954 70 23V37C70 38.1046 69.1046 39 68 39H45C43.8954 39 43 38.1046 43 37V23Z" fill="#077453"/>
<path d="M45 23H68V19H45V23ZM68 23V37H72V23H68ZM68 37H45V41H68V37ZM45 37V23H41V37H45ZM45 37L45 37H41C41 39.2091 42.7909 41 45 41V37ZM68 37L68 37V41C70.2091 41 72 39.2091 72 37H68ZM68 23L68 23H72C72 20.7909 70.2091 19 68 19V23ZM45 19C42.7909 19 41 20.7909 41 23H45L45 23V19Z" fill="white" mask="url(#path-5-outside-2_2026_22196)"/>
<rect x="63" y="24" width="4" height="3" rx="1" fill="white"/>
<rect x="46" y="33" width="4" height="2" rx="1" fill="white"/>
<rect x="51.6992" y="33" width="4" height="2" rx="1" fill="white"/>
<rect x="57.3984" y="33" width="4" height="2" rx="1" fill="white"/>
<rect x="63.0977" y="33" width="4" height="2" rx="1" fill="white"/>
</g>
</svg>
