<svg width="109" height="72" viewBox="0 0 109 72" fill="none" xmlns="http://www.w3.org/2000/svg">
<rect width="109" height="72" rx="16" fill="#BFFFC8"/>
<path d="M25.8507 60V50.2H31.8147V51.18H26.8307V54.26H30.9537V55.24H26.8307V59.02H31.8147V60H25.8507ZM32.7075 60L35.2695 56.486L32.7145 52.979H33.9255L35.8785 55.646L37.8245 52.979H39.0285L36.4805 56.486L39.0425 60H37.8315L35.8785 57.312L33.9185 60H32.7075ZM44.9308 58.243L45.8058 58.719C45.4884 59.1623 45.0848 59.517 44.5948 59.783C44.1094 60.049 43.5821 60.182 43.0128 60.182C42.3688 60.182 41.7808 60.0163 41.2488 59.685C40.7214 59.3537 40.2991 58.9103 39.9818 58.355C39.6691 57.795 39.5128 57.1767 39.5128 56.5C39.5128 55.9867 39.6038 55.5083 39.7858 55.065C39.9678 54.617 40.2174 54.225 40.5348 53.889C40.8568 53.5483 41.2301 53.2823 41.6548 53.091C42.0794 52.8997 42.5321 52.804 43.0128 52.804C43.5821 52.804 44.1094 52.937 44.5948 53.203C45.0848 53.469 45.4884 53.826 45.8058 54.274L44.9308 54.743C44.6881 54.435 44.3964 54.1993 44.0558 54.036C43.7151 53.868 43.3674 53.784 43.0128 53.784C42.5414 53.784 42.1144 53.91 41.7318 54.162C41.3491 54.4093 41.0458 54.7383 40.8218 55.149C40.6024 55.5597 40.4928 56.01 40.4928 56.5C40.4928 56.99 40.6048 57.4403 40.8288 57.851C41.0574 58.2617 41.3631 58.5907 41.7458 58.838C42.1284 59.0807 42.5508 59.202 43.0128 59.202C43.3954 59.202 43.7548 59.1133 44.0908 58.936C44.4268 58.7587 44.7068 58.5277 44.9308 58.243ZM53.0778 55.667V60H52.0978V55.863C52.0978 55.4803 52.0045 55.1327 51.8178 54.82C51.6311 54.5073 51.3815 54.2577 51.0688 54.071C50.7561 53.8843 50.4085 53.791 50.0258 53.791C49.6478 53.791 49.3001 53.8843 48.9828 54.071C48.6701 54.2577 48.4205 54.5073 48.2338 54.82C48.0471 55.1327 47.9538 55.4803 47.9538 55.863V60H46.9738V49.5H47.9538V53.966C48.2011 53.6113 48.5231 53.329 48.9198 53.119C49.3165 52.909 49.7481 52.804 50.2148 52.804C50.7421 52.804 51.2228 52.9323 51.6568 53.189C52.0908 53.4457 52.4361 53.791 52.6928 54.225C52.9495 54.659 53.0778 55.1397 53.0778 55.667ZM60.0969 53H61.0769V60H60.0969L60.0619 58.698C59.8333 59.1413 59.5136 59.5007 59.1029 59.776C58.6923 60.0467 58.2023 60.182 57.6329 60.182C57.1196 60.182 56.6389 60.0863 56.1909 59.895C55.7429 59.699 55.3486 59.4307 55.0079 59.09C54.6673 58.7493 54.4013 58.355 54.2099 57.907C54.0186 57.459 53.9229 56.9783 53.9229 56.465C53.9229 55.961 54.0163 55.4873 54.2029 55.044C54.3943 54.6007 54.6556 54.211 54.9869 53.875C55.3229 53.539 55.7103 53.2777 56.1489 53.091C56.5923 52.8997 57.0659 52.804 57.5699 52.804C58.1533 52.804 58.6619 52.944 59.0959 53.224C59.5299 53.4993 59.8753 53.861 60.1319 54.309L60.0969 53ZM57.6119 59.23C58.1113 59.23 58.5406 59.1087 58.8999 58.866C59.2593 58.6187 59.5346 58.2873 59.7259 57.872C59.9219 57.4567 60.0199 56.9993 60.0199 56.5C60.0199 55.9867 59.9219 55.5247 59.7259 55.114C59.5299 54.6987 59.2523 54.3697 58.8929 54.127C58.5336 53.8843 58.1066 53.763 57.6119 53.763C57.1173 53.763 56.6646 53.8867 56.2539 54.134C55.8479 54.3767 55.5236 54.7057 55.2809 55.121C55.0429 55.5363 54.9239 55.996 54.9239 56.5C54.9239 57.0087 55.0476 57.4707 55.2949 57.886C55.5423 58.2967 55.8689 58.6233 56.2749 58.866C56.6856 59.1087 57.1313 59.23 57.6119 59.23ZM68.5817 55.667V60H67.6017V55.863C67.6017 55.4803 67.5084 55.1327 67.3217 54.82C67.135 54.5073 66.8854 54.2577 66.5727 54.071C66.26 53.8843 65.9124 53.791 65.5297 53.791C65.1517 53.791 64.804 53.8843 64.4867 54.071C64.174 54.2577 63.9244 54.5073 63.7377 54.82C63.551 55.1327 63.4577 55.4803 63.4577 55.863V60H62.4777V53H63.4577V53.966C63.705 53.6113 64.027 53.329 64.4237 53.119C64.8204 52.909 65.252 52.804 65.7187 52.804C66.246 52.804 66.7267 52.9323 67.1607 53.189C67.5947 53.4457 67.94 53.791 68.1967 54.225C68.4534 54.659 68.5817 55.1397 68.5817 55.667ZM75.4118 53H76.3918V60.259C76.3918 60.707 76.2938 61.127 76.0978 61.519C75.9065 61.911 75.6452 62.254 75.3138 62.548C74.9872 62.8467 74.6138 63.08 74.1938 63.248C73.7738 63.416 73.3375 63.5 72.8848 63.5C72.3995 63.5 71.9305 63.388 71.4778 63.164C71.0252 62.9447 70.6308 62.6507 70.2948 62.282C69.9635 61.9133 69.7278 61.505 69.5878 61.057L70.4908 60.644C70.5795 60.994 70.7452 61.309 70.9878 61.589C71.2352 61.8737 71.5245 62.0977 71.8558 62.261C72.1918 62.429 72.5348 62.513 72.8848 62.513C73.2068 62.513 73.5172 62.4523 73.8158 62.331C74.1192 62.2143 74.3898 62.0533 74.6278 61.848C74.8705 61.6427 75.0618 61.4023 75.2018 61.127C75.3418 60.8563 75.4118 60.567 75.4118 60.259V58.712C75.1692 59.1507 74.8402 59.5053 74.4248 59.776C74.0142 60.0467 73.5358 60.182 72.9898 60.182C72.4998 60.182 72.0378 60.0863 71.6038 59.895C71.1745 59.7037 70.7965 59.44 70.4698 59.104C70.1432 58.7633 69.8865 58.3713 69.6998 57.928C69.5178 57.4847 69.4268 57.0087 69.4268 56.5C69.4268 55.9913 69.5178 55.5153 69.6998 55.072C69.8865 54.624 70.1432 54.232 70.4698 53.896C70.7965 53.5553 71.1745 53.2893 71.6038 53.098C72.0378 52.9067 72.4998 52.811 72.9898 52.811C73.5358 52.811 74.0142 52.9463 74.4248 53.217C74.8402 53.483 75.1692 53.8377 75.4118 54.281V53ZM72.9968 59.23C73.4822 59.23 73.8998 59.104 74.2498 58.852C74.6045 58.6 74.8775 58.2663 75.0688 57.851C75.2602 57.4357 75.3558 56.9853 75.3558 56.5C75.3558 56.0007 75.2578 55.5457 75.0618 55.135C74.8705 54.7197 74.5975 54.3883 74.2428 54.141C73.8882 53.889 73.4728 53.763 72.9968 53.763C72.5208 53.763 72.0868 53.8867 71.6948 54.134C71.3075 54.3767 70.9995 54.7057 70.7708 55.121C70.5422 55.5363 70.4278 55.996 70.4278 56.5C70.4278 57.004 70.5445 57.4637 70.7778 57.879C71.0112 58.2897 71.3215 58.6187 71.7088 58.866C72.1008 59.1087 72.5302 59.23 72.9968 59.23ZM81.0889 60.182C80.4449 60.182 79.8569 60.0163 79.3249 59.685C78.7976 59.3537 78.3753 58.9103 78.0579 58.355C77.7453 57.795 77.5889 57.1767 77.5889 56.5C77.5889 55.9867 77.6799 55.5083 77.8619 55.065C78.0439 54.617 78.2936 54.225 78.6109 53.889C78.9329 53.5483 79.3063 53.2823 79.7309 53.091C80.1556 52.8997 80.6083 52.804 81.0889 52.804C81.6069 52.804 82.0829 52.9067 82.5169 53.112C82.9556 53.3173 83.3313 53.6043 83.6439 53.973C83.9613 54.3417 84.1993 54.7733 84.3579 55.268C84.5213 55.7627 84.5889 56.297 84.5609 56.871H78.6249C78.6809 57.3143 78.8209 57.711 79.0449 58.061C79.2736 58.411 79.5629 58.6887 79.9129 58.894C80.2676 59.0947 80.6596 59.1973 81.0889 59.202C81.5556 59.202 81.9756 59.0807 82.3489 58.838C82.7269 58.5953 83.0303 58.2617 83.2589 57.837L84.2529 58.068C83.9729 58.6887 83.5506 59.1973 82.9859 59.594C82.4213 59.986 81.7889 60.182 81.0889 60.182ZM78.5969 56.08H83.5739C83.5413 55.646 83.4083 55.2493 83.1749 54.89C82.9463 54.526 82.6499 54.2367 82.2859 54.022C81.9219 53.8027 81.5229 53.693 81.0889 53.693C80.6549 53.693 80.2583 53.8003 79.8989 54.015C79.5396 54.225 79.2456 54.512 79.0169 54.876C78.7883 55.2353 78.6483 55.6367 78.5969 56.08Z" fill="#077453"/>
<path fill-rule="evenodd" clip-rule="evenodd" d="M38 15.994C38 14.3405 39.3405 13 40.994 13H67.3413C68.9949 13 70.3353 14.3405 70.3353 15.994V18.3892H38V15.994ZM43.3902 15.6951C43.3902 16.1911 42.988 16.5933 42.492 16.5933C41.9959 16.5933 41.5938 16.1911 41.5938 15.6951C41.5938 15.199 41.9959 14.7969 42.492 14.7969C42.988 14.7969 43.3902 15.199 43.3902 15.6951ZM47.8826 16.5933C48.3786 16.5933 48.7808 16.1911 48.7808 15.6951C48.7808 15.199 48.3786 14.7969 47.8826 14.7969C47.3865 14.7969 46.9844 15.199 46.9844 15.6951C46.9844 16.1911 47.3865 16.5933 47.8826 16.5933ZM46.0855 15.6951C46.0855 16.1911 45.6833 16.5933 45.1873 16.5933C44.6912 16.5933 44.2891 16.1911 44.2891 15.6951C44.2891 15.199 44.6912 14.7969 45.1873 14.7969C45.6833 14.7969 46.0855 15.199 46.0855 15.6951ZM40.994 39.3454H67.3413C68.3335 39.3454 69.1377 38.5411 69.1377 37.549V20.7825H39.1976V37.549C39.1976 38.5411 40.0019 39.3454 40.994 39.3454ZM38 37.549C38 39.2025 39.3405 40.543 40.994 40.543H67.3413C68.9949 40.543 70.3353 39.2025 70.3353 37.549V20.7825V19.5849H69.1377H39.1976H38V20.7825V37.549Z" fill="#077453"/>
<path d="M59.5 24L59.5 28.2426M59.5 28.2426L55.2574 28.2426M59.5 28.2426C59.5 28.2426 57.25 24.75 54.25 24.75C49.2574 24.75 49 28.5 49 28.5" stroke="#077453" stroke-width="1.5"/>
<path d="M49 36L49 31.7574M49 31.7574L53.2426 31.7574M49 31.7574C49 31.7574 51.25 35.25 54.25 35.25C59.2426 35.25 59.5 31.5 59.5 31.5" stroke="#077453" stroke-width="1.5"/>
</svg>
