<svg width="109" height="72" viewBox="0 0 109 72" fill="none" xmlns="http://www.w3.org/2000/svg">
<rect width="109" height="72" rx="16" fill="#BFFFC8"/>
<path d="M35.8838 60L33.3778 50.2H34.3858L36.4578 58.313L38.5228 50.2H39.3908L41.4628 58.313L43.5278 50.2H44.5358L42.0438 60H40.8818L38.9568 52.475L37.0318 60H35.8838ZM45.2091 53H46.1891V60H45.2091V53ZM45.7061 51.775C45.5475 51.775 45.4121 51.7237 45.3001 51.621C45.1928 51.5137 45.1391 51.3807 45.1391 51.222C45.1391 51.0633 45.1928 50.9327 45.3001 50.83C45.4121 50.7227 45.5475 50.669 45.7061 50.669C45.8601 50.669 45.9908 50.7227 46.0981 50.83C46.2101 50.9327 46.2661 51.0633 46.2661 51.222C46.2661 51.3807 46.2125 51.5137 46.1051 51.621C45.9978 51.7237 45.8648 51.775 45.7061 51.775ZM53.5678 49.5H54.5478V60H53.5678V58.691C53.3251 59.139 52.9915 59.5007 52.5668 59.776C52.1468 60.0467 51.6475 60.182 51.0688 60.182C50.5601 60.182 50.0841 60.0863 49.6408 59.895C49.1975 59.7037 48.8055 59.44 48.4648 59.104C48.1288 58.7633 47.8651 58.3713 47.6738 57.928C47.4825 57.4847 47.3868 57.0087 47.3868 56.5C47.3868 55.9913 47.4825 55.5153 47.6738 55.072C47.8651 54.624 48.1288 54.232 48.4648 53.896C48.8055 53.5553 49.1975 53.2893 49.6408 53.098C50.0841 52.9067 50.5601 52.811 51.0688 52.811C51.6475 52.811 52.1468 52.9487 52.5668 53.224C52.9915 53.4947 53.3251 53.8517 53.5678 54.295V49.5ZM51.0758 59.23C51.5751 59.23 52.0045 59.1087 52.3638 58.866C52.7231 58.6187 52.9985 58.2873 53.1898 57.872C53.3858 57.4567 53.4838 56.9993 53.4838 56.5C53.4838 55.9867 53.3858 55.5247 53.1898 55.114C52.9938 54.6987 52.7161 54.3697 52.3568 54.127C51.9975 53.8843 51.5705 53.763 51.0758 53.763C50.5811 53.763 50.1308 53.8867 49.7248 54.134C49.3188 54.3767 48.9945 54.7057 48.7518 55.121C48.5091 55.5363 48.3878 55.996 48.3878 56.5C48.3878 57.0087 48.5115 57.4707 48.7588 57.886C49.0061 58.2967 49.3328 58.6233 49.7388 58.866C50.1495 59.1087 50.5951 59.23 51.0758 59.23ZM61.739 53H62.719V60.259C62.719 60.707 62.621 61.127 62.425 61.519C62.2337 61.911 61.9723 62.254 61.641 62.548C61.3143 62.8467 60.941 63.08 60.521 63.248C60.101 63.416 59.6647 63.5 59.212 63.5C58.7267 63.5 58.2577 63.388 57.805 63.164C57.3523 62.9447 56.958 62.6507 56.622 62.282C56.2907 61.9133 56.055 61.505 55.915 61.057L56.818 60.644C56.9067 60.994 57.0723 61.309 57.315 61.589C57.5623 61.8737 57.8517 62.0977 58.183 62.261C58.519 62.429 58.862 62.513 59.212 62.513C59.534 62.513 59.8443 62.4523 60.143 62.331C60.4463 62.2143 60.717 62.0533 60.955 61.848C61.1977 61.6427 61.389 61.4023 61.529 61.127C61.669 60.8563 61.739 60.567 61.739 60.259V58.712C61.4963 59.1507 61.1673 59.5053 60.752 59.776C60.3413 60.0467 59.863 60.182 59.317 60.182C58.827 60.182 58.365 60.0863 57.931 59.895C57.5017 59.7037 57.1237 59.44 56.797 59.104C56.4703 58.7633 56.2137 58.3713 56.027 57.928C55.845 57.4847 55.754 57.0087 55.754 56.5C55.754 55.9913 55.845 55.5153 56.027 55.072C56.2137 54.624 56.4703 54.232 56.797 53.896C57.1237 53.5553 57.5017 53.2893 57.931 53.098C58.365 52.9067 58.827 52.811 59.317 52.811C59.863 52.811 60.3413 52.9463 60.752 53.217C61.1673 53.483 61.4963 53.8377 61.739 54.281V53ZM59.324 59.23C59.8093 59.23 60.227 59.104 60.577 58.852C60.9317 58.6 61.2047 58.2663 61.396 57.851C61.5873 57.4357 61.683 56.9853 61.683 56.5C61.683 56.0007 61.585 55.5457 61.389 55.135C61.1977 54.7197 60.9247 54.3883 60.57 54.141C60.2153 53.889 59.8 53.763 59.324 53.763C58.848 53.763 58.414 53.8867 58.022 54.134C57.6347 54.3767 57.3267 54.7057 57.098 55.121C56.8693 55.5363 56.755 55.996 56.755 56.5C56.755 57.004 56.8717 57.4637 57.105 57.879C57.3383 58.2897 57.6487 58.6187 58.036 58.866C58.428 59.1087 58.8573 59.23 59.324 59.23ZM67.4161 60.182C66.7721 60.182 66.1841 60.0163 65.6521 59.685C65.1248 59.3537 64.7024 58.9103 64.3851 58.355C64.0724 57.795 63.9161 57.1767 63.9161 56.5C63.9161 55.9867 64.0071 55.5083 64.1891 55.065C64.3711 54.617 64.6208 54.225 64.9381 53.889C65.2601 53.5483 65.6334 53.2823 66.0581 53.091C66.4828 52.8997 66.9354 52.804 67.4161 52.804C67.9341 52.804 68.4101 52.9067 68.8441 53.112C69.2828 53.3173 69.6584 53.6043 69.9711 53.973C70.2884 54.3417 70.5264 54.7733 70.6851 55.268C70.8484 55.7627 70.9161 56.297 70.8881 56.871H64.9521C65.0081 57.3143 65.1481 57.711 65.3721 58.061C65.6008 58.411 65.8901 58.6887 66.2401 58.894C66.5948 59.0947 66.9868 59.1973 67.4161 59.202C67.8828 59.202 68.3028 59.0807 68.6761 58.838C69.0541 58.5953 69.3574 58.2617 69.5861 57.837L70.5801 58.068C70.3001 58.6887 69.8778 59.1973 69.3131 59.594C68.7484 59.986 68.1161 60.182 67.4161 60.182ZM64.9241 56.08H69.9011C69.8684 55.646 69.7354 55.2493 69.5021 54.89C69.2734 54.526 68.9771 54.2367 68.6131 54.022C68.2491 53.8027 67.8501 53.693 67.4161 53.693C66.9821 53.693 66.5854 53.8003 66.2261 54.015C65.8668 54.225 65.5728 54.512 65.3441 54.876C65.1154 55.2353 64.9754 55.6367 64.9241 56.08ZM75.542 53.98H73.869L73.862 60H72.882L72.889 53.98H71.622V53H72.889L72.882 50.802H73.862L73.869 53H75.542V53.98Z" fill="#077453"/>
<path fill-rule="evenodd" clip-rule="evenodd" d="M40.994 13C39.3405 13 38 14.3405 38 15.994V18.3892H70.3353V15.994C70.3353 14.3405 68.9949 13 67.3413 13H40.994ZM42.492 16.5933C42.988 16.5933 43.3902 16.1911 43.3902 15.6951C43.3902 15.199 42.988 14.7969 42.492 14.7969C41.9959 14.7969 41.5938 15.199 41.5938 15.6951C41.5938 16.1911 41.9959 16.5933 42.492 16.5933ZM48.7808 15.6951C48.7808 16.1911 48.3786 16.5933 47.8826 16.5933C47.3865 16.5933 46.9844 16.1911 46.9844 15.6951C46.9844 15.199 47.3865 14.7969 47.8826 14.7969C48.3786 14.7969 48.7808 15.199 48.7808 15.6951ZM45.1873 16.5933C45.6833 16.5933 46.0855 16.1911 46.0855 15.6951C46.0855 15.199 45.6833 14.7969 45.1873 14.7969C44.6912 14.7969 44.2891 15.199 44.2891 15.6951C44.2891 16.1911 44.6912 16.5933 45.1873 16.5933ZM67.3413 39.3493H40.994C40.0019 39.3493 39.1976 38.545 39.1976 37.5529V20.7864H69.1377V37.5529C69.1377 38.545 68.3335 39.3493 67.3413 39.3493ZM40.994 40.5469C39.3405 40.5469 38 39.2064 38 37.5529V20.7864V19.5888H39.1976H69.1377H70.3353V20.7864V37.5529C70.3353 39.2064 68.9949 40.5469 67.3413 40.5469H40.994ZM52.5271 33.7502H51.2204L55.8069 24.9766H57.1136L52.5271 33.7502ZM42.4922 30.6808V29.6796L50.1755 26.4125V27.6903L44.3477 30.1802L50.1755 32.5514V33.8293L42.4922 30.6808ZM58.1622 32.5514V33.8293L65.8455 30.6808V29.6796L58.1622 26.4125V27.6903L63.99 30.1802L58.1622 32.5514Z" fill="#077453"/>
</svg>
