<svg width="109" height="72" viewBox="0 0 109 72" fill="none" xmlns="http://www.w3.org/2000/svg">
<rect width="109" height="72" rx="16" fill="#BFFFC8"/>
<path d="M29.4554 60.182C28.7928 60.182 28.1698 60.0513 27.5864 59.79C27.0031 59.524 26.4898 59.1577 26.0464 58.691C25.6031 58.2243 25.2554 57.6853 25.0034 57.074C24.7514 56.458 24.6254 55.8 24.6254 55.1C24.6254 54.4 24.7514 53.7443 25.0034 53.133C25.2554 52.517 25.6031 51.9757 26.0464 51.509C26.4898 51.0423 27.0031 50.6783 27.5864 50.417C28.1698 50.151 28.7928 50.018 29.4554 50.018C30.1228 50.018 30.7481 50.151 31.3314 50.417C31.9148 50.6783 32.4281 51.0423 32.8714 51.509C33.3148 51.9757 33.6601 52.517 33.9074 53.133C34.1594 53.7443 34.2854 54.4 34.2854 55.1C34.2854 55.8 34.1594 56.458 33.9074 57.074C33.6601 57.6853 33.3148 58.2243 32.8714 58.691C32.4281 59.1577 31.9148 59.524 31.3314 59.79C30.7481 60.0513 30.1228 60.182 29.4554 60.182ZM29.4554 59.202C29.9921 59.202 30.4914 59.0947 30.9534 58.88C31.4201 58.6607 31.8284 58.362 32.1784 57.984C32.5331 57.606 32.8084 57.1697 33.0044 56.675C33.2051 56.1803 33.3054 55.6553 33.3054 55.1C33.3054 54.54 33.2051 54.0127 33.0044 53.518C32.8038 53.0187 32.5261 52.5823 32.1714 52.209C31.8214 51.831 31.4131 51.5347 30.9464 51.32C30.4844 51.1053 29.9874 50.998 29.4554 50.998C28.9188 50.998 28.4171 51.1077 27.9504 51.327C27.4884 51.5417 27.0801 51.838 26.7254 52.216C26.3754 52.594 26.1001 53.0303 25.8994 53.525C25.7034 54.0197 25.6054 54.5447 25.6054 55.1C25.6054 55.6647 25.7058 56.1943 25.9064 56.689C26.1071 57.1837 26.3824 57.62 26.7324 57.998C27.0871 58.376 27.4954 58.6723 27.9574 58.887C28.4241 59.097 28.9234 59.202 29.4554 59.202ZM37.1279 51.173V53H39.2279V53.98H37.1279V60H36.1479V53.98H35.1889V53H36.1479V51.173C36.1479 50.8323 36.2295 50.5243 36.3929 50.249C36.5609 49.969 36.7849 49.7473 37.0649 49.584C37.3449 49.416 37.6552 49.332 37.9959 49.332C38.2432 49.332 38.4812 49.381 38.7099 49.479C38.9432 49.577 39.1509 49.7217 39.3329 49.913L38.6329 50.606C38.5582 50.5127 38.4625 50.4403 38.3459 50.389C38.2339 50.3377 38.1172 50.312 37.9959 50.312C37.7579 50.312 37.5525 50.396 37.3799 50.564C37.2119 50.732 37.1279 50.935 37.1279 51.173ZM41.9951 51.173V53H44.0951V53.98H41.9951V60H41.0151V53.98H40.0561V53H41.0151V51.173C41.0151 50.8323 41.0967 50.5243 41.2601 50.249C41.4281 49.969 41.6521 49.7473 41.9321 49.584C42.2121 49.416 42.5224 49.332 42.8631 49.332C43.1104 49.332 43.3484 49.381 43.5771 49.479C43.8104 49.577 44.0181 49.7217 44.2001 49.913L43.5001 50.606C43.4254 50.5127 43.3297 50.4403 43.2131 50.389C43.1011 50.3377 42.9844 50.312 42.8631 50.312C42.6251 50.312 42.4197 50.396 42.2471 50.564C42.0791 50.732 41.9951 50.935 41.9951 51.173ZM45.0851 55.31H49.5651V56.29H45.0851V55.31ZM51.2511 60V53H52.2311V53.966C52.4785 53.6113 52.8005 53.329 53.1971 53.119C53.5938 52.909 54.0255 52.804 54.4921 52.804C54.7628 52.804 55.0241 52.839 55.2761 52.909L54.8771 53.882C54.6811 53.8213 54.4898 53.791 54.3031 53.791C53.9251 53.791 53.5775 53.8843 53.2601 54.071C52.9475 54.2577 52.6978 54.5073 52.5111 54.82C52.3245 55.1327 52.2311 55.4803 52.2311 55.863V60H51.2511ZM61.5442 53H62.5242V60H61.5442L61.5092 58.698C61.2805 59.1413 60.9609 59.5007 60.5502 59.776C60.1395 60.0467 59.6495 60.182 59.0802 60.182C58.5669 60.182 58.0862 60.0863 57.6382 59.895C57.1902 59.699 56.7959 59.4307 56.4552 59.09C56.1145 58.7493 55.8485 58.355 55.6572 57.907C55.4659 57.459 55.3702 56.9783 55.3702 56.465C55.3702 55.961 55.4635 55.4873 55.6502 55.044C55.8415 54.6007 56.1029 54.211 56.4342 53.875C56.7702 53.539 57.1575 53.2777 57.5962 53.091C58.0395 52.8997 58.5132 52.804 59.0172 52.804C59.6005 52.804 60.1092 52.944 60.5432 53.224C60.9772 53.4993 61.3225 53.861 61.5792 54.309L61.5442 53ZM59.0592 59.23C59.5585 59.23 59.9879 59.1087 60.3472 58.866C60.7065 58.6187 60.9819 58.2873 61.1732 57.872C61.3692 57.4567 61.4672 56.9993 61.4672 56.5C61.4672 55.9867 61.3692 55.5247 61.1732 55.114C60.9772 54.6987 60.6995 54.3697 60.3402 54.127C59.9809 53.8843 59.5539 53.763 59.0592 53.763C58.5645 53.763 58.1119 53.8867 57.7012 54.134C57.2952 54.3767 56.9709 54.7057 56.7282 55.121C56.4902 55.5363 56.3712 55.996 56.3712 56.5C56.3712 57.0087 56.4949 57.4707 56.7422 57.886C56.9895 58.2967 57.3162 58.6233 57.7222 58.866C58.1329 59.1087 58.5785 59.23 59.0592 59.23ZM63.925 60V53H64.905V53.966C65.157 53.6113 65.479 53.329 65.871 53.119C66.263 52.909 66.6923 52.804 67.159 52.804C67.6863 52.804 68.1693 52.9347 68.608 53.196C69.0466 53.4527 69.3896 53.7957 69.637 54.225C69.8843 53.7957 70.225 53.4527 70.659 53.196C71.093 52.9347 71.5736 52.804 72.101 52.804C72.6283 52.804 73.109 52.9323 73.543 53.189C73.977 53.4457 74.3223 53.791 74.579 54.225C74.8356 54.659 74.964 55.1397 74.964 55.667V60H73.984V55.884C73.984 55.5107 73.893 55.1653 73.711 54.848C73.529 54.5307 73.284 54.2763 72.976 54.085C72.6726 53.889 72.3343 53.791 71.961 53.791C71.5876 53.791 71.247 53.882 70.939 54.064C70.6356 54.2413 70.393 54.4887 70.211 54.806C70.029 55.1187 69.938 55.478 69.938 55.884V60H68.958V55.884C68.958 55.478 68.867 55.1187 68.685 54.806C68.503 54.4887 68.258 54.2413 67.95 54.064C67.642 53.882 67.3013 53.791 66.928 53.791C66.5593 53.791 66.221 53.889 65.913 54.085C65.605 54.2763 65.36 54.5307 65.178 54.848C64.996 55.1653 64.905 55.5107 64.905 55.884V60H63.925ZM77.3464 63.5H76.3664V53H77.3464V54.309C77.589 53.8657 77.9204 53.5063 78.3404 53.231C78.7604 52.9557 79.2597 52.818 79.8384 52.818C80.347 52.818 80.823 52.9137 81.2664 53.105C81.7144 53.2963 82.1064 53.5623 82.4424 53.903C82.7784 54.239 83.042 54.6287 83.2334 55.072C83.4247 55.5153 83.5204 55.9913 83.5204 56.5C83.5204 57.0087 83.4247 57.487 83.2334 57.935C83.042 58.383 82.7784 58.7773 82.4424 59.118C82.1064 59.454 81.7144 59.7177 81.2664 59.909C80.823 60.1003 80.347 60.196 79.8384 60.196C79.2597 60.196 78.7604 60.0583 78.3404 59.783C77.9204 59.5077 77.589 59.1483 77.3464 58.705V63.5ZM79.8314 53.77C79.3414 53.77 78.9144 53.8937 78.5504 54.141C78.191 54.3837 77.9134 54.7103 77.7174 55.121C77.5214 55.5317 77.4234 55.9913 77.4234 56.5C77.4234 56.9993 77.519 57.4567 77.7104 57.872C77.9064 58.2873 78.184 58.6187 78.5434 58.866C78.9074 59.1133 79.3367 59.237 79.8314 59.237C80.3167 59.237 80.7624 59.1157 81.1684 58.873C81.579 58.6303 81.908 58.3037 82.1554 57.893C82.4027 57.4777 82.5264 57.0133 82.5264 56.5C82.5264 56.0007 82.405 55.5457 82.1624 55.135C81.9197 54.7197 81.5954 54.3883 81.1894 54.141C80.7834 53.8937 80.3307 53.77 79.8314 53.77Z" fill="#077453"/>
<path fill-rule="evenodd" clip-rule="evenodd" d="M49.7744 17.8645C51.996 15.643 55.5978 15.643 57.8193 17.8645L58.6662 17.0177C55.9769 14.3284 51.6168 14.3284 48.9276 17.0177L49.7744 17.8645ZM49.7744 36.8658C51.996 39.0874 55.5978 39.0874 57.8193 36.8658L58.6662 37.7127C55.9769 40.4019 51.6168 40.4019 48.9276 37.7127L49.7744 36.8658ZM46.9641 20.7115C45.6485 19.8324 44.1018 19.3632 42.5195 19.3632C40.3978 19.3632 38.363 20.2061 36.8627 21.7064C35.3624 23.2066 34.5195 25.2415 34.5195 27.3632C34.5195 28.9455 34.9887 30.4922 35.8678 31.8078C36.7468 33.1234 37.9963 34.1487 39.4581 34.7542C40.9199 35.3597 42.5284 35.5182 44.0803 35.2095C45.6321 34.9008 47.0576 34.1389 48.1764 33.0201C49.2952 31.9012 50.0571 30.4758 50.3658 28.9239C50.6745 27.3721 50.5161 25.7635 49.9106 24.3017C49.3051 22.8399 48.2797 21.5905 46.9641 20.7115ZM42.5176 21.6991L42.5193 21.7017V21.6991L44.4168 24.5268L46.3139 27.3619L46.3144 27.3621L46.3142 27.3623L46.3142 27.3623L46.3141 27.3623L46.3093 27.3647L46.3125 27.3696L42.5176 29.2813L38.7227 27.3623L38.7228 27.3622L38.7227 27.3621L38.7229 27.362L40.6201 24.5268L42.5176 21.6991ZM38.9331 28.1327L38.9402 28.1365L38.9375 28.1327L42.5197 30.044L46.102 28.1327L46.0961 28.1408L46.1112 28.1327L42.5219 33.0295V33.0328L42.5207 33.0312L42.5195 33.0328V33.0295L41.87 32.1416L38.9331 28.1327ZM65.1328 35.3632C69.5511 35.3632 73.1328 31.7815 73.1328 27.3632C73.1328 22.9449 69.5511 19.3632 65.1328 19.3632C60.7145 19.3632 57.1328 22.9449 57.1328 27.3632C57.1328 31.7815 60.7145 35.3632 65.1328 35.3632ZM59.6176 27.0064H61.0122C61.0026 27.1351 60.9979 27.2513 60.9979 27.3611C60.9979 27.505 61.0046 27.6527 61.0179 27.8003H60.3408H60.314L60.3027 27.8249L59.6411 29.2426L59.6131 29.3031H59.6798H61.4052C62.2016 31.1127 64.014 32.2804 66.0307 32.2804C67.0465 32.2804 68.0252 31.9861 68.862 31.4285L68.8807 31.416V31.3929V29.6552V29.5423L68.8064 29.6272C68.1463 30.3787 67.1968 30.8095 66.2011 30.8095C65.0563 30.8095 63.9941 30.2477 63.3435 29.3031H66.935H66.9623L66.9736 29.2789L67.6349 27.8607L67.6632 27.8003H67.5963H62.7607C62.7389 27.6404 62.7277 27.4793 62.7277 27.3201C62.7277 27.2162 62.7323 27.1109 62.7417 27.0064H68.0061H68.0334L68.0447 26.9819L68.7058 25.5642L68.7343 25.5036H68.6671H63.236C63.8649 24.4698 64.9944 23.8307 66.2011 23.8307C67.2482 23.8307 68.229 24.2987 68.8922 25.1141L68.9351 25.1669L68.9641 25.1054L69.5382 23.8741L69.5509 23.846L69.529 23.8248C68.5849 22.9326 67.3425 22.4413 66.0307 22.4413C65.0063 22.4413 64.0208 22.7405 63.1801 23.3068C62.3673 23.8543 61.7419 24.6136 61.3705 25.5036H60.2789H60.2515L60.2402 25.5281L59.5792 26.9458L59.5509 27.0064H59.6176Z" fill="#077453"/>
</svg>
