<svg width="109" height="72" viewBox="0 0 109 72" fill="none" xmlns="http://www.w3.org/2000/svg">
<rect width="109" height="72" rx="16" fill="#BFFFC8"/>
<path d="M31.4193 60.182C30.7566 60.182 30.1336 60.0513 29.5503 59.79C28.967 59.524 28.4536 59.1577 28.0103 58.691C27.567 58.2243 27.2193 57.6853 26.9673 57.074C26.7153 56.458 26.5893 55.8 26.5893 55.1C26.5893 54.4 26.7153 53.7443 26.9673 53.133C27.2193 52.517 27.567 51.9757 28.0103 51.509C28.4536 51.0423 28.967 50.6783 29.5503 50.417C30.1336 50.151 30.7566 50.018 31.4193 50.018C32.0866 50.018 32.712 50.151 33.2953 50.417C33.8786 50.6783 34.392 51.0423 34.8353 51.509C35.2786 51.9757 35.624 52.517 35.8713 53.133C36.1233 53.7443 36.2493 54.4 36.2493 55.1C36.2493 55.8 36.1233 56.458 35.8713 57.074C35.624 57.6853 35.2786 58.2243 34.8353 58.691C34.392 59.1577 33.8786 59.524 33.2953 59.79C32.712 60.0513 32.0866 60.182 31.4193 60.182ZM31.4193 59.202C31.956 59.202 32.4553 59.0947 32.9173 58.88C33.384 58.6607 33.7923 58.362 34.1423 57.984C34.497 57.606 34.7723 57.1697 34.9683 56.675C35.169 56.1803 35.2693 55.6553 35.2693 55.1C35.2693 54.54 35.169 54.0127 34.9683 53.518C34.7676 53.0187 34.49 52.5823 34.1353 52.209C33.7853 51.831 33.377 51.5347 32.9103 51.32C32.4483 51.1053 31.9513 50.998 31.4193 50.998C30.8826 50.998 30.381 51.1077 29.9143 51.327C29.4523 51.5417 29.044 51.838 28.6893 52.216C28.3393 52.594 28.064 53.0303 27.8633 53.525C27.6673 54.0197 27.5693 54.5447 27.5693 55.1C27.5693 55.6647 27.6696 56.1943 27.8703 56.689C28.071 57.1837 28.3463 57.62 28.6963 57.998C29.051 58.376 29.4593 58.6723 29.9213 58.887C30.388 59.097 30.8873 59.202 31.4193 59.202ZM43.7194 55.667V60H42.7394V55.863C42.7394 55.4803 42.6461 55.1327 42.4594 54.82C42.2727 54.5073 42.0231 54.2577 41.7104 54.071C41.3977 53.8843 41.0501 53.791 40.6674 53.791C40.2894 53.791 39.9417 53.8843 39.6244 54.071C39.3117 54.2577 39.0621 54.5073 38.8754 54.82C38.6887 55.1327 38.5954 55.4803 38.5954 55.863V60H37.6154V53H38.5954V53.966C38.8427 53.6113 39.1647 53.329 39.5614 53.119C39.9581 52.909 40.3897 52.804 40.8564 52.804C41.3837 52.804 41.8644 52.9323 42.2984 53.189C42.7324 53.4457 43.0777 53.791 43.3344 54.225C43.5911 54.659 43.7194 55.1397 43.7194 55.667ZM45.1213 55.31H49.6013V56.29H45.1213V55.31ZM51.2873 60V53H52.2673V53.966C52.5146 53.6113 52.8366 53.329 53.2333 53.119C53.6299 52.909 54.0616 52.804 54.5283 52.804C54.7989 52.804 55.0603 52.839 55.3123 52.909L54.9133 53.882C54.7173 53.8213 54.5259 53.791 54.3393 53.791C53.9613 53.791 53.6136 53.8843 53.2963 54.071C52.9836 54.2577 52.7339 54.5073 52.5473 54.82C52.3606 55.1327 52.2673 55.4803 52.2673 55.863V60H51.2873ZM61.5803 53H62.5603V60H61.5803L61.5453 58.698C61.3167 59.1413 60.997 59.5007 60.5863 59.776C60.1757 60.0467 59.6857 60.182 59.1163 60.182C58.603 60.182 58.1223 60.0863 57.6743 59.895C57.2263 59.699 56.832 59.4307 56.4913 59.09C56.1507 58.7493 55.8847 58.355 55.6933 57.907C55.502 57.459 55.4063 56.9783 55.4063 56.465C55.4063 55.961 55.4997 55.4873 55.6863 55.044C55.8777 54.6007 56.139 54.211 56.4703 53.875C56.8063 53.539 57.1937 53.2777 57.6323 53.091C58.0757 52.8997 58.5493 52.804 59.0533 52.804C59.6367 52.804 60.1453 52.944 60.5793 53.224C61.0133 53.4993 61.3587 53.861 61.6153 54.309L61.5803 53ZM59.0953 59.23C59.5947 59.23 60.024 59.1087 60.3833 58.866C60.7427 58.6187 61.018 58.2873 61.2093 57.872C61.4053 57.4567 61.5033 56.9993 61.5033 56.5C61.5033 55.9867 61.4053 55.5247 61.2093 55.114C61.0133 54.6987 60.7357 54.3697 60.3763 54.127C60.017 53.8843 59.59 53.763 59.0953 53.763C58.6007 53.763 58.148 53.8867 57.7373 54.134C57.3313 54.3767 57.007 54.7057 56.7643 55.121C56.5263 55.5363 56.4073 55.996 56.4073 56.5C56.4073 57.0087 56.531 57.4707 56.7783 57.886C57.0257 58.2967 57.3523 58.6233 57.7583 58.866C58.169 59.1087 58.6147 59.23 59.0953 59.23ZM63.9611 60V53H64.9411V53.966C65.1931 53.6113 65.5151 53.329 65.9071 53.119C66.2991 52.909 66.7284 52.804 67.1951 52.804C67.7224 52.804 68.2054 52.9347 68.6441 53.196C69.0828 53.4527 69.4258 53.7957 69.6731 54.225C69.9204 53.7957 70.2611 53.4527 70.6951 53.196C71.1291 52.9347 71.6098 52.804 72.1371 52.804C72.6644 52.804 73.1451 52.9323 73.5791 53.189C74.0131 53.4457 74.3584 53.791 74.6151 54.225C74.8718 54.659 75.0001 55.1397 75.0001 55.667V60H74.0201V55.884C74.0201 55.5107 73.9291 55.1653 73.7471 54.848C73.5651 54.5307 73.3201 54.2763 73.0121 54.085C72.7088 53.889 72.3704 53.791 71.9971 53.791C71.6238 53.791 71.2831 53.882 70.9751 54.064C70.6718 54.2413 70.4291 54.4887 70.2471 54.806C70.0651 55.1187 69.9741 55.478 69.9741 55.884V60H68.9941V55.884C68.9941 55.478 68.9031 55.1187 68.7211 54.806C68.5391 54.4887 68.2941 54.2413 67.9861 54.064C67.6781 53.882 67.3374 53.791 66.9641 53.791C66.5954 53.791 66.2571 53.889 65.9491 54.085C65.6411 54.2763 65.3961 54.5307 65.2141 54.848C65.0321 55.1653 64.9411 55.5107 64.9411 55.884V60H63.9611ZM77.3825 63.5H76.4025V53H77.3825V54.309C77.6252 53.8657 77.9565 53.5063 78.3765 53.231C78.7965 52.9557 79.2958 52.818 79.8745 52.818C80.3832 52.818 80.8592 52.9137 81.3025 53.105C81.7505 53.2963 82.1425 53.5623 82.4785 53.903C82.8145 54.239 83.0782 54.6287 83.2695 55.072C83.4608 55.5153 83.5565 55.9913 83.5565 56.5C83.5565 57.0087 83.4608 57.487 83.2695 57.935C83.0782 58.383 82.8145 58.7773 82.4785 59.118C82.1425 59.454 81.7505 59.7177 81.3025 59.909C80.8592 60.1003 80.3832 60.196 79.8745 60.196C79.2958 60.196 78.7965 60.0583 78.3765 59.783C77.9565 59.5077 77.6252 59.1483 77.3825 58.705V63.5ZM79.8675 53.77C79.3775 53.77 78.9505 53.8937 78.5865 54.141C78.2272 54.3837 77.9495 54.7103 77.7535 55.121C77.5575 55.5317 77.4595 55.9913 77.4595 56.5C77.4595 56.9993 77.5552 57.4567 77.7465 57.872C77.9425 58.2873 78.2202 58.6187 78.5795 58.866C78.9435 59.1133 79.3728 59.237 79.8675 59.237C80.3528 59.237 80.7985 59.1157 81.2045 58.873C81.6152 58.6303 81.9442 58.3037 82.1915 57.893C82.4388 57.4777 82.5625 57.0133 82.5625 56.5C82.5625 56.0007 82.4412 55.5457 82.1985 55.135C81.9558 54.7197 81.6315 54.3883 81.2255 54.141C80.8195 53.8937 80.3668 53.77 79.8675 53.77Z" fill="#077453"/>
<path fill-rule="evenodd" clip-rule="evenodd" d="M50.5947 17.8645C52.8163 15.643 56.4181 15.643 58.6397 17.8645L59.4865 17.0177C56.7972 14.3284 52.4371 14.3284 49.7479 17.0177L50.5947 17.8645ZM50.5947 36.8697C52.8163 39.0913 56.4181 39.0913 58.6397 36.8697L59.4865 37.7166C56.7972 40.4058 52.4371 40.4058 49.7479 37.7166L50.5947 36.8697ZM73.9609 27.3632C73.9609 31.7815 70.3792 35.3632 65.9609 35.3632C61.5427 35.3632 57.9609 31.7815 57.9609 27.3632C57.9609 22.9449 61.5427 19.3632 65.9609 19.3632C70.3792 19.3632 73.9609 22.9449 73.9609 27.3632ZM67.9445 24.2019C69.1027 24.6011 69.9504 25.1994 69.7837 26.312C69.6632 27.1269 69.2121 27.5213 68.6123 27.6593C69.4355 28.0877 69.8543 28.7455 69.4552 29.8847C68.9599 31.2999 67.7837 31.4194 66.2189 31.1231L65.8393 32.6446L64.9221 32.4163L65.2969 30.915C65.059 30.8556 64.8159 30.7929 64.5654 30.7255L64.1896 32.2331L63.2729 32.0049L63.6524 30.4803C63.5622 30.4572 63.4712 30.4335 63.3796 30.4096C63.2541 30.3768 63.1273 30.3437 62.999 30.3115L61.8047 30.0137L62.2601 28.9636C62.2601 28.9636 62.9364 29.1431 62.9268 29.1298C63.1869 29.194 63.3021 29.0247 63.3477 28.9121L63.9475 26.5063L64.0447 26.5302C64.0075 26.5159 63.9746 26.5063 63.9491 26.5L64.377 24.7827C64.3881 24.5873 64.3212 24.3415 63.9497 24.2486C63.964 24.2391 63.283 24.083 63.283 24.083L63.5271 23.103L64.7926 23.4189L64.7915 23.4237C64.9687 23.4682 65.1515 23.51 65.3372 23.5525L65.3374 23.5525L65.3775 23.5617L65.7533 22.0546L66.6706 22.2834L66.3017 23.7608L66.317 23.7643C66.5587 23.8194 66.8008 23.8746 67.0368 23.9338L67.4031 22.466L68.3203 22.6943L67.9445 24.2019ZM65.0424 29.6673C65.7913 29.8652 67.4275 30.2974 67.6871 29.2519C67.9539 28.1836 66.3684 27.8274 65.5937 27.6534C65.5068 27.6338 65.4302 27.6166 65.3674 27.6009L64.8632 29.6208C64.9146 29.6336 64.9749 29.6495 65.0424 29.6673ZM65.7493 26.7157C66.3733 26.8824 67.7341 27.2457 67.971 26.2956C68.2134 25.3238 66.8905 25.0311 66.2443 24.8882C66.1715 24.872 66.1073 24.8578 66.0548 24.8448L65.5983 26.6762C65.6416 26.687 65.6923 26.7005 65.7492 26.7157L65.7493 26.7157ZM51.3711 27.3632C51.3711 31.7815 47.7894 35.3632 43.3711 35.3632C38.9528 35.3632 35.3711 31.7815 35.3711 27.3632C35.3711 22.9449 38.9528 19.3632 43.3711 19.3632C47.7894 19.3632 51.3711 22.9449 51.3711 27.3632ZM41.0012 31.388C40.4927 30.9089 40.1798 30.2195 40.0625 29.32H41.3825C41.4509 29.7991 41.6221 30.1707 41.8958 30.4347C42.1501 30.6498 42.4287 30.7915 42.7318 30.86V27.9707C41.1674 27.6871 40.3852 26.7973 40.3852 25.3013C40.3852 24.9004 40.4487 24.524 40.5758 24.172C40.7029 23.82 40.8936 23.5169 41.1478 23.2627C41.5585 22.852 42.0865 22.6027 42.7318 22.5147V21.664H44.0225V22.5147C44.8341 22.632 45.4696 22.9742 45.9292 23.5413C46.3398 24.0693 46.5843 24.7147 46.6625 25.4773L46.6332 25.492H45.3572C45.3083 25.1107 45.2056 24.7978 45.0492 24.5533C44.8145 24.172 44.4723 23.9324 44.0225 23.8347V26.7827C44.6483 26.8902 45.1812 27.076 45.6212 27.34C46.3252 27.7898 46.6772 28.484 46.6772 29.4227C46.6772 29.7942 46.6038 30.1511 46.4572 30.4933C46.3203 30.8258 46.1198 31.1191 45.8558 31.3733C45.3669 31.8524 44.7558 32.1409 44.0225 32.2387V33.06H42.7318V32.2093C42.0181 32.092 41.4412 31.8182 41.0012 31.388ZM41.8665 26.0933C42.0816 26.3671 42.3701 26.5431 42.7318 26.6213V23.8493C42.3407 23.9275 42.0425 24.0938 41.8372 24.348C41.6416 24.5924 41.5438 24.8711 41.5438 25.184C41.5438 25.5164 41.6514 25.8195 41.8665 26.0933ZM45.1518 28.616C44.9758 28.4107 44.5994 28.2493 44.0225 28.132V30.904C44.4332 30.816 44.7656 30.6253 45.0198 30.332C45.2838 30.0387 45.4158 29.7209 45.4158 29.3787C45.4158 29.1049 45.3278 28.8507 45.1518 28.616Z" fill="#077453"/>
</svg>
