<svg width="109" height="72" viewBox="0 0 109 72" fill="none" xmlns="http://www.w3.org/2000/svg">
<rect width="109" height="72" rx="16" fill="#BFFFC8"/>
<path d="M48.2177 50.2H49.4357L53.0057 60H51.9627L51.1997 57.9H46.4607L45.6977 60H44.6547L48.2177 50.2ZM46.8177 56.92H50.8357L48.8267 51.404L46.8177 56.92ZM54.3136 60V50.2H57.4496C57.9723 50.2 58.4436 50.3283 58.8636 50.585C59.2836 50.837 59.6173 51.18 59.8646 51.614C60.1166 52.0433 60.2426 52.5263 60.2426 53.063C60.2426 53.6043 60.1143 54.092 59.8576 54.526C59.6056 54.96 59.2673 55.303 58.8426 55.555C58.4226 55.807 57.9583 55.933 57.4496 55.933H55.2936V60H54.3136ZM55.2936 54.953H57.3726C57.718 54.953 58.033 54.869 58.3176 54.701C58.607 54.5283 58.8356 54.2973 59.0036 54.008C59.1763 53.714 59.2626 53.3827 59.2626 53.014C59.2626 52.6453 59.1763 52.3163 59.0036 52.027C58.8356 51.733 58.607 51.502 58.3176 51.334C58.033 51.1613 57.718 51.075 57.3726 51.075H55.2936V54.953ZM61.8791 60V50.2H62.8591V60H61.8791Z" fill="#077453"/>
<path fill-rule="evenodd" clip-rule="evenodd" d="M38 15.994C38 14.3405 39.3405 13 40.994 13H67.3413C68.9949 13 70.3353 14.3405 70.3353 15.994V18.3892H38V15.994ZM43.3902 15.6951C43.3902 16.1911 42.988 16.5933 42.492 16.5933C41.9959 16.5933 41.5938 16.1911 41.5938 15.6951C41.5938 15.199 41.9959 14.7969 42.492 14.7969C42.988 14.7969 43.3902 15.199 43.3902 15.6951ZM47.8826 16.5933C48.3786 16.5933 48.7808 16.1911 48.7808 15.6951C48.7808 15.199 48.3786 14.7969 47.8826 14.7969C47.3865 14.7969 46.9844 15.199 46.9844 15.6951C46.9844 16.1911 47.3865 16.5933 47.8826 16.5933ZM46.0855 15.6951C46.0855 16.1911 45.6833 16.5933 45.1873 16.5933C44.6912 16.5933 44.2891 16.1911 44.2891 15.6951C44.2891 15.199 44.6912 14.7969 45.1873 14.7969C45.6833 14.7969 46.0855 15.199 46.0855 15.6951ZM67.3413 39.3454H40.994C40.0019 39.3454 39.1976 38.5411 39.1976 37.549V20.7825H69.1377V37.549C69.1377 38.5411 68.3335 39.3454 67.3413 39.3454ZM40.994 40.543C39.3405 40.543 38 39.2025 38 37.549V20.7825V19.5849H39.1976H69.1377H70.3353V20.7825V37.549C70.3353 39.2025 68.9949 40.543 67.3413 40.543H40.994ZM41.5917 26.7734L48.7773 26.7734V24.977H41.5917L41.5917 26.7734ZM66.7422 26.7734L50.5745 26.7734V24.977L66.7422 24.977V26.7734ZM57.7614 29.168H41.5938V30.9644H57.7614V29.168ZM66.7442 29.168H59.5586V30.9644H66.7442V29.168ZM66.7422 35.1562L50.5745 35.1563V33.3598L66.7422 33.3598V35.1562ZM41.5917 35.1562H48.7773V33.3598L41.5917 33.3598L41.5917 35.1562Z" fill="#077453"/>
</svg>
